<?xml version="1.0" encoding="utf-8"?>
<!-- Generator: Adobe Illustrator 27.0.1, SVG Export Plug-In . SVG Version: 6.00 Build 0)  -->
<svg version="1.1" id="Layer_1" xmlns="http://www.w3.org/2000/svg" xmlns:xlink="http://www.w3.org/1999/xlink" x="0px" y="0px"
	 viewBox="0 0 450 370.5" style="enable-background:new 0 0 450 370.5;" xml:space="preserve">
<style type="text/css">
	.st0{fill:url(#SVGID_1_);}
	.st1{fill:#F5F5F5;}
	.st2{fill:#EBEBEB;}
	.st3{fill:#BA68C8;}
	.st4{opacity:0.6;fill:#FFFFFF;enable-background:new    ;}
	.st5{opacity:0.8;fill:#FFFFFF;enable-background:new    ;}
	.st6{fill:#FAFAFA;}
	.st7{opacity:0.15;enable-background:new    ;}
	.st8{fill:#37474F;}
	.st9{fill:#263238;}
	.st10{fill:#455A64;}
	.st11{opacity:0.15;}
	.st12{fill:#FFFFFF;}
	.st13{opacity:0.3;enable-background:new    ;}
	.st14{opacity:0.2;enable-background:new    ;}
	.st15{opacity:0.3;fill:#FFFFFF;enable-background:new    ;}
	.st16{opacity:0.1;enable-background:new    ;}
	.st17{fill:#FFBDA7;}
	.st18{fill:#F28F8F;}
	.st19{fill:#F0F0F0;}
	.st20{fill:#F0997A;}
	.st21{fill:#B16668;}
</style>
<g id="Speech_Bubble">
	
		<linearGradient id="SVGID_1_" gradientUnits="userSpaceOnUse" x1="18.86" y1="896.1314" x2="433.7139" y2="896.1314" gradientTransform="matrix(1 0 0 1 0 -685)">
		<stop  offset="0" style="stop-color:#FFFFFF"/>
		<stop  offset="0.2175" style="stop-color:#E9CEED"/>
		<stop  offset="0.4779" style="stop-color:#DEB6E5"/>
	</linearGradient>
	<path class="st0" d="M80.4,361C29.6,323.7-2.3,243.2,44,203.6S0.6,110.2,147,67.5c103.8-30.3,125.2,53.4,180.1,45.9
		c67.6-9.3,111.9,55.3,109.2,133c-2.2,64.4-27.9,115-27.9,115L80.4,361L80.4,361z"/>
</g>
<g id="Window">
	<g id="Window-2">
		<g>
			<polygon class="st1" points="347.6,79.4 377.8,96.8 377.8,101.4 347.6,84 			"/>
			<polygon class="st2" points="351.7,77.1 347.6,79.4 377.8,96.8 377.8,92.2 			"/>
		</g>
	</g>
</g>
<g id="Device_2">
	<g id="Laptop">
		<g>
			<path class="st3" d="M317.3,184.4c1.4,0.8,1.2,2.3-0.5,3.3l-222,128.1c-1.7,1-4.3,1.1-5.7,0.3L31,282.9c-1.4-0.8-1.2-2.3,0.5-3.3
				"/>
			<path class="st4" d="M317.3,184.4c1.4,0.8,1.2,2.3-0.5,3.3l-222,128.1c-1.7,1-4.3,1.1-5.7,0.3L31,282.9c-1.4-0.8-1.2-2.3,0.5-3.3
				"/>
			<path class="st3" d="M224.1,205.2l7-4c0.3-0.2,0.3-0.4,0.1-0.6l-6.7-3.8c-0.3-0.1-0.7-0.1-1,0l-7,4c-0.3,0.2-0.3,0.4-0.1,0.6
				l6.7,3.8C223.4,205.4,223.8,205.3,224.1,205.2z M214,191.3l-7,4c-0.3,0.2-0.3,0.4-0.1,0.6l6.7,3.8c0.3,0.1,0.7,0.1,1,0l7-4
				c0.3-0.2,0.3-0.4,0.1-0.6l-6.7-3.8C214.7,191.1,214.3,191.1,214,191.3z M191.5,204.3l-11.8,6.8c-0.3,0.2-0.3,0.4-0.1,0.6l6.7,3.8
				c0.3,0.1,0.7,0.1,1,0l11.8-6.8c0.3-0.2,0.3-0.4,0.1-0.6l-6.7-3.8C192.2,204.1,191.8,204.1,191.5,204.3L191.5,204.3z M203.8,197.1
				l-7,4c-0.3,0.2-0.3,0.4-0.1,0.6l6.7,3.8c0.3,0.1,0.7,0.1,1,0l7-4c0.3-0.2,0.3-0.4,0.1-0.6l-6.7-3.8
				C204.6,197,204.1,197,203.8,197.1z M176.5,212.9l-7,4c-0.3,0.2-0.3,0.4-0.1,0.6l6.7,3.8c0.3,0.1,0.7,0.1,1,0l7-4
				c0.3-0.2,0.3-0.4,0.1-0.6l-6.7-3.8C177.3,212.7,176.8,212.7,176.5,212.9z M166.4,218.8l-7,4c-0.3,0.2-0.3,0.4-0.1,0.6l6.7,3.8
				c0.3,0.1,0.7,0.1,1,0l7-4c0.3-0.2,0.3-0.4,0.1-0.6l-6.7-3.8C167.1,218.6,166.6,218.6,166.4,218.8z M192.4,234.5l7-4
				c0.3-0.2,0.3-0.4,0.1-0.6l-6.7-3.8c-0.3-0.1-0.7-0.1-1,0l-7,4c-0.3,0.2-0.3,0.4-0.1,0.6l6.7,3.8
				C191.7,234.6,192.2,234.6,192.4,234.5z M182.3,240.3l7-4c0.3-0.2,0.3-0.4,0.1-0.6l-6.7-3.8c-0.3-0.1-0.7-0.1-1,0l-7,4
				c-0.3,0.2-0.3,0.4-0.1,0.6l6.7,3.8C181.5,240.5,182,240.5,182.3,240.3z M172.1,246.2l7-4c0.3-0.2,0.3-0.4,0.1-0.6l-6.7-3.8
				c-0.3-0.1-0.7-0.1-1,0l-7,4c-0.3,0.2-0.3,0.4-0.1,0.6l6.7,3.8C171.4,246.4,171.8,246.4,172.1,246.2z M161.9,252.1l7-4
				c0.3-0.2,0.3-0.4,0.1-0.6l-6.7-3.8c-0.3-0.1-0.7-0.1-1,0l-7,4c-0.3,0.2-0.3,0.4-0.1,0.6l6.7,3.8
				C161.2,252.2,161.6,252.2,161.9,252.1z M214,211l7-4c0.3-0.2,0.3-0.4,0.1-0.6l-6.7-3.8c-0.3-0.1-0.7-0.1-1,0l-7,4
				c-0.3,0.2-0.3,0.4-0.1,0.6l6.7,3.8C213.2,211.2,213.7,211.2,214,211z M202.6,228.6l15.5-9c0.3-0.2,0.3-0.4,0.1-0.6l-16.2-9.3
				c-0.3-0.1-0.7-0.1-1,0l-8,4.6c-0.3,0.2-0.3,0.4-0.1,0.6l8.6,4.9c0.3,0.1,0.2,0.4-0.1,0.6l-6.4,3.7c-0.3,0.2-0.3,0.4-0.1,0.6
				l6.7,3.8C201.9,228.8,202.3,228.7,202.6,228.6L202.6,228.6z M156.2,224.6l-7,4c-0.3,0.2-0.3,0.4-0.1,0.6l6.7,3.8
				c0.3,0.1,0.7,0.1,1,0l7-4c0.3-0.2,0.3-0.4,0.1-0.6l-6.7-3.8C156.9,224.5,156.5,224.5,156.2,224.6z M146,230.5l-7,4
				c-0.3,0.2-0.3,0.4-0.1,0.6l6.7,3.8c0.3,0.1,0.7,0.1,1,0l7-4c0.3-0.2,0.3-0.4,0.1-0.6l-6.7-3.8C146.8,230.3,146.3,230.3,146,230.5
				z M89.7,293.2c0.3,0.1,0.7,0.1,1,0l7-4c0.3-0.2,0.3-0.4,0.1-0.6l-6.7-3.8c-0.3-0.1-0.7-0.1-1,0l-7,4c-0.3,0.2-0.3,0.4-0.1,0.6
				L89.7,293.2z M64.7,277.5l-7,4c-0.3,0.2-0.3,0.4-0.1,0.6l6.7,3.8c0.3,0.1,0.7,0.1,1,0l7-4c0.3-0.2,0.3-0.4,0.1-0.6l-6.7-3.8
				C65.4,277.3,65,277.3,64.7,277.5z M77.6,289.2c0.3,0.1,0.7,0.1,1,0l7-4c0.3-0.2,0.3-0.4,0.1-0.6l-6.7-3.8c-0.3-0.1-0.7-0.1-1,0
				l-7,4c-0.3,0.2-0.3,0.4-0.1,0.6C70.9,285.4,77.5,289.2,77.6,289.2z M105.6,295.6l7-4c0.3-0.2,0.3-0.4,0.1-0.6l-6.7-3.8
				c-0.3-0.1-0.7-0.1-1,0l-7,4c-0.3,0.2-0.3,0.4-0.1,0.6l6.7,3.8C104.9,295.7,105.3,295.7,105.6,295.6L105.6,295.6z M94.4,301.5
				c0.3,0.1,0.7,0.1,1,0l7-4c0.3-0.2,0.3-0.4,0.1-0.6l-6.7-3.8c-0.3-0.1-0.7-0.1-1,0l-7,4c-0.3,0.2-0.3,0.4-0.1,0.6
				C87.8,297.6,94.4,301.5,94.4,301.5z M74.8,271.6l-7,4c-0.3,0.2-0.3,0.4-0.1,0.6l6.7,3.8c0.3,0.1,0.7,0.1,1,0l7-4
				c0.3-0.2,0.3-0.4,0.1-0.6l-6.7-3.8C75.6,271.4,75.1,271.4,74.8,271.6z M125.7,242.3l-7,4c-0.3,0.2-0.3,0.4-0.1,0.6l6.7,3.8
				c0.3,0.1,0.7,0.1,1,0l7-4c0.3-0.2,0.3-0.4,0.1-0.6l-6.7-3.8C126.4,242.1,126,242.1,125.7,242.3z M85,265.7l-7,4
				c-0.3,0.2-0.3,0.4-0.1,0.6l6.7,3.8c0.3,0.1,0.7,0.1,1,0l7-4c0.3-0.2,0.3-0.4,0.1-0.6l-6.7-3.8C85.7,265.6,85.3,265.6,85,265.7
				L85,265.7z M135.8,236.4l-7,4c-0.3,0.2-0.3,0.4-0.1,0.6l6.7,3.8c0.3,0.1,0.7,0.1,1,0l7-4c0.3-0.2,0.3-0.4,0.1-0.6l-6.7-3.8
				C136.6,236.2,136.1,236.2,135.8,236.4z M115.5,248.1l-7,4c-0.3,0.2-0.3,0.4-0.1,0.6l6.7,3.8c0.3,0.1,0.7,0.1,1,0l7-4
				c0.3-0.2,0.3-0.4,0.1-0.6l-6.7-3.8C116.2,247.9,115.8,248,115.5,248.1z M105.3,254l-7,4c-0.3,0.2-0.3,0.4-0.1,0.6l6.7,3.8
				c0.3,0.1,0.7,0.1,1,0l7-4c0.3-0.2,0.3-0.4,0.1-0.6l-6.7-3.8C106.1,253.8,105.6,253.8,105.3,254z M95.2,259.9l-7,4
				c-0.3,0.2-0.3,0.4-0.1,0.6l6.7,3.8c0.3,0.1,0.7,0.1,1,0l7-4c0.3-0.2,0.3-0.4,0.1-0.6l-6.7-3.8C95.9,259.7,95.4,259.7,95.2,259.9z
				 M141.6,263.8l7-4c0.3-0.2,0.3-0.4,0.1-0.6l-6.7-3.8c-0.3-0.1-0.7-0.1-1,0l-7,4c-0.3,0.2-0.3,0.4-0.1,0.6l6.7,3.8
				C140.8,264,141.3,264,141.6,263.8z M244.1,182.7c0.3-0.2,0.3-0.4,0.1-0.6 M217.2,189.4c-0.3,0.2-0.3,0.4-0.1,0.6l6.7,3.8
				c0.3,0.1,0.7,0.1,1,0l7-4c0.3-0.2,0.3-0.4,0.1-0.6 M239.7,176.4c-0.3,0.2-0.3,0.4-0.1,0.6l6.7,3.8c0.3,0.1,0.7,0.1,1,0l7-4
				c0.3-0.2,0.3-0.4,0.1-0.6 M190.4,224.6l7-4c0.3-0.2,0.3-0.4,0.1-0.6l-6.7-3.8c-0.3-0.1-0.7-0.1-1,0l-7,4
				c-0.3,0.2-0.3,0.4-0.1,0.6l6.7,3.8C189.7,224.8,190.1,224.8,190.4,224.6z M256.4,175c0.3,0.1,0.7,0.1,1,0 M151.8,257.9l7-4
				c0.3-0.2,0.3-0.4,0.1-0.6l-6.7-3.8c-0.3-0.1-0.7-0.1-1,0l-7,4c-0.3,0.2-0.3,0.4-0.1,0.6l6.7,3.8
				C151,258.1,151.5,258.1,151.8,257.9z M276.5,185.9l7-4c0.3-0.2,0.3-0.4,0.1-0.6l-6.7-3.8c-0.3-0.1-0.7-0.1-1,0l-7,4
				c-0.3,0.2-0.3,0.4-0.1,0.6l6.7,3.8C275.7,186.1,276.2,186.1,276.5,185.9z M256.8,186.3l7-4c0.3-0.2,0.3-0.4,0.1-0.6l-6.7-3.8
				c-0.3-0.1-0.7-0.1-1,0l-7,4c-0.3,0.2-0.3,0.4-0.1,0.6l6.7,3.8C256,186.5,256.5,186.5,256.8,186.3L256.8,186.3z M259.4,176.1
				c-0.3,0.2-0.3,0.4-0.1,0.6l6.7,3.8c0.3,0.1,0.7,0.1,1,0l7-4c0.3-0.2,0.3-0.4,0.1-0.6 M285.6,180.1c0.3,0.1,0.7,0.1,1,0l7-4
				c0.3-0.2,0.3-0.4,0.1-0.6 M246,183.8l-7,4c-0.3,0.2-0.3,0.4-0.1,0.6l6.7,3.8c0.3,0.1,0.7,0.1,1,0l7-4c0.3-0.2,0.3-0.4,0.1-0.6
				l-6.7-3.8C246.7,183.6,246.3,183.6,246,183.8L246,183.8z M169.5,228l-7,4c-0.3,0.2-0.3,0.4-0.1,0.6l6.7,3.8c0.3,0.1,0.7,0.1,1,0
				l7-4c0.3-0.2,0.3-0.4,0.1-0.6l-6.7-3.8C170.2,227.8,169.7,227.8,169.5,228z M265.3,191.8c0.3,0.1,0.7,0.1,1,0l7-4
				c0.3-0.2,0.3-0.4,0.1-0.6l-6.7-3.8c-0.3-0.1-0.7-0.1-1,0l-7,4c-0.3,0.2-0.3,0.4-0.1,0.6L265.3,191.8L265.3,191.8z M179.6,222.1
				l-7,4c-0.3,0.2-0.3,0.4-0.1,0.6l6.7,3.8c0.3,0.1,0.7,0.1,1,0l7-4c0.3-0.2,0.3-0.4,0.1-0.6l-6.7-3.8
				C180.4,221.9,179.9,221.9,179.6,222.1z M99.9,287.3c0.3,0.1,0.7,0.1,1,0l7-4c0.3-0.2,0.3-0.4,0.1-0.6l-6.7-3.8
				c-0.3-0.1-0.7-0.1-1,0l-7,4c-0.3,0.2-0.3,0.4-0.1,0.6L99.9,287.3z M88.1,274.9l-7,4c-0.3,0.2-0.3,0.4-0.1,0.6l6.7,3.8
				c0.3,0.1,0.7,0.1,1,0l7-4c0.3-0.2,0.3-0.4,0.1-0.6l-6.7-3.8C88.9,274.7,88.4,274.8,88.1,274.9z M111.1,281.4l7-4
				c0.3-0.2,0.3-0.4,0.1-0.6l-6.7-3.8c-0.3-0.1-0.7-0.1-1,0l-7,4c-0.3,0.2-0.3,0.4-0.1,0.6l6.7,3.8
				C110.4,281.6,110.8,281.6,111.1,281.4z M121.3,275.5l7-4c0.3-0.2,0.3-0.4,0.1-0.6l-6.7-3.8c-0.3-0.1-0.7-0.1-1,0l-7,4
				c-0.3,0.2-0.3,0.4-0.1,0.6l6.7,3.8C120.5,275.7,121,275.7,121.3,275.5z M131.5,269.7l7-4c0.3-0.2,0.3-0.4,0.1-0.6l-6.7-3.8
				c-0.3-0.1-0.7-0.1-1,0l-7,4c-0.3,0.2-0.3,0.4-0.1,0.6l6.7,3.8C130.7,269.9,131.2,269.8,131.5,269.7L131.5,269.7z M98.3,269.1
				l-7,4c-0.3,0.2-0.3,0.4-0.1,0.6l6.7,3.8c0.3,0.1,0.7,0.1,1,0l7-4c0.3-0.2,0.3-0.4,0.1-0.6l-6.7-3.8
				C99,268.9,98.6,268.9,98.3,269.1z M108.5,263.2l-7,4c-0.3,0.2-0.3,0.4-0.1,0.6l6.7,3.8c0.3,0.1,0.7,0.1,1,0l7-4
				c0.3-0.2,0.3-0.4,0.1-0.6l-6.7-3.8C109.2,263,108.7,263,108.5,263.2z M149.1,239.7l-7,4c-0.3,0.2-0.3,0.4-0.1,0.6l6.7,3.8
				c0.3,0.1,0.7,0.1,1,0l7-4c0.3-0.2,0.3-0.4,0.1-0.6l-6.7-3.8C149.9,239.5,149.4,239.5,149.1,239.7L149.1,239.7z M139,245.6l-7,4
				c-0.3,0.2-0.3,0.4-0.1,0.6l6.7,3.8c0.3,0.1,0.7,0.1,1,0l7-4c0.3-0.2,0.3-0.4,0.1-0.6l-6.7-3.8C139.7,245.4,139.2,245.4,139,245.6
				L139,245.6z M159.3,233.8l-7,4c-0.3,0.2-0.3,0.4-0.1,0.6l6.7,3.8c0.3,0.1,0.7,0.1,1,0l7-4c0.3-0.2,0.3-0.4,0.1-0.6l-6.7-3.8
				C160,233.7,159.6,233.7,159.3,233.8z M118.6,257.3l-7,4c-0.3,0.2-0.3,0.4-0.1,0.6l6.7,3.8c0.3,0.1,0.7,0.1,1,0l7-4
				c0.3-0.2,0.3-0.4,0.1-0.6l-6.7-3.8C119.4,257.1,118.9,257.1,118.6,257.3z M128.8,251.4l-7,4c-0.3,0.2-0.3,0.4-0.1,0.6l6.7,3.8
				c0.3,0.1,0.7,0.1,1,0l7-4c0.3-0.2,0.3-0.4,0.1-0.6l-6.7-3.8C129.5,251.3,129.1,251.3,128.8,251.4z M115.8,289.7l7-4
				c0.3-0.2,0.3-0.4,0.1-0.6l-6.7-3.8c-0.3-0.1-0.7-0.1-1,0l-7,4c-0.3,0.2-0.3,0.4-0.1,0.6l6.7,3.8
				C115.1,289.9,115.5,289.9,115.8,289.7z M62.2,287.2l-6.7-3.8c-0.3-0.1-0.7-0.1-1,0l-7,4c-0.3,0.2-0.3,0.4-0.1,0.6l6.7,3.8
				c0.3,0.1,0.7,0.1,1,0l7-4C62.4,287.6,62.5,287.3,62.2,287.2z M75.4,290.5l-6.7-3.8c-0.3-0.1-0.7-0.1-1,0L57,292.9
				c-0.3,0.2-0.3,0.4-0.1,0.6l6.7,3.8c0.3,0.1,0.7,0.1,1,0l10.7-6.2C75.7,290.9,75.7,290.6,75.4,290.5z M52.3,279.6l-6.7-3.8
				c-0.3-0.1-0.7-0.1-1,0l-8.6,4.9c-0.3,0.2-0.3,0.4-0.1,0.6l6.7,3.8c0.3,0.1,0.7,0.1,1,0l8.6-4.9C52.5,280,52.5,279.7,52.3,279.6z
				 M58.8,275.8c0.3,0.1,0.7,0.1,1,0l7-4c0.3-0.2,0.3-0.4,0.1-0.6l-6.7-3.8c-0.3-0.1-0.7-0.1-1,0l-7,4c-0.3,0.2-0.3,0.4-0.1,0.6
				L58.8,275.8z M87.6,294.4l-6.7-3.8c-0.3-0.1-0.7-0.1-1,0l-13.4,7.7c-0.3,0.2-0.3,0.4-0.1,0.6l6.7,3.8c0.3,0.1,0.7,0.1,1,0
				l13.4-7.7C87.9,294.8,87.9,294.6,87.6,294.4L87.6,294.4z M92.3,302.7l-6.7-3.8c-0.3-0.1-0.7-0.1-1,0l-8.6,4.9
				c-0.3,0.2-0.3,0.4-0.1,0.6l6.7,3.8c0.3,0.1,0.7,0.1,1,0l8.6-4.9C92.6,303.1,92.6,302.8,92.3,302.7z M134.4,232.1
				c0.3,0.1,0.7,0.1,1,0l7-4c0.3-0.2,0.3-0.4,0.1-0.6l-6.7-3.8c-0.3-0.1-0.7-0.1-1,0l-7,4c-0.3,0.2-0.3,0.4-0.1,0.6L134.4,232.1z
				 M114.1,243.9c0.3,0.1,0.7,0.1,1,0l7-4c0.3-0.2,0.3-0.4,0.1-0.6l-6.7-3.8c-0.3-0.1-0.7-0.1-1,0l-7,4c-0.3,0.2-0.3,0.4-0.1,0.6
				L114.1,243.9z M69,269.9c0.3,0.1,0.7,0.1,1,0l7-4c0.3-0.2,0.3-0.4,0.1-0.6l-6.7-3.8c-0.3-0.1-0.7-0.1-1,0l-7,4
				c-0.3,0.2-0.3,0.4-0.1,0.6L69,269.9z M124.3,238c0.3,0.1,0.7,0.1,1,0l7-4c0.3-0.2,0.3-0.4,0.1-0.6l-6.7-3.8c-0.3-0.1-0.7-0.1-1,0
				l-7,4c-0.3,0.2-0.3,0.4-0.1,0.6L124.3,238z M103.9,249.7c0.3,0.1,0.7,0.1,1,0l7-4c0.3-0.2,0.3-0.4,0.1-0.6l-6.7-3.8
				c-0.3-0.1-0.7-0.1-1,0l-7,4c-0.3,0.2-0.3,0.4-0.1,0.6L103.9,249.7L103.9,249.7z M97.3,303.1c-0.3-0.1-0.7-0.1-1,0l-10.7,6.2
				c-0.3,0.2-0.3,0.4-0.1,0.6l6.7,3.8c0.3,0.1,0.7,0.1,1,0l10.7-6.2c0.3-0.2,0.3-0.4,0.1-0.6L97.3,303.1z M89.3,258.2
				c0.3,0.1,0.7,0.1,1,0l7-4c0.3-0.2,0.3-0.4,0.1-0.6l-6.7-3.8c-0.3-0.1-0.7-0.1-1,0l-7,4c-0.3,0.2-0.3,0.4-0.1,0.6L89.3,258.2z
				 M79.2,264c0.3,0.1,0.7,0.1,1,0l7-4c0.3-0.2,0.3-0.4,0.1-0.6l-6.7-3.8c-0.3-0.1-0.7-0.1-1,0l-7,4c-0.3,0.2-0.3,0.4-0.1,0.6
				L79.2,264z M285.7,194.3c-0.3-0.1-0.7-0.1-1,0l-17.1,9.9c-0.3,0.2-0.3,0.4-0.1,0.6l6.7,3.8c0.3,0.1,0.7,0.1,1,0l17.1-9.9
				c0.3-0.2,0.3-0.4,0.1-0.6L285.7,194.3z M263.2,207.3c-0.3-0.1-0.7-0.1-1,0l-7,4c-0.3,0.2-0.3,0.4-0.1,0.6l6.7,3.8
				c0.3,0.1,0.7,0.1,1,0l7-4c0.3-0.2,0.3-0.4,0.1-0.6L263.2,207.3L263.2,207.3z M126,283.8l7-4c0.3-0.2,0.3-0.4,0.1-0.6l-6.7-3.8
				c-0.3-0.1-0.7-0.1-1,0l-7,4c-0.3,0.2-0.3,0.4-0.1,0.6l6.7,3.8C125.2,284,125.7,284,126,283.8z M242.9,219.1c-0.3-0.1-0.7-0.1-1,0
				l-7,4c-0.3,0.2-0.3,0.4-0.1,0.6l6.7,3.8c0.3,0.1,0.7,0.1,1,0l7-4c0.3-0.2,0.3-0.4,0.1-0.6L242.9,219.1z M295.9,188.5
				c-0.3-0.1-0.7-0.1-1,0l-7,4c-0.3,0.2-0.3,0.4-0.1,0.6l6.7,3.8c0.3,0.1,0.7,0.1,1,0l7-4c0.3-0.2,0.3-0.4,0.1-0.6L295.9,188.5z
				 M312.7,186.4l-16.2-9.3c-0.3-0.1-0.7-0.1-1,0l-7,4c-0.3,0.2-0.3,0.4-0.1,0.6l16.2,9.3c0.3,0.1,0.7,0.1,1,0l7-4
				C312.9,186.8,312.9,186.6,312.7,186.4L312.7,186.4z M204.9,241c-0.3-0.1-0.7-0.1-1,0l-8.6,4.9c-0.3,0.2-0.3,0.4-0.1,0.6l6.7,3.8
				c0.3,0.1,0.7,0.1,1,0l8.6-4.9c0.3-0.2,0.3-0.4,0.1-0.6L204.9,241L204.9,241z M230.6,226.2c-0.3-0.1-0.7-0.1-1,0l-10.7,6.2
				c-0.3,0.2-0.3,0.4-0.1,0.6l6.7,3.8c0.3,0.1,0.7,0.1,1,0l10.7-6.2c0.3-0.2,0.3-0.4,0.1-0.6L230.6,226.2z M181.3,254.6
				c-0.3-0.1-0.7-0.1-1,0L123,287.7c-0.3,0.2-0.3,0.4-0.1,0.6l6.7,3.8c0.3,0.1,0.7,0.1,1,0l57.3-33.1c0.3-0.2,0.3-0.4,0.1-0.6
				L181.3,254.6L181.3,254.6z M120.8,289.5c-0.3-0.1-0.7-0.1-1,0l-8.6,4.9c-0.3,0.2-0.3,0.4-0.1,0.6l6.7,3.8c0.3,0.1,0.7,0.1,1,0
				l8.6-4.9c0.3-0.2,0.3-0.4,0.1-0.6L120.8,289.5z M193.1,247.8c-0.3-0.1-0.7-0.1-1,0l-8.6,4.9c-0.3,0.2-0.3,0.4-0.1,0.6l6.7,3.8
				c0.3,0.1,0.7,0.1,1,0l8.6-4.9c0.3-0.2,0.3-0.4,0.1-0.6L193.1,247.8z M109.1,296.3c-0.3-0.1-0.7-0.1-1,0l-8.6,4.9
				c-0.3,0.2-0.3,0.4-0.1,0.6l6.7,3.8c0.3,0.1,0.7,0.1,1,0l8.6-4.9c0.3-0.2,0.3-0.4,0.1-0.6C115.7,300.2,109.1,296.3,109.1,296.3z
				 M216.6,234.2c-0.3-0.1-0.7-0.1-1,0l-8.6,4.9c-0.3,0.2-0.3,0.4-0.1,0.6l6.7,3.8c0.3,0.1,0.7,0.1,1,0l8.6-4.9
				c0.3-0.2,0.3-0.4,0.1-0.6L216.6,234.2z M253,213.2c-0.3-0.1-0.7-0.1-1,0l-7,4c-0.3,0.2-0.3,0.4-0.1,0.6l6.7,3.8
				c0.3,0.1,0.7,0.1,1,0l7-4c0.3-0.2,0.3-0.4,0.1-0.6L253,213.2z M275.8,197.3l7-4c0.3-0.2,0.3-0.4,0.1-0.6l-6.7-3.8
				c-0.3-0.1-0.7-0.1-1,0l-7,4c-0.3,0.2-0.3,0.4-0.1,0.6l6.7,3.8C275.1,197.5,275.5,197.5,275.8,197.3z M234.3,199.3l7-4
				c0.3-0.2,0.3-0.4,0.1-0.6l-6.7-3.8c-0.3-0.1-0.7-0.1-1,0l-7,4c-0.3,0.2-0.3,0.4-0.1,0.6l6.7,3.8
				C233.6,199.5,234,199.5,234.3,199.3z M207.3,236.9l20.3-11.7c0.3-0.2,0.3-0.4,0.1-0.6l-6.7-3.8c-0.3-0.1-0.7-0.1-1,0l-20.3,11.7
				c-0.3,0.2-0.3,0.4-0.1,0.6l6.7,3.8C206.6,237,207,237,207.3,236.9z M264.6,203.2c0.3,0.1,0.7,0.1,1,0l7-4
				c0.3-0.2,0.3-0.4,0.1-0.6l-6.7-3.8c-0.3-0.1-0.7-0.1-1,0l-7,4c-0.3,0.2-0.3,0.4-0.1,0.6L264.6,203.2L264.6,203.2z M256.1,197.7
				l7-4c0.3-0.2,0.3-0.4,0.1-0.6l-6.7-3.8c-0.3-0.1-0.7-0.1-1,0l-7,4c-0.3,0.2-0.3,0.4-0.1,0.6l6.7,3.8
				C255.4,197.9,255.8,197.9,256.1,197.7L256.1,197.7z M197.1,242.7l7-4c0.3-0.2,0.3-0.4,0.1-0.6l-6.7-3.8c-0.3-0.1-0.7-0.1-1,0
				l-7,4c-0.3,0.2-0.3,0.4-0.1,0.6l6.7,3.8C196.4,242.9,196.8,242.9,197.1,242.7z M242.2,216.2c0.3,0.1,0.7,0.1,1,0l7-4
				c0.3-0.2,0.3-0.4,0.1-0.6l-6.7-3.8c-0.3-0.1-0.7-0.1-1,0l-7,4c-0.3,0.2-0.3,0.4-0.1,0.6L242.2,216.2z M146.3,272.1l7-4
				c0.3-0.2,0.3-0.4,0.1-0.6l-6.7-3.8c-0.3-0.1-0.7-0.1-1,0l-7,4c-0.3,0.2-0.3,0.4-0.1,0.6l6.7,3.8
				C145.5,272.3,146,272.2,146.3,272.1z M156.5,266.2l7-4c0.3-0.2,0.3-0.4,0.1-0.6l-6.7-3.8c-0.3-0.1-0.7-0.1-1,0l-7,4
				c-0.3,0.2-0.3,0.4-0.1,0.6l6.7,3.8C155.7,266.4,156.2,266.4,156.5,266.2z M136.1,277.9l7-4c0.3-0.2,0.3-0.4,0.1-0.6l-6.7-3.8
				c-0.3-0.1-0.7-0.1-1,0l-7,4c-0.3,0.2-0.3,0.4-0.1,0.6l6.7,3.8C135.4,278.1,135.8,278.1,136.1,277.9L136.1,277.9z M176.8,254.5
				l7-4c0.3-0.2,0.3-0.4,0.1-0.6l-6.7-3.8c-0.3-0.1-0.7-0.1-1,0l-7,4c-0.3,0.2-0.3,0.4-0.1,0.6l6.7,3.8
				C176,254.6,176.5,254.6,176.8,254.5z M166.6,260.3l7-4c0.3-0.2,0.3-0.4,0.1-0.6l-6.7-3.8c-0.3-0.1-0.7-0.1-1,0l-7,4
				c-0.3,0.2-0.3,0.4-0.1,0.6l6.7,3.8C165.9,260.5,166.3,260.5,166.6,260.3L166.6,260.3z M187,248.6l7-4c0.3-0.2,0.3-0.4,0.1-0.6
				l-6.7-3.8c-0.3-0.1-0.7-0.1-1,0l-7,4c-0.3,0.2-0.3,0.4-0.1,0.6l6.7,3.8C186.2,248.8,186.7,248.8,187,248.6L187,248.6z
				 M191.9,198.9c0.3,0.1,0.7,0.1,1,0l7-4c0.3-0.2,0.3-0.4,0.1-0.6l-6.7-3.8c-0.3-0.1-0.7-0.1-1,0l-7,4c-0.3,0.2-0.3,0.4-0.1,0.6
				L191.9,198.9z M179.5,206.1c0.3,0.1,0.7,0.1,1,0l7-4c0.3-0.2,0.3-0.4,0.1-0.6l-6.7-3.8c-0.3-0.1-0.7-0.1-1,0l-7,4
				c-0.3,0.2-0.3,0.4-0.1,0.6L179.5,206.1L179.5,206.1z M195.5,188.6c-0.3,0.2-0.3,0.4-0.1,0.6l6.7,3.8c0.3,0.1,0.7,0.1,1,0l7-4
				c0.3-0.2,0.3-0.4,0.1-0.6 M159.2,217.8c0.3,0.1,0.7,0.1,1,0l7-4c0.3-0.2,0.3-0.4,0.1-0.6l-6.7-3.8c-0.3-0.1-0.7-0.1-1,0l-7,4
				c-0.3,0.2-0.3,0.4-0.1,0.6L159.2,217.8L159.2,217.8z M169.3,212c0.3,0.1,0.7,0.1,1,0l7-4c0.3-0.2,0.3-0.4,0.1-0.6l-6.7-3.8
				c-0.3-0.1-0.7-0.1-1,0l-7,4c-0.3,0.2-0.3,0.4-0.1,0.6L169.3,212z M286,191.4l7-4c0.3-0.2,0.3-0.4,0.1-0.6l-6.7-3.8
				c-0.3-0.1-0.7-0.1-1,0l-7,4c-0.3,0.2-0.3,0.4-0.1,0.6l6.7,3.8C285.2,191.6,285.7,191.6,286,191.4z M149,223.7
				c0.3,0.1,0.7,0.1,1,0l7-4c0.3-0.2,0.3-0.4,0.1-0.6l-6.7-3.8c-0.3-0.1-0.7-0.1-1,0l-7,4c-0.3,0.2-0.3,0.4-0.1,0.6L149,223.7z"/>
			<path class="st5" d="M224.1,205.2l7-4c0.3-0.2,0.3-0.4,0.1-0.6l-6.7-3.8c-0.3-0.1-0.7-0.1-1,0l-7,4c-0.3,0.2-0.3,0.4-0.1,0.6
				l6.7,3.8C223.4,205.4,223.8,205.3,224.1,205.2z M214,191.3l-7,4c-0.3,0.2-0.3,0.4-0.1,0.6l6.7,3.8c0.3,0.1,0.7,0.1,1,0l7-4
				c0.3-0.2,0.3-0.4,0.1-0.6l-6.7-3.8C214.7,191.1,214.3,191.1,214,191.3z M191.5,204.3l-11.8,6.8c-0.3,0.2-0.3,0.4-0.1,0.6l6.7,3.8
				c0.3,0.1,0.7,0.1,1,0l11.8-6.8c0.3-0.2,0.3-0.4,0.1-0.6l-6.7-3.8C192.2,204.1,191.8,204.1,191.5,204.3L191.5,204.3z M203.8,197.1
				l-7,4c-0.3,0.2-0.3,0.4-0.1,0.6l6.7,3.8c0.3,0.1,0.7,0.1,1,0l7-4c0.3-0.2,0.3-0.4,0.1-0.6l-6.7-3.8
				C204.6,197,204.1,197,203.8,197.1z M176.5,212.9l-7,4c-0.3,0.2-0.3,0.4-0.1,0.6l6.7,3.8c0.3,0.1,0.7,0.1,1,0l7-4
				c0.3-0.2,0.3-0.4,0.1-0.6l-6.7-3.8C177.3,212.7,176.8,212.7,176.5,212.9z M166.4,218.8l-7,4c-0.3,0.2-0.3,0.4-0.1,0.6l6.7,3.8
				c0.3,0.1,0.7,0.1,1,0l7-4c0.3-0.2,0.3-0.4,0.1-0.6l-6.7-3.8C167.1,218.6,166.6,218.6,166.4,218.8z M192.4,234.5l7-4
				c0.3-0.2,0.3-0.4,0.1-0.6l-6.7-3.8c-0.3-0.1-0.7-0.1-1,0l-7,4c-0.3,0.2-0.3,0.4-0.1,0.6l6.7,3.8
				C191.7,234.6,192.2,234.6,192.4,234.5z M182.3,240.3l7-4c0.3-0.2,0.3-0.4,0.1-0.6l-6.7-3.8c-0.3-0.1-0.7-0.1-1,0l-7,4
				c-0.3,0.2-0.3,0.4-0.1,0.6l6.7,3.8C181.5,240.5,182,240.5,182.3,240.3z M172.1,246.2l7-4c0.3-0.2,0.3-0.4,0.1-0.6l-6.7-3.8
				c-0.3-0.1-0.7-0.1-1,0l-7,4c-0.3,0.2-0.3,0.4-0.1,0.6l6.7,3.8C171.4,246.4,171.8,246.4,172.1,246.2z M161.9,252.1l7-4
				c0.3-0.2,0.3-0.4,0.1-0.6l-6.7-3.8c-0.3-0.1-0.7-0.1-1,0l-7,4c-0.3,0.2-0.3,0.4-0.1,0.6l6.7,3.8
				C161.2,252.2,161.6,252.2,161.9,252.1z M214,211l7-4c0.3-0.2,0.3-0.4,0.1-0.6l-6.7-3.8c-0.3-0.1-0.7-0.1-1,0l-7,4
				c-0.3,0.2-0.3,0.4-0.1,0.6l6.7,3.8C213.2,211.2,213.7,211.2,214,211z M202.6,228.6l15.5-9c0.3-0.2,0.3-0.4,0.1-0.6l-16.2-9.3
				c-0.3-0.1-0.7-0.1-1,0l-8,4.6c-0.3,0.2-0.3,0.4-0.1,0.6l8.6,4.9c0.3,0.1,0.2,0.4-0.1,0.6l-6.4,3.7c-0.3,0.2-0.3,0.4-0.1,0.6
				l6.7,3.8C201.9,228.8,202.3,228.7,202.6,228.6L202.6,228.6z M156.2,224.6l-7,4c-0.3,0.2-0.3,0.4-0.1,0.6l6.7,3.8
				c0.3,0.1,0.7,0.1,1,0l7-4c0.3-0.2,0.3-0.4,0.1-0.6l-6.7-3.8C156.9,224.5,156.5,224.5,156.2,224.6z M146,230.5l-7,4
				c-0.3,0.2-0.3,0.4-0.1,0.6l6.7,3.8c0.3,0.1,0.7,0.1,1,0l7-4c0.3-0.2,0.3-0.4,0.1-0.6l-6.7-3.8C146.8,230.3,146.3,230.3,146,230.5
				z M89.7,293.2c0.3,0.1,0.7,0.1,1,0l7-4c0.3-0.2,0.3-0.4,0.1-0.6l-6.7-3.8c-0.3-0.1-0.7-0.1-1,0l-7,4c-0.3,0.2-0.3,0.4-0.1,0.6
				L89.7,293.2z M64.7,277.5l-7,4c-0.3,0.2-0.3,0.4-0.1,0.6l6.7,3.8c0.3,0.1,0.7,0.1,1,0l7-4c0.3-0.2,0.3-0.4,0.1-0.6l-6.7-3.8
				C65.4,277.3,65,277.3,64.7,277.5z M77.6,289.2c0.3,0.1,0.7,0.1,1,0l7-4c0.3-0.2,0.3-0.4,0.1-0.6l-6.7-3.8c-0.3-0.1-0.7-0.1-1,0
				l-7,4c-0.3,0.2-0.3,0.4-0.1,0.6C70.9,285.4,77.5,289.2,77.6,289.2z M105.6,295.6l7-4c0.3-0.2,0.3-0.4,0.1-0.6l-6.7-3.8
				c-0.3-0.1-0.7-0.1-1,0l-7,4c-0.3,0.2-0.3,0.4-0.1,0.6l6.7,3.8C104.9,295.7,105.3,295.7,105.6,295.6L105.6,295.6z M94.4,301.5
				c0.3,0.1,0.7,0.1,1,0l7-4c0.3-0.2,0.3-0.4,0.1-0.6l-6.7-3.8c-0.3-0.1-0.7-0.1-1,0l-7,4c-0.3,0.2-0.3,0.4-0.1,0.6
				C87.8,297.6,94.4,301.5,94.4,301.5z M74.8,271.6l-7,4c-0.3,0.2-0.3,0.4-0.1,0.6l6.7,3.8c0.3,0.1,0.7,0.1,1,0l7-4
				c0.3-0.2,0.3-0.4,0.1-0.6l-6.7-3.8C75.6,271.4,75.1,271.4,74.8,271.6z M125.7,242.3l-7,4c-0.3,0.2-0.3,0.4-0.1,0.6l6.7,3.8
				c0.3,0.1,0.7,0.1,1,0l7-4c0.3-0.2,0.3-0.4,0.1-0.6l-6.7-3.8C126.4,242.1,126,242.1,125.7,242.3z M85,265.7l-7,4
				c-0.3,0.2-0.3,0.4-0.1,0.6l6.7,3.8c0.3,0.1,0.7,0.1,1,0l7-4c0.3-0.2,0.3-0.4,0.1-0.6l-6.7-3.8C85.7,265.6,85.3,265.6,85,265.7
				L85,265.7z M135.8,236.4l-7,4c-0.3,0.2-0.3,0.4-0.1,0.6l6.7,3.8c0.3,0.1,0.7,0.1,1,0l7-4c0.3-0.2,0.3-0.4,0.1-0.6l-6.7-3.8
				C136.6,236.2,136.1,236.2,135.8,236.4z M115.5,248.1l-7,4c-0.3,0.2-0.3,0.4-0.1,0.6l6.7,3.8c0.3,0.1,0.7,0.1,1,0l7-4
				c0.3-0.2,0.3-0.4,0.1-0.6l-6.7-3.8C116.2,247.9,115.8,248,115.5,248.1z M105.3,254l-7,4c-0.3,0.2-0.3,0.4-0.1,0.6l6.7,3.8
				c0.3,0.1,0.7,0.1,1,0l7-4c0.3-0.2,0.3-0.4,0.1-0.6l-6.7-3.8C106.1,253.8,105.6,253.8,105.3,254z M95.2,259.9l-7,4
				c-0.3,0.2-0.3,0.4-0.1,0.6l6.7,3.8c0.3,0.1,0.7,0.1,1,0l7-4c0.3-0.2,0.3-0.4,0.1-0.6l-6.7-3.8C95.9,259.7,95.4,259.7,95.2,259.9z
				 M141.6,263.8l7-4c0.3-0.2,0.3-0.4,0.1-0.6l-6.7-3.8c-0.3-0.1-0.7-0.1-1,0l-7,4c-0.3,0.2-0.3,0.4-0.1,0.6l6.7,3.8
				C140.8,264,141.3,264,141.6,263.8z M244.1,182.7c0.3-0.2,0.3-0.4,0.1-0.6 M217.2,189.4c-0.3,0.2-0.3,0.4-0.1,0.6l6.7,3.8
				c0.3,0.1,0.7,0.1,1,0l7-4c0.3-0.2,0.3-0.4,0.1-0.6 M239.7,176.4c-0.3,0.2-0.3,0.4-0.1,0.6l6.7,3.8c0.3,0.1,0.7,0.1,1,0l7-4
				c0.3-0.2,0.3-0.4,0.1-0.6 M190.4,224.6l7-4c0.3-0.2,0.3-0.4,0.1-0.6l-6.7-3.8c-0.3-0.1-0.7-0.1-1,0l-7,4
				c-0.3,0.2-0.3,0.4-0.1,0.6l6.7,3.8C189.7,224.8,190.1,224.8,190.4,224.6z M256.4,175c0.3,0.1,0.7,0.1,1,0 M151.8,257.9l7-4
				c0.3-0.2,0.3-0.4,0.1-0.6l-6.7-3.8c-0.3-0.1-0.7-0.1-1,0l-7,4c-0.3,0.2-0.3,0.4-0.1,0.6l6.7,3.8
				C151,258.1,151.5,258.1,151.8,257.9z M276.5,185.9l7-4c0.3-0.2,0.3-0.4,0.1-0.6l-6.7-3.8c-0.3-0.1-0.7-0.1-1,0l-7,4
				c-0.3,0.2-0.3,0.4-0.1,0.6l6.7,3.8C275.7,186.1,276.2,186.1,276.5,185.9z M256.8,186.3l7-4c0.3-0.2,0.3-0.4,0.1-0.6l-6.7-3.8
				c-0.3-0.1-0.7-0.1-1,0l-7,4c-0.3,0.2-0.3,0.4-0.1,0.6l6.7,3.8C256,186.5,256.5,186.5,256.8,186.3L256.8,186.3z M259.4,176.1
				c-0.3,0.2-0.3,0.4-0.1,0.6l6.7,3.8c0.3,0.1,0.7,0.1,1,0l7-4c0.3-0.2,0.3-0.4,0.1-0.6 M285.6,180.1c0.3,0.1,0.7,0.1,1,0l7-4
				c0.3-0.2,0.3-0.4,0.1-0.6 M246,183.8l-7,4c-0.3,0.2-0.3,0.4-0.1,0.6l6.7,3.8c0.3,0.1,0.7,0.1,1,0l7-4c0.3-0.2,0.3-0.4,0.1-0.6
				l-6.7-3.8C246.7,183.6,246.3,183.6,246,183.8L246,183.8z M169.5,228l-7,4c-0.3,0.2-0.3,0.4-0.1,0.6l6.7,3.8c0.3,0.1,0.7,0.1,1,0
				l7-4c0.3-0.2,0.3-0.4,0.1-0.6l-6.7-3.8C170.2,227.8,169.7,227.8,169.5,228z M265.3,191.8c0.3,0.1,0.7,0.1,1,0l7-4
				c0.3-0.2,0.3-0.4,0.1-0.6l-6.7-3.8c-0.3-0.1-0.7-0.1-1,0l-7,4c-0.3,0.2-0.3,0.4-0.1,0.6L265.3,191.8L265.3,191.8z M179.6,222.1
				l-7,4c-0.3,0.2-0.3,0.4-0.1,0.6l6.7,3.8c0.3,0.1,0.7,0.1,1,0l7-4c0.3-0.2,0.3-0.4,0.1-0.6l-6.7-3.8
				C180.4,221.9,179.9,221.9,179.6,222.1z M99.9,287.3c0.3,0.1,0.7,0.1,1,0l7-4c0.3-0.2,0.3-0.4,0.1-0.6l-6.7-3.8
				c-0.3-0.1-0.7-0.1-1,0l-7,4c-0.3,0.2-0.3,0.4-0.1,0.6L99.9,287.3z M88.1,274.9l-7,4c-0.3,0.2-0.3,0.4-0.1,0.6l6.7,3.8
				c0.3,0.1,0.7,0.1,1,0l7-4c0.3-0.2,0.3-0.4,0.1-0.6l-6.7-3.8C88.9,274.7,88.4,274.8,88.1,274.9z M111.1,281.4l7-4
				c0.3-0.2,0.3-0.4,0.1-0.6l-6.7-3.8c-0.3-0.1-0.7-0.1-1,0l-7,4c-0.3,0.2-0.3,0.4-0.1,0.6l6.7,3.8
				C110.4,281.6,110.8,281.6,111.1,281.4z M121.3,275.5l7-4c0.3-0.2,0.3-0.4,0.1-0.6l-6.7-3.8c-0.3-0.1-0.7-0.1-1,0l-7,4
				c-0.3,0.2-0.3,0.4-0.1,0.6l6.7,3.8C120.5,275.7,121,275.7,121.3,275.5z M131.5,269.7l7-4c0.3-0.2,0.3-0.4,0.1-0.6l-6.7-3.8
				c-0.3-0.1-0.7-0.1-1,0l-7,4c-0.3,0.2-0.3,0.4-0.1,0.6l6.7,3.8C130.7,269.9,131.2,269.8,131.5,269.7L131.5,269.7z M98.3,269.1
				l-7,4c-0.3,0.2-0.3,0.4-0.1,0.6l6.7,3.8c0.3,0.1,0.7,0.1,1,0l7-4c0.3-0.2,0.3-0.4,0.1-0.6l-6.7-3.8
				C99,268.9,98.6,268.9,98.3,269.1z M108.5,263.2l-7,4c-0.3,0.2-0.3,0.4-0.1,0.6l6.7,3.8c0.3,0.1,0.7,0.1,1,0l7-4
				c0.3-0.2,0.3-0.4,0.1-0.6l-6.7-3.8C109.2,263,108.7,263,108.5,263.2z M149.1,239.7l-7,4c-0.3,0.2-0.3,0.4-0.1,0.6l6.7,3.8
				c0.3,0.1,0.7,0.1,1,0l7-4c0.3-0.2,0.3-0.4,0.1-0.6l-6.7-3.8C149.9,239.5,149.4,239.5,149.1,239.7L149.1,239.7z M139,245.6l-7,4
				c-0.3,0.2-0.3,0.4-0.1,0.6l6.7,3.8c0.3,0.1,0.7,0.1,1,0l7-4c0.3-0.2,0.3-0.4,0.1-0.6l-6.7-3.8C139.7,245.4,139.2,245.4,139,245.6
				L139,245.6z M159.3,233.8l-7,4c-0.3,0.2-0.3,0.4-0.1,0.6l6.7,3.8c0.3,0.1,0.7,0.1,1,0l7-4c0.3-0.2,0.3-0.4,0.1-0.6l-6.7-3.8
				C160,233.7,159.6,233.7,159.3,233.8z M118.6,257.3l-7,4c-0.3,0.2-0.3,0.4-0.1,0.6l6.7,3.8c0.3,0.1,0.7,0.1,1,0l7-4
				c0.3-0.2,0.3-0.4,0.1-0.6l-6.7-3.8C119.4,257.1,118.9,257.1,118.6,257.3z M128.8,251.4l-7,4c-0.3,0.2-0.3,0.4-0.1,0.6l6.7,3.8
				c0.3,0.1,0.7,0.1,1,0l7-4c0.3-0.2,0.3-0.4,0.1-0.6l-6.7-3.8C129.5,251.3,129.1,251.3,128.8,251.4z M115.8,289.7l7-4
				c0.3-0.2,0.3-0.4,0.1-0.6l-6.7-3.8c-0.3-0.1-0.7-0.1-1,0l-7,4c-0.3,0.2-0.3,0.4-0.1,0.6l6.7,3.8
				C115.1,289.9,115.5,289.9,115.8,289.7z M62.2,287.2l-6.7-3.8c-0.3-0.1-0.7-0.1-1,0l-7,4c-0.3,0.2-0.3,0.4-0.1,0.6l6.7,3.8
				c0.3,0.1,0.7,0.1,1,0l7-4C62.4,287.6,62.5,287.3,62.2,287.2z M75.4,290.5l-6.7-3.8c-0.3-0.1-0.7-0.1-1,0L57,292.9
				c-0.3,0.2-0.3,0.4-0.1,0.6l6.7,3.8c0.3,0.1,0.7,0.1,1,0l10.7-6.2C75.7,290.9,75.7,290.6,75.4,290.5z M52.3,279.6l-6.7-3.8
				c-0.3-0.1-0.7-0.1-1,0l-8.6,4.9c-0.3,0.2-0.3,0.4-0.1,0.6l6.7,3.8c0.3,0.1,0.7,0.1,1,0l8.6-4.9C52.5,280,52.5,279.7,52.3,279.6z
				 M58.8,275.8c0.3,0.1,0.7,0.1,1,0l7-4c0.3-0.2,0.3-0.4,0.1-0.6l-6.7-3.8c-0.3-0.1-0.7-0.1-1,0l-7,4c-0.3,0.2-0.3,0.4-0.1,0.6
				L58.8,275.8z M87.6,294.4l-6.7-3.8c-0.3-0.1-0.7-0.1-1,0l-13.4,7.7c-0.3,0.2-0.3,0.4-0.1,0.6l6.7,3.8c0.3,0.1,0.7,0.1,1,0
				l13.4-7.7C87.9,294.8,87.9,294.6,87.6,294.4L87.6,294.4z M92.3,302.7l-6.7-3.8c-0.3-0.1-0.7-0.1-1,0l-8.6,4.9
				c-0.3,0.2-0.3,0.4-0.1,0.6l6.7,3.8c0.3,0.1,0.7,0.1,1,0l8.6-4.9C92.6,303.1,92.6,302.8,92.3,302.7z M134.4,232.1
				c0.3,0.1,0.7,0.1,1,0l7-4c0.3-0.2,0.3-0.4,0.1-0.6l-6.7-3.8c-0.3-0.1-0.7-0.1-1,0l-7,4c-0.3,0.2-0.3,0.4-0.1,0.6L134.4,232.1z
				 M114.1,243.9c0.3,0.1,0.7,0.1,1,0l7-4c0.3-0.2,0.3-0.4,0.1-0.6l-6.7-3.8c-0.3-0.1-0.7-0.1-1,0l-7,4c-0.3,0.2-0.3,0.4-0.1,0.6
				L114.1,243.9z M69,269.9c0.3,0.1,0.7,0.1,1,0l7-4c0.3-0.2,0.3-0.4,0.1-0.6l-6.7-3.8c-0.3-0.1-0.7-0.1-1,0l-7,4
				c-0.3,0.2-0.3,0.4-0.1,0.6L69,269.9z M124.3,238c0.3,0.1,0.7,0.1,1,0l7-4c0.3-0.2,0.3-0.4,0.1-0.6l-6.7-3.8c-0.3-0.1-0.7-0.1-1,0
				l-7,4c-0.3,0.2-0.3,0.4-0.1,0.6L124.3,238z M103.9,249.7c0.3,0.1,0.7,0.1,1,0l7-4c0.3-0.2,0.3-0.4,0.1-0.6l-6.7-3.8
				c-0.3-0.1-0.7-0.1-1,0l-7,4c-0.3,0.2-0.3,0.4-0.1,0.6L103.9,249.7L103.9,249.7z M97.3,303.1c-0.3-0.1-0.7-0.1-1,0l-10.7,6.2
				c-0.3,0.2-0.3,0.4-0.1,0.6l6.7,3.8c0.3,0.1,0.7,0.1,1,0l10.7-6.2c0.3-0.2,0.3-0.4,0.1-0.6L97.3,303.1z M89.3,258.2
				c0.3,0.1,0.7,0.1,1,0l7-4c0.3-0.2,0.3-0.4,0.1-0.6l-6.7-3.8c-0.3-0.1-0.7-0.1-1,0l-7,4c-0.3,0.2-0.3,0.4-0.1,0.6L89.3,258.2z
				 M79.2,264c0.3,0.1,0.7,0.1,1,0l7-4c0.3-0.2,0.3-0.4,0.1-0.6l-6.7-3.8c-0.3-0.1-0.7-0.1-1,0l-7,4c-0.3,0.2-0.3,0.4-0.1,0.6
				L79.2,264z M285.7,194.3c-0.3-0.1-0.7-0.1-1,0l-17.1,9.9c-0.3,0.2-0.3,0.4-0.1,0.6l6.7,3.8c0.3,0.1,0.7,0.1,1,0l17.1-9.9
				c0.3-0.2,0.3-0.4,0.1-0.6L285.7,194.3z M263.2,207.3c-0.3-0.1-0.7-0.1-1,0l-7,4c-0.3,0.2-0.3,0.4-0.1,0.6l6.7,3.8
				c0.3,0.1,0.7,0.1,1,0l7-4c0.3-0.2,0.3-0.4,0.1-0.6L263.2,207.3L263.2,207.3z M126,283.8l7-4c0.3-0.2,0.3-0.4,0.1-0.6l-6.7-3.8
				c-0.3-0.1-0.7-0.1-1,0l-7,4c-0.3,0.2-0.3,0.4-0.1,0.6l6.7,3.8C125.2,284,125.7,284,126,283.8z M242.9,219.1c-0.3-0.1-0.7-0.1-1,0
				l-7,4c-0.3,0.2-0.3,0.4-0.1,0.6l6.7,3.8c0.3,0.1,0.7,0.1,1,0l7-4c0.3-0.2,0.3-0.4,0.1-0.6L242.9,219.1z M295.9,188.5
				c-0.3-0.1-0.7-0.1-1,0l-7,4c-0.3,0.2-0.3,0.4-0.1,0.6l6.7,3.8c0.3,0.1,0.7,0.1,1,0l7-4c0.3-0.2,0.3-0.4,0.1-0.6L295.9,188.5z
				 M312.7,186.4l-16.2-9.3c-0.3-0.1-0.7-0.1-1,0l-7,4c-0.3,0.2-0.3,0.4-0.1,0.6l16.2,9.3c0.3,0.1,0.7,0.1,1,0l7-4
				C312.9,186.8,312.9,186.6,312.7,186.4L312.7,186.4z M204.9,241c-0.3-0.1-0.7-0.1-1,0l-8.6,4.9c-0.3,0.2-0.3,0.4-0.1,0.6l6.7,3.8
				c0.3,0.1,0.7,0.1,1,0l8.6-4.9c0.3-0.2,0.3-0.4,0.1-0.6L204.9,241L204.9,241z M230.6,226.2c-0.3-0.1-0.7-0.1-1,0l-10.7,6.2
				c-0.3,0.2-0.3,0.4-0.1,0.6l6.7,3.8c0.3,0.1,0.7,0.1,1,0l10.7-6.2c0.3-0.2,0.3-0.4,0.1-0.6L230.6,226.2z M181.3,254.6
				c-0.3-0.1-0.7-0.1-1,0L123,287.7c-0.3,0.2-0.3,0.4-0.1,0.6l6.7,3.8c0.3,0.1,0.7,0.1,1,0l57.3-33.1c0.3-0.2,0.3-0.4,0.1-0.6
				L181.3,254.6L181.3,254.6z M120.8,289.5c-0.3-0.1-0.7-0.1-1,0l-8.6,4.9c-0.3,0.2-0.3,0.4-0.1,0.6l6.7,3.8c0.3,0.1,0.7,0.1,1,0
				l8.6-4.9c0.3-0.2,0.3-0.4,0.1-0.6L120.8,289.5z M193.1,247.8c-0.3-0.1-0.7-0.1-1,0l-8.6,4.9c-0.3,0.2-0.3,0.4-0.1,0.6l6.7,3.8
				c0.3,0.1,0.7,0.1,1,0l8.6-4.9c0.3-0.2,0.3-0.4,0.1-0.6L193.1,247.8z M109.1,296.3c-0.3-0.1-0.7-0.1-1,0l-8.6,4.9
				c-0.3,0.2-0.3,0.4-0.1,0.6l6.7,3.8c0.3,0.1,0.7,0.1,1,0l8.6-4.9c0.3-0.2,0.3-0.4,0.1-0.6C115.7,300.2,109.1,296.3,109.1,296.3z
				 M216.6,234.2c-0.3-0.1-0.7-0.1-1,0l-8.6,4.9c-0.3,0.2-0.3,0.4-0.1,0.6l6.7,3.8c0.3,0.1,0.7,0.1,1,0l8.6-4.9
				c0.3-0.2,0.3-0.4,0.1-0.6L216.6,234.2z M253,213.2c-0.3-0.1-0.7-0.1-1,0l-7,4c-0.3,0.2-0.3,0.4-0.1,0.6l6.7,3.8
				c0.3,0.1,0.7,0.1,1,0l7-4c0.3-0.2,0.3-0.4,0.1-0.6L253,213.2z M275.8,197.3l7-4c0.3-0.2,0.3-0.4,0.1-0.6l-6.7-3.8
				c-0.3-0.1-0.7-0.1-1,0l-7,4c-0.3,0.2-0.3,0.4-0.1,0.6l6.7,3.8C275.1,197.5,275.5,197.5,275.8,197.3z M234.3,199.3l7-4
				c0.3-0.2,0.3-0.4,0.1-0.6l-6.7-3.8c-0.3-0.1-0.7-0.1-1,0l-7,4c-0.3,0.2-0.3,0.4-0.1,0.6l6.7,3.8
				C233.6,199.5,234,199.5,234.3,199.3z M207.3,236.9l20.3-11.7c0.3-0.2,0.3-0.4,0.1-0.6l-6.7-3.8c-0.3-0.1-0.7-0.1-1,0l-20.3,11.7
				c-0.3,0.2-0.3,0.4-0.1,0.6l6.7,3.8C206.6,237,207,237,207.3,236.9z M264.6,203.2c0.3,0.1,0.7,0.1,1,0l7-4
				c0.3-0.2,0.3-0.4,0.1-0.6l-6.7-3.8c-0.3-0.1-0.7-0.1-1,0l-7,4c-0.3,0.2-0.3,0.4-0.1,0.6L264.6,203.2L264.6,203.2z M256.1,197.7
				l7-4c0.3-0.2,0.3-0.4,0.1-0.6l-6.7-3.8c-0.3-0.1-0.7-0.1-1,0l-7,4c-0.3,0.2-0.3,0.4-0.1,0.6l6.7,3.8
				C255.4,197.9,255.8,197.9,256.1,197.7L256.1,197.7z M197.1,242.7l7-4c0.3-0.2,0.3-0.4,0.1-0.6l-6.7-3.8c-0.3-0.1-0.7-0.1-1,0
				l-7,4c-0.3,0.2-0.3,0.4-0.1,0.6l6.7,3.8C196.4,242.9,196.8,242.9,197.1,242.7z M242.2,216.2c0.3,0.1,0.7,0.1,1,0l7-4
				c0.3-0.2,0.3-0.4,0.1-0.6l-6.7-3.8c-0.3-0.1-0.7-0.1-1,0l-7,4c-0.3,0.2-0.3,0.4-0.1,0.6L242.2,216.2z M146.3,272.1l7-4
				c0.3-0.2,0.3-0.4,0.1-0.6l-6.7-3.8c-0.3-0.1-0.7-0.1-1,0l-7,4c-0.3,0.2-0.3,0.4-0.1,0.6l6.7,3.8
				C145.5,272.3,146,272.2,146.3,272.1z M156.5,266.2l7-4c0.3-0.2,0.3-0.4,0.1-0.6l-6.7-3.8c-0.3-0.1-0.7-0.1-1,0l-7,4
				c-0.3,0.2-0.3,0.4-0.1,0.6l6.7,3.8C155.7,266.4,156.2,266.4,156.5,266.2z M136.1,277.9l7-4c0.3-0.2,0.3-0.4,0.1-0.6l-6.7-3.8
				c-0.3-0.1-0.7-0.1-1,0l-7,4c-0.3,0.2-0.3,0.4-0.1,0.6l6.7,3.8C135.4,278.1,135.8,278.1,136.1,277.9L136.1,277.9z M176.8,254.5
				l7-4c0.3-0.2,0.3-0.4,0.1-0.6l-6.7-3.8c-0.3-0.1-0.7-0.1-1,0l-7,4c-0.3,0.2-0.3,0.4-0.1,0.6l6.7,3.8
				C176,254.6,176.5,254.6,176.8,254.5z M166.6,260.3l7-4c0.3-0.2,0.3-0.4,0.1-0.6l-6.7-3.8c-0.3-0.1-0.7-0.1-1,0l-7,4
				c-0.3,0.2-0.3,0.4-0.1,0.6l6.7,3.8C165.9,260.5,166.3,260.5,166.6,260.3L166.6,260.3z M187,248.6l7-4c0.3-0.2,0.3-0.4,0.1-0.6
				l-6.7-3.8c-0.3-0.1-0.7-0.1-1,0l-7,4c-0.3,0.2-0.3,0.4-0.1,0.6l6.7,3.8C186.2,248.8,186.7,248.8,187,248.6L187,248.6z
				 M191.9,198.9c0.3,0.1,0.7,0.1,1,0l7-4c0.3-0.2,0.3-0.4,0.1-0.6l-6.7-3.8c-0.3-0.1-0.7-0.1-1,0l-7,4c-0.3,0.2-0.3,0.4-0.1,0.6
				L191.9,198.9z M179.5,206.1c0.3,0.1,0.7,0.1,1,0l7-4c0.3-0.2,0.3-0.4,0.1-0.6l-6.7-3.8c-0.3-0.1-0.7-0.1-1,0l-7,4
				c-0.3,0.2-0.3,0.4-0.1,0.6L179.5,206.1L179.5,206.1z M195.5,188.6c-0.3,0.2-0.3,0.4-0.1,0.6l6.7,3.8c0.3,0.1,0.7,0.1,1,0l7-4
				c0.3-0.2,0.3-0.4,0.1-0.6 M159.2,217.8c0.3,0.1,0.7,0.1,1,0l7-4c0.3-0.2,0.3-0.4,0.1-0.6l-6.7-3.8c-0.3-0.1-0.7-0.1-1,0l-7,4
				c-0.3,0.2-0.3,0.4-0.1,0.6L159.2,217.8L159.2,217.8z M169.3,212c0.3,0.1,0.7,0.1,1,0l7-4c0.3-0.2,0.3-0.4,0.1-0.6l-6.7-3.8
				c-0.3-0.1-0.7-0.1-1,0l-7,4c-0.3,0.2-0.3,0.4-0.1,0.6L169.3,212z M286,191.4l7-4c0.3-0.2,0.3-0.4,0.1-0.6l-6.7-3.8
				c-0.3-0.1-0.7-0.1-1,0l-7,4c-0.3,0.2-0.3,0.4-0.1,0.6l6.7,3.8C285.2,191.6,285.7,191.6,286,191.4z M149,223.7
				c0.3,0.1,0.7,0.1,1,0l7-4c0.3-0.2,0.3-0.4,0.1-0.6l-6.7-3.8c-0.3-0.1-0.7-0.1-1,0l-7,4c-0.3,0.2-0.3,0.4-0.1,0.6L149,223.7z"/>
		</g>
	</g>
</g>
<g id="Window_1">
	<g id="Box">
		<g id="Box-2">
			<path class="st6" d="M200.4,201.9c-0.1,0.1-0.2,0.1-0.4,0.2l0,0h-0.1c-0.1,0.1-0.3,0.1-0.4,0.1c-0.6,0-0.7-0.7-0.7-1.2"/>
			<path class="st3" d="M200,201.1c-0.1,0-0.1,0.1-0.2,0.1l0,0c0,0,0,0-0.1,0h-0.1c0-0.1-0.1-0.2-0.1-0.4"/>
		</g>
	</g>
</g>
<g id="Device_1">
	<path id="Shadow" class="st7" d="M241.8,304.5c2.2-1.3,2.2-3.4,0-4.7l-130.9-75.6c-2.2-1.3-5.9-1.3-8.1,0L29,266.8
		c-3,1.8-3,4.6,0,6.4l129.9,75c2,1.1,5.2,1.1,7.2,0"/>
	<g id="Device">
		<g id="Mobile">
			<g>
				<path class="st8" d="M112.4,218.4l123.3,71.2c3.7,2.1,3.6,4.5,3.6,6.7s-1,5.1-3.6,6.7l-68.1,39.3c-2.7,1.5-7,1.5-9.6,0
					L34.8,271.1c-2.7-1.5-3.3-4.1-3.3-6.3s0.6-5.6,3.3-7.1l68.1-39.3C105.5,216.9,108.7,216.3,112.4,218.4L112.4,218.4z"/>
				<path class="st9" d="M108.9,221.4l-70,40.4l123.9,71.5v10.1c-1.7,0-3.5-0.4-4.8-1.1L34.8,271.1c-2.7-1.5-3.3-4.1-3.3-6.3
					s0.6-5.6,3.3-7.1l68.1-39.3c1.7-1,3.7-1.7,6.1-1.3v0.3L108.9,221.4L108.9,221.4z"/>
			</g>
			<path class="st10" d="M234.5,290.1l-123-71.1c-2.1-1.2-5.6-1.2-7.7,0l-66.4,38.4c-2.9,1.6-2.9,4.4,0,6L159.5,334
				c1.9,1.1,4.9,1.1,6.8,0l68.3-39.4C236.6,293.4,236.6,291.4,234.5,290.1L234.5,290.1z"/>
			<g>
				<g>
					<path class="st10" d="M77.8,288.9c1.1,0.6,1.9,2,1.9,3.1c0,0.5-0.2,0.9-0.5,1.1c-0.2,0.1-1.1,0.6-1.3,0.8
						c-0.3,0.2-0.8,0.1-1.4-0.2L64.9,287c-1.1-0.6-1.9-2-1.9-3.1c0-0.5,0.2-0.9,0.5-1.1c0.2-0.1,1.1-0.7,1.4-0.8
						c0.3-0.2,0.8-0.2,1.4,0.2C66.2,282.2,77.8,288.9,77.8,288.9z"/>
					<path class="st8" d="M76.5,289.6l-11.6-6.7c-1.1-0.6-1.9-0.2-1.9,1s0.8,2.5,1.9,3.1l11.6,6.7c1.1,0.6,1.9,0.2,1.9-1
						S77.6,290.2,76.5,289.6L76.5,289.6z"/>
				</g>
				<g>
					<path class="st10" d="M57.5,277.1c1,0.6,1.9,2,1.9,3.1c0,0.5-0.2,0.9-0.5,1.1c-0.2,0.1-1.1,0.6-1.3,0.8
						c-0.3,0.2-0.8,0.1-1.4-0.2l-11.6-6.7c-1-0.6-1.9-2-1.9-3.1c0-0.5,0.2-0.9,0.5-1.1c0.2-0.1,1.1-0.7,1.4-0.8
						c0.3-0.2,0.8-0.2,1.4,0.1L57.5,277.1L57.5,277.1z"/>
					<path class="st8" d="M56.2,277.9l-11.6-6.7c-1-0.6-1.9-0.2-1.9,1s0.8,2.5,1.9,3.1l11.6,6.7c1,0.6,1.9,0.2,1.9-1
						C58.1,279.9,57.2,278.5,56.2,277.9z"/>
				</g>
			</g>
			<g>
				<path d="M114.6,223.9L228,289.4c2,1.2,2,3.1,0,4.2l-61.8,35.6c-2,1.2-5.3,1.2-7.3,0l-114.3-66c-1.6-0.9-2-2.4-0.9-3.5
					c0.1-0.1,0.2-0.2,0.2-0.3c0.2-0.2,0.4-0.3,0.7-0.5l17.4-10c0,0,0.5-0.3,1.1-0.6c0.6-0.4,1.6-0.4,2.3,0s1.7,0.3,2.3,0l20.2-11.7
					c0.7-0.4,0.7-1,0.1-1.4c-0.6-0.3-0.6-0.9-0.1-1.2l0.1-0.1l17-9.8l0.4-0.2C107.9,222.4,112,222.4,114.6,223.9L114.6,223.9z"/>
				<path class="st9" d="M65.3,250.9c-0.6-0.4-1.6-0.4-2.3,0c-0.6,0.4-1.1,0.6-1.1,0.6l-17.4,10c-0.2,0.1-0.5,0.3-0.7,0.5
					c-0.1,0.1-0.2,0.2-0.2,0.3c0,0,0,0.1-0.1,0.1c0.2,0.3,0.6,0.6,1,0.8l114.3,66c2,1.2,5.3,1.2,7.3,0l61.8-35.6
					c0.4-0.2,0.7-0.5,1-0.8c-0.2-0.3-0.6-0.6-1-0.8l-113.4-65.5c-2.5-1.5-6.7-1.5-9.2,0l-0.4,0.2l-16.5,9.6c0,0,0,2,0,2.2
					c0,0.3-0.2,0.5-0.5,0.7l-20.2,11.7C67,251.3,66,251.3,65.3,250.9L65.3,250.9z"/>
				<path class="st6" d="M96.7,251.6L96.7,251.6l-2.5-1.4c-0.9-0.5-2.2-0.6-3-0.1l-2.6,1.5c-0.8,0.4-0.7,1.2,0.2,1.7l2.5,1.4l0,0
					c-0.6,0.4-0.5,0.9,0.2,1.3l5,2.9c0.7,0.4,1.7,0.4,2.3,0.1l5.3-3.1c0.6-0.3,0.5-0.9-0.2-1.3l-5-2.9
					C98.3,251.3,97.3,251.3,96.7,251.6L96.7,251.6z M89.5,252.9c-0.5-0.3-0.6-0.7-0.1-1l2.6-1.5c0.4-0.2,1.2-0.2,1.7,0.1l2.5,1.4
					l-4.1,2.4L89.5,252.9L89.5,252.9z"/>
				<g>
					<path class="st6" d="M108.9,278.3c0.3,0.2,0.3,0.3,0,0.5l-0.4,0.2c-0.3,0.2-0.6,0.2-0.8,0l-11.3-6.5l-0.8,3.5
						c-0.1,0.2-0.3,0.3-0.7,0.3h-0.5c-0.2,0-0.3-0.1-0.4-0.1c-0.1-0.1-0.1-0.2-0.1-0.3l0.9-4.1c0-0.1,0.1-0.2,0.1-0.2
						s0.1-0.1,0.2-0.1l0.4-0.2c0.3-0.2,0.6-0.2,0.8,0L108.9,278.3L108.9,278.3z"/>
					<path class="st6" d="M102.5,271.5c-0.4-0.2-0.8-0.6-1.1-0.9s-0.5-0.8-0.5-1.2c-0.1-0.4,0.1-0.8,0.3-1.3
						c0.3-0.4,0.8-0.9,1.5-1.3s1.4-0.7,2.2-0.9s1.4-0.2,2.1-0.2s1.3,0.1,1.9,0.3s1.2,0.4,1.7,0.7c0.8,0.5,1.3,1,1.6,1.5
						c0.3,0.5,0.4,1.2,0.3,2l0.1,5.2l6.3-3.7c0.3-0.2,0.6-0.2,0.9,0l0.3,0.2c0.3,0.2,0.3,0.3,0,0.5l-7.8,4.5c-0.3,0.2-0.6,0.2-0.8,0
						l-0.3-0.2c-0.1-0.1-0.2-0.2-0.3-0.3c-0.1-0.1-0.1-0.3-0.1-0.5v-5.7c0-0.4,0-0.7,0-1s-0.1-0.5-0.2-0.8c-0.1-0.2-0.3-0.4-0.5-0.6
						s-0.4-0.3-0.7-0.5c-0.8-0.5-1.8-0.7-2.7-0.7s-1.9,0.3-2.8,0.8s-1.3,1-1.3,1.6s0.4,1.1,1.1,1.7c0.1,0.1,0.2,0.2,0.2,0.3
						c0,0.1-0.1,0.2-0.2,0.2l-0.4,0.2C103,271.7,102.7,271.7,102.5,271.5L102.5,271.5z"/>
					<path class="st6" d="M117.5,265.7c0.1,0.1,0.2,0.2,0.2,0.2c0,0.1-0.1,0.2-0.2,0.2l-0.9,0.5c-0.3,0.2-0.6,0.2-0.8,0l-0.9-0.5
						c-0.1-0.1-0.2-0.2-0.2-0.2c0-0.1,0.1-0.2,0.2-0.2l0.9-0.5c0.1-0.1,0.3-0.1,0.4-0.1s0.3,0,0.4,0.1L117.5,265.7L117.5,265.7z
						 M124.2,269.5c0.1,0.1,0.2,0.2,0.2,0.2c0,0.1-0.1,0.2-0.2,0.2l-0.9,0.5c-0.3,0.2-0.6,0.2-0.8,0l-0.9-0.5
						c-0.1-0.1-0.2-0.2-0.2-0.2c0-0.1,0.1-0.2,0.2-0.2l0.9-0.5c0.1-0.1,0.3-0.1,0.4-0.1s0.3,0,0.4,0.1L124.2,269.5L124.2,269.5z"/>
					<path class="st6" d="M121.7,256.1c0.3-0.2,0.6-0.2,0.9,0l0.3,0.2c0.1,0,0.1,0.1,0.2,0.1c0,0,0,0.1,0.1,0.1l0.7,5l0.4-0.2
						c0.6-0.4,1.3-0.7,2-0.9s1.4-0.4,2.1-0.4s1.4,0,2.1,0.2c0.7,0.1,1.3,0.4,2,0.8c0.6,0.4,1.1,0.8,1.3,1.2c0.3,0.4,0.3,0.8,0.3,1.3
						c-0.1,0.4-0.3,0.9-0.7,1.3s-0.9,0.8-1.5,1.2c-0.7,0.4-1.4,0.7-2.2,0.9c-0.7,0.2-1.5,0.4-2.1,0.4c-0.7,0-1.3,0-1.9-0.1
						s-1.1-0.3-1.5-0.5c-0.1-0.1-0.2-0.1-0.2-0.2s0.1-0.1,0.2-0.2l0.3-0.1c0.1-0.1,0.2-0.1,0.4-0.1c0.2,0,0.3,0,0.6,0.1
						c0.5,0.2,1,0.3,1.5,0.3s1,0,1.4-0.1c0.5-0.1,0.9-0.2,1.3-0.4c0.4-0.2,0.8-0.4,1.1-0.5c0.5-0.3,0.9-0.6,1.2-0.9s0.5-0.6,0.5-0.9
						s0-0.6-0.2-0.9s-0.5-0.6-1-0.9c-0.9-0.5-1.9-0.8-2.8-0.7s-1.9,0.4-2.9,1l-1.7,1c-0.3,0.2-0.6,0.2-0.8,0l-0.3-0.2
						c-0.1-0.1-0.2-0.1-0.2-0.2s-0.1-0.1-0.1-0.2l-0.7-4.9l-5.7,3.3c-0.3,0.2-0.6,0.2-0.8,0l-0.3-0.2c-0.3-0.2-0.3-0.3,0-0.5
						L121.7,256.1L121.7,256.1z"/>
					<path class="st6" d="M142.1,259.1c0.3,0.2,0.3,0.3,0,0.5l-0.4,0.2c-0.3,0.2-0.6,0.2-0.8,0l-11.3-6.5l-0.8,3.5
						c-0.1,0.2-0.3,0.3-0.7,0.3h-0.5c-0.2,0-0.3-0.1-0.4-0.1c-0.1-0.1-0.1-0.1-0.1-0.3l0.9-4.1c0-0.1,0.1-0.2,0.1-0.2
						s0.1-0.1,0.2-0.1l0.4-0.2c0.3-0.2,0.6-0.2,0.8,0L142.1,259.1L142.1,259.1z"/>
				</g>
				<path class="st10" d="M112.7,292l48.6-28c1.3-0.8,3.4-0.8,4.7,0l13,7.5c1.3,0.8,1.3,2,0,2.7l-48.6,28c-1.3,0.8-3.4,0.8-4.7,0
					l-13-7.5C111.3,294,111.3,292.7,112.7,292L112.7,292z"/>
				<g>
					<path class="st6" d="M128.9,296.9c-0.4,0.1-0.7,0.2-1.1,0.3c-0.3,0-0.6,0-0.7,0c-0.1-0.1-0.2-0.2-0.2-0.3c-0.1-0.2,0-0.3,0-0.3
						s0.2,0,0.4-0.1c0.3,0,0.6-0.1,0.8-0.2c0.2-0.1,0.5-0.2,0.7-0.3c0.4-0.2,0.6-0.5,0.6-0.8c0.1-0.3-0.2-0.6-0.7-0.9
						s-1-0.4-1.4-0.4s-0.9,0.2-1.4,0.5l-0.4,0.2c-0.1,0-0.2,0.1-0.3,0.1c-0.1,0-0.2-0.1-0.4-0.1l-0.2-0.1c-0.1-0.1-0.2-0.1-0.2-0.2
						s0-0.1,0.1-0.2l0.4-0.2c0.3-0.2,0.5-0.4,0.5-0.5c0.1-0.2,0-0.4-0.1-0.5c-0.1-0.2-0.3-0.3-0.5-0.4c-0.3-0.2-0.6-0.3-1-0.3
						s-0.8,0.1-1.2,0.3c-0.2,0.1-0.4,0.2-0.5,0.4s-0.2,0.2-0.2,0.4c-0.1,0.1-0.1,0.2-0.1,0.2c-0.1,0-0.2,0-0.5,0s-0.5-0.1-0.6-0.1
						c-0.2-0.1-0.2-0.3,0.1-0.6c0.3-0.3,0.6-0.6,1-0.8c0.7-0.4,1.4-0.6,2.1-0.6s1.4,0.1,2,0.5c0.4,0.2,0.6,0.5,0.7,0.8
						s0,0.5-0.2,0.8l0,0c0.5-0.2,1.1-0.2,1.7-0.2c0.6,0.1,1.2,0.2,1.8,0.6c0.5,0.3,0.8,0.6,1,0.9c0.1,0.3,0.1,0.6-0.1,1
						c-0.2,0.3-0.5,0.6-0.9,0.9C129.6,296.5,129.3,296.7,128.9,296.9L128.9,296.9z"/>
					<path class="st6" d="M135.3,292.4c-0.9-0.1-1.8-0.4-2.7-0.9c-1.1-0.6-1.8-1.3-2.1-2s-0.4-1.4-0.2-1.9c0.2-0.6,0.4-0.9,0.7-1.1
						c0.1-0.1,0.3-0.1,0.6,0s0.4,0.1,0.6,0.2c0.1,0,0.1,0.1,0.1,0.1c-0.4,0.5-0.6,1.1-0.5,1.6s0.3,1,0.8,1.5
						c0.1-0.3,0.4-0.6,0.8-0.9c0.3-0.2,0.7-0.3,1.2-0.4s1,0,1.5,0.1s1,0.3,1.5,0.6c0.5,0.3,0.8,0.6,1,0.9s0.2,0.6,0,0.9
						s-0.4,0.6-0.8,0.8C137,292.3,136.2,292.5,135.3,292.4L135.3,292.4z M137.1,290.7c0-0.3-0.3-0.5-0.7-0.8s-0.9-0.4-1.3-0.4
						c-0.5,0-0.8,0.1-1.2,0.3c-0.3,0.2-0.5,0.4-0.7,0.7c0.3,0.2,0.5,0.3,0.6,0.4c0.7,0.4,1.2,0.6,1.7,0.6s0.9,0,1.2-0.2
						C137,291.2,137.1,291,137.1,290.7L137.1,290.7z"/>
					<path class="st6" d="M145.3,287.1l-1.6-0.9l-2.7,1.5c-0.1,0-0.2,0-0.5,0s-0.4-0.1-0.6-0.2c0,0-0.1,0-0.1-0.1l-2.3-4.6
						c0-0.1,0.1-0.2,0.3-0.4l0.3-0.2c0.3-0.2,0.5-0.2,0.7-0.1l4.9,2.8l0.5-0.3c0.1,0,0.2-0.1,0.3-0.1s0.2,0.1,0.4,0.1l0.1,0.1
						c0.1,0.1,0.2,0.1,0.2,0.2s0,0.1-0.1,0.2l-0.5,0.3l1.6,0.9c0.2,0.1,0.1,0.2-0.1,0.4L146,287
						C145.7,287.2,145.5,287.2,145.3,287.1L145.3,287.1z M142.8,285.7l-1.9-1.1c-0.5-0.3-0.9-0.6-1.3-0.9h-0.1l1.5,3L142.8,285.7
						L142.8,285.7z"/>
					<path class="st6" d="M150.2,283.8c-0.9-0.1-1.8-0.4-2.7-0.9c-1.1-0.6-1.8-1.3-2.1-2s-0.4-1.4-0.2-1.9c0.2-0.6,0.4-0.9,0.7-1.1
						c0.1-0.1,0.3-0.1,0.6,0c0.2,0.1,0.4,0.1,0.6,0.2c0.1,0,0.1,0.1,0.1,0.1c-0.4,0.5-0.6,1.1-0.5,1.6s0.3,1,0.8,1.5
						c0.1-0.3,0.4-0.6,0.8-0.9c0.3-0.2,0.7-0.3,1.2-0.4s1,0,1.5,0.1s1,0.3,1.5,0.6c0.5,0.3,0.8,0.6,1,0.9s0.2,0.6,0,0.9
						s-0.4,0.6-0.8,0.8C151.9,283.7,151.1,283.9,150.2,283.8L150.2,283.8z M152,282.1c0-0.3-0.3-0.5-0.7-0.8s-0.9-0.4-1.4-0.4
						c-0.4,0-0.8,0.1-1.2,0.3c-0.3,0.2-0.5,0.4-0.7,0.7c0.3,0.2,0.5,0.3,0.6,0.4c0.7,0.4,1.2,0.6,1.7,0.6s0.9,0,1.2-0.2
						C151.9,282.6,152,282.4,152,282.1z"/>
					<path class="st6" d="M157.4,279.4c-1.1-0.2-2.3-0.6-3.6-1.4c-1.4-0.8-2.2-1.5-2.4-2.1c-0.3-0.6-0.1-1.1,0.6-1.5
						c0.7-0.4,1.6-0.5,2.6-0.4c1.1,0.2,2.3,0.6,3.6,1.4c1.4,0.8,2.2,1.5,2.4,2.1c0.3,0.6,0.1,1.1-0.6,1.5
						C159.3,279.4,158.4,279.6,157.4,279.4L157.4,279.4z M159.1,277.6c-0.3-0.4-1-0.9-2.1-1.5s-2-1-2.6-1.2s-1.1-0.1-1.5,0
						s-0.3,0.5-0.1,0.8s1,0.9,2.1,1.5s2,1,2.6,1.2s1.1,0.1,1.4,0C159.4,278.3,159.4,278,159.1,277.6L159.1,277.6z"/>
					<path class="st6" d="M164.8,275.1c-1.1-0.2-2.3-0.6-3.6-1.4c-1.4-0.8-2.2-1.5-2.4-2.1c-0.3-0.6-0.1-1.1,0.6-1.5
						c0.7-0.4,1.6-0.5,2.6-0.4c1.1,0.2,2.3,0.6,3.6,1.4c1.4,0.8,2.2,1.5,2.4,2.1c0.3,0.6,0.1,1.1-0.6,1.5S165.9,275.3,164.8,275.1
						L164.8,275.1z M166.5,273.3c-0.3-0.4-1-0.9-2.1-1.5s-2-1-2.6-1.2s-1.1-0.1-1.5,0s-0.3,0.5-0.1,0.8c0.3,0.4,1,0.9,2.1,1.5
						s2,1,2.6,1.2s1.1,0.1,1.4,0C166.8,274,166.8,273.7,166.5,273.3z"/>
				</g>
				<g>
					<path class="st9" d="M66.9,244.3l9.3-5.4c0.6-0.3,1.4-0.3,1.9,0s0.5,0.8-0.1,1.1l-9.3,5.4c-0.5,0.3-1.4,0.3-1.9,0
						C66.4,245.1,66.4,244.6,66.9,244.3L66.9,244.3z"/>
					<path class="st9" d="M80.6,236c0.6-0.4,1.6-0.4,2.3,0c0.6,0.4,0.6,0.9,0,1.3s-1.6,0.4-2.3,0C80,236.9,80,236.4,80.6,236z"/>
				</g>
			</g>
		</g>
		<g class="st11">
			<polygon class="st12" points="170.6,256.3 153.2,246.2 137.8,317.1 155.2,327.1 			"/>
			<path class="st12" d="M122,307.9l15.4-70.8l-22.8-13.2c-2.5-1.5-6.7-1.5-9.2,0l-0.4,0.2L94.8,230l-12,55.2L122,307.9z"/>
		</g>
		<g>
			<g>
				<path class="st6" d="M63.5,259.7C63.5,259.7,63.4,259.7,63.5,259.7l-0.4-0.2l-0.8,0.5h-0.1l-0.1-0.1c0,0,0,0-0.1,0l0,0l-0.3-1.2
					l0,0l0,0l0.1-0.1h0.1H62l1.2,0.7l0.2-0.1h0.1h0.1h0.1c0,0,0.1,0,0.1,0.1s0,0,0,0.1l-0.2,0.1l0.3,0.2c0,0,0.1,0,0.1,0.1
					s0,0,0,0.1l-0.1,0.1C63.6,259.7,63.5,259.7,63.5,259.7L63.5,259.7z M62.8,259.2l-0.9-0.5l0.3,0.9L62.8,259.2z"/>
				<path class="st6" d="M64.2,259c-0.3,0-0.7-0.1-1-0.3s-0.5-0.4-0.5-0.6s0.1-0.4,0.4-0.6c0.1-0.1,0.2-0.1,0.4-0.2s0.3-0.1,0.4-0.1
					c0,0,0,0,0.1,0l0,0l0.1,0.1l0,0l0,0c-0.2,0-0.4,0.1-0.5,0.2c-0.2,0.1-0.3,0.2-0.3,0.4c0,0.1,0.2,0.3,0.4,0.4
					c0.3,0.2,0.5,0.2,0.8,0.2c0.2,0,0.5,0,0.7-0.1c0.1,0,0.1-0.1,0.2-0.1l0.1-0.1l-0.6-0.3l-0.3,0.2h-0.1h-0.1h-0.1
					c0,0-0.1,0-0.1-0.1s0,0,0.1-0.1l0.6-0.3H65h0.1l0.8,0.5c0,0,0,0,0.1,0l0,0c0,0.2-0.2,0.3-0.5,0.5C64.9,258.9,64.6,259,64.2,259
					L64.2,259z"/>
			</g>
			<g>
				<path class="st6" d="M71.2,254.8c0.3,0.2,0.3,0.4,0,0.6s-0.7,0.2-1,0s-0.3-0.4,0-0.6C70.5,254.7,70.9,254.7,71.2,254.8z"/>
				<path class="st6" d="M69.4,254.4c-0.5,0.3-0.6,0.7-0.4,1c0,0.1,0.2,0.1,0.3,0.1l0,0c0.2,0,0.3-0.1,0.2-0.2
					c-0.1-0.2,0-0.5,0.3-0.7s0.8-0.3,1.3-0.2c0.2,0,0.3,0,0.3-0.1l0,0c0-0.1-0.1-0.1-0.2-0.2C70.6,254,69.9,254.1,69.4,254.4
					L69.4,254.4z"/>
				<path class="st6" d="M68.6,253.9c-0.7,0.4-1,1-0.8,1.5c0,0.1,0.2,0.1,0.3,0.1l0,0c0.2,0,0.3-0.1,0.2-0.2c-0.2-0.4,0-0.9,0.6-1.3
					c0.6-0.3,1.4-0.5,2.2-0.4c0.2,0,0.3,0,0.3-0.1l0,0c0-0.1-0.1-0.1-0.2-0.2C70.4,253.4,69.4,253.5,68.6,253.9L68.6,253.9z"/>
			</g>
			<g>
				<polygon class="st6" points="54.5,265.2 53.8,264.8 54.7,264.3 55.3,264.6 				"/>
				<polygon class="st6" points="55.8,264.4 54.5,263.6 55.3,263.1 56.7,263.9 				"/>
				<polygon class="st6" points="57.1,263.6 55.1,262.5 56,261.9 58,263.1 				"/>
				<polygon class="st6" points="58.5,262.8 55.8,261.3 56.7,260.8 59.4,262.3 				"/>
			</g>
			<g>
				<path class="st6" d="M112.4,229.2c-0.2,0-0.4,0-0.5,0.1l-3.3,1.9c-0.2,0.1-0.2,0.4,0.1,0.5l1.2,0.7c0.2,0.1,0.4,0.1,0.6,0.2
					c0.1,0,0.2,0,0.3,0c0.1,0,0.2,0,0.3-0.1l3.3-1.9c0.2-0.1,0.2-0.4-0.1-0.5l-1.2-0.7C112.9,229.3,112.7,229.2,112.4,229.2
					L112.4,229.2z M110.5,232.5c-0.1,0-0.2,0-0.2-0.1l-1.2-0.7c-0.2-0.1-0.3-0.3-0.1-0.4l3.3-1.9h0.1h0.1c0.1,0,0.2,0,0.2,0.1
					l1.2,0.7c0.2,0.1,0.3,0.3,0.1,0.4l-3.3,1.9C110.6,232.5,110.6,232.5,110.5,232.5z"/>
				<g>
					<path class="st6" d="M109.8,231.1l1.4,0.8l-0.5,0.3c0,0-0.1,0-0.2,0l-1.1-0.6c-0.2-0.1-0.2-0.2-0.1-0.3L109.8,231.1
						L109.8,231.1z"/>
					<polygon class="st6" points="110,230.9 110.6,230.5 112.1,231.4 111.4,231.7 					"/>
					<polygon class="st6" points="110.9,230.4 111.5,230 112.9,230.9 112.3,231.2 					"/>
					<path class="st6" d="M112.5,229.6l1,0.6c0.2,0.1,0.2,0.3-0.1,0.4l-0.2,0.1l-1.4-0.8l0.5-0.3
						C112.3,229.6,112.4,229.6,112.5,229.6z"/>
				</g>
				<path class="st6" d="M113.2,229.3c0.1-0.1,0.4,0,0.6,0.2l0.2,0.1c0.2,0.1,0.4,0.3,0.3,0.4l-0.2,0.1l-1.2-0.7
					C113,229.4,113.1,229.4,113.2,229.3L113.2,229.3z"/>
			</g>
			<polygon class="st6" points="103.9,234.8 106.5,232.6 107.9,234.5 106.1,234 			"/>
		</g>
	</g>
	<g id="Key">
		<path class="st13" d="M202.3,289.7c-6.4-3.7-16.9-3.7-23.3,0c-5.3,3-6.2,7.7-2.8,11.3l-28.9,16.7l3.2,1.9h9l3.6-2l-0.2-1.9
			l3.1-1.7l3.9-0.4l1.6-0.9l0.2-3.5l2.9-1.7l4.3,1l5.6-3.2c6,1.4,13.1,0.8,18-2.1C208.7,299.5,208.7,293.4,202.3,289.7L202.3,289.7z
			 M198.2,295.7c-1.8,1-4.8,1-6.6,0s-1.8-2.8,0-3.8s4.8-1,6.6,0S200.1,294.7,198.2,295.7z"/>
		<g id="Key-2">
			<path class="st3" d="M202.3,287c-6.4-3.7-16.9-3.7-23.3,0c-2.7,1.6-4.4,2.6-4.8,4.6v2.1c0,1.6,0.7,3.1,2,4.5l-28.9,14.6v2.1
				l3.2,1.9h9l3.6-2v-2l2.8-1.6l3.9-0.4l1.6-0.9l0.2-3.5l2.9-1.7l4.3,1l5.6-3.2c6,1.4,13.1,0.8,18-2.1c3.2-1.9,4.8-4.3,4.8-6.8v-2.1
				C206.8,289.4,205.2,288.7,202.3,287L202.3,287z M198.2,293c-1.8,1-4.8,1-6.6,0s-1.8-2.8,0-3.8s4.8-1,6.6,0S200.1,292,198.2,293z"
				/>
			<path class="st14" d="M202.3,287c-6.4-3.7-16.9-3.7-23.3,0c-2.7,1.6-4.4,2.6-4.8,4.6v2.1c0,1.6,0.7,3.1,2,4.5l-28.9,14.6v2.1
				l3.2,1.9h9l3.6-2v-2l2.8-1.6l3.9-0.4l1.6-0.9l0.2-3.5l2.9-1.7l4.3,1l5.6-3.2c6,1.4,13.1,0.8,18-2.1c3.2-1.9,4.8-4.3,4.8-6.8v-2.1
				C206.8,289.4,205.2,288.7,202.3,287L202.3,287z M198.2,293c-1.8,1-4.8,1-6.6,0s-1.8-2.8,0-3.8s4.8-1,6.6,0S200.1,292,198.2,293z"
				/>
			<path class="st3" d="M202.3,284.9c-6.4-3.7-16.9-3.7-23.3,0c-5.3,3-6.2,7.7-2.8,11.3l-28.9,16.7l3.2,1.9h9l3.6-2l-0.2-1.9
				l3.1-1.7l3.9-0.4l1.6-0.9l0.2-3.5l2.9-1.7l4.3,1l5.6-3.2c6,1.4,13.1,0.8,18-2.1C208.7,294.6,208.7,288.6,202.3,284.9L202.3,284.9
				z M198.2,290.9c-1.8,1-4.8,1-6.6,0s-1.8-2.8,0-3.8s4.8-1,6.6,0S200.1,289.9,198.2,290.9z"/>
			<path class="st15" d="M202.3,284.9c-6.4-3.7-16.9-3.7-23.3,0c-5.3,3-6.2,7.7-2.8,11.3l-28.9,16.7l3.2,1.9h9l3.6-2l-0.2-1.9
				l3.1-1.7l3.9-0.4l1.6-0.9l0.2-3.5l2.9-1.7l4.3,1l5.6-3.2c6,1.4,13.1,0.8,18-2.1C208.7,294.6,208.7,288.6,202.3,284.9L202.3,284.9
				z M198.2,290.9c-1.8,1-4.8,1-6.6,0s-1.8-2.8,0-3.8s4.8-1,6.6,0S200.1,289.9,198.2,290.9z"/>
			<path class="st3" d="M190.6,299.2c-4.1,0-7.9-0.9-10.7-2.5c-2.5-1.4-3.9-3.3-3.9-5.1s1.4-3.7,3.9-5.1c2.8-1.6,6.6-2.5,10.7-2.5
				s7.9,0.9,10.7,2.5c2.5,1.4,3.9,3.3,3.9,5.1s-1.4,3.7-3.9,5.1C198.5,298.3,194.7,299.2,190.6,299.2z M190.6,284.6
				c-4,0-7.7,0.9-10.4,2.5c-2.3,1.3-3.6,3-3.6,4.6s1.3,3.3,3.6,4.6c2.7,1.6,6.4,2.5,10.4,2.5s7.7-0.9,10.4-2.5
				c2.3-1.3,3.6-3,3.6-4.6s-1.3-3.3-3.6-4.6C198.3,285.5,194.6,284.6,190.6,284.6z"/>
			<path class="st16" d="M196.5,300.5v2.1c-3.9,0.9-8.3,0.9-12.2-0.1v-2.1C188.2,301.3,192.6,301.4,196.5,300.5z"/>
			<polygon class="st16" points="178.8,303.6 178.8,305.7 174.5,304.7 174.5,302.6 			"/>
			<polygon class="st16" points="171.6,304.3 171.6,306.4 171.4,309.9 171.4,307.8 			"/>
			<polygon class="st16" points="169.9,308.7 169.9,310.8 165.9,311.2 165.9,309.1 			"/>
			<rect x="150.5" y="314.7" class="st16" width="9" height="2.1"/>
			<polygon class="st7" points="147.3,312.8 147.3,314.9 150.5,316.8 150.5,314.7 149.1,313.9 149.1,314.8 148.3,314.3 148.3,313.4 
							"/>
			<polygon class="st3" points="148.3,313.4 149.1,313.9 149.1,314.8 148.3,314.3 			"/>
			<polygon class="st15" points="148.3,313.4 149.1,313.9 149.1,314.8 148.3,314.3 			"/>
			<polygon class="st3" points="148.3,313.4 148.3,314.3 177.9,297.2 177.1,296.8 			"/>
			<polygon class="st7" points="177.1,296.8 177.1,297.7 177.9,297.2 			"/>
		</g>
	</g>
</g>
<g id="Character">
	<g id="Character-2">
		<g id="Bottom">
			<g>
				<path class="st17" d="M401.7,313.4c-1-13.4,0.5-23.6-0.6-44.5l0,0c-0.1-5.4-0.3-11.1-0.6-16.2c-1.2-17.2-3.9-23-4.1-26.3
					c0,0-0.5-26.7-1.6-64.2c-0.5-17.7-5.6-23-9.7-32.4h-48.6c-5.4,23.1-7,73.6-6.8,97.4c0.1,12.1,5,77.2,5.1,78.7
					c0.3,5.3-0.1,7.4-2.2,9.6c-4.4,4.7-10.7,9.1-16.1,13.2c0.8,2.1,7.3,2,10.6,0.4c5.2-2.5,10.3-6.4,12.1-7.7
					c4.5-3.3,10.2-6,10.3-11c0-0.6,0.2-0.8,0.1-0.9c0.1-3,7-46.4,7.5-56.5c0.5-8.7-0.6-23.4-0.6-23.4l5.6-36.8
					c0,0,3.5,21.7,6.9,36.6c2.8,12.1,7.5,32.7,10.7,47.5l0,0c3.1,17.1,7.6,29.3,8.4,37.9c0.2,2,2.5,22.1,3.5,26.7s11,4.7,11.6-3.2
					C403.8,332.9,401.9,315.9,401.7,313.4L401.7,313.4z"/>
				<path class="st18" d="M362.1,192.7l-4.1-26.5c0,0-15.8-1.9-21.6-7.4c0,0,7.3,10.2,18,11.9l4.5,22l-2.4,36.5L362.1,192.7
					L362.1,192.7z"/>
			</g>
			<g>
				<path class="st9" d="M307.1,333.9c-0.3,0-0.7,3,0.8,4.4c1.7,1.5,6.8,4,13.6,3.2c6.8-0.8,10.4-2.9,13.2-5.1
					c2.7-2.2,6.5-5.4,9.6-6c2.8-0.6,5.9-1.9,6.8-2.7c0.9-0.9,0.8-4.8,0.8-4.8L307.1,333.9L307.1,333.9z"/>
				<path class="st8" d="M349.7,307.9c0,0,0.5,0,0.7,0.9c0.2,1.1,0.4,4.2,0.8,6c0.6,2.5,1,7.5,0.6,9.5s-5,3.3-8,4.4
					s-6.5,3.5-9.6,5.9c-3.2,2.6-9.9,5.1-14.3,5.1c-6.7,0-11-1.8-12.4-4.3c-1.6-3-0.3-4.7,7.5-8.2c1.5-0.7,6.6-3.6,8.4-4.7
					c1.9-1.1,3.6-2.4,5.3-3.9c0.8-0.7,1.6-1.5,2.4-2.3c0.7-0.7,1.6-1.6,2-2.5c0.1-0.2,0.2-0.4,0.2-0.6c0.2-0.6,0.4-1.2,0.5-1.8
					c0.1-0.6,0.2-1.6,0.8-2c0.7-0.4,2-0.4,2.8-0.3c1,0.1,2,0.2,3,0.5c1.1,0.3,2.5,0.4,3.1,1.5c0.5,0.8,0.6,1.9,0.6,2.8
					c0,0.5,0,0.9,0,1.4c0,0.2-0.1,0.5,0.2,0.5c0.3-0.1,0.5-0.7,0.7-1c0.2-0.5,0.4-1,0.6-1.5c0.3-0.6,0.6-1.1,1-1.6s0.8-0.9,1.2-1.2
					c0.4-0.3,1-0.5,1.3-0.8C349.4,309.2,349.6,308.3,349.7,307.9L349.7,307.9z"/>
				<path class="st6" d="M313.7,327.9c9.7,0.8,12.7,6.8,13.1,10.5c-2.4,0.8-4.9,1.4-6.9,1.4c-6.7,0-11.3-1.8-12.6-4.3
					C305.6,332.7,306.7,330.5,313.7,327.9L313.7,327.9z"/>
				<g>
					<path class="st19" d="M328.2,328.2c0.1,0,0.2,0,0.3-0.1c0.2-0.2,0.2-0.5,0.1-0.7c-1.3-1.7-5.2-3.9-8.8-3.6
						c-0.3,0-0.5,0.3-0.4,0.5c0,0.3,0.2,0.5,0.5,0.4c3.3-0.3,6.9,1.9,7.9,3.2C328,328.1,328.1,328.2,328.2,328.2L328.2,328.2z"/>
					<path class="st19" d="M332.5,325.8c0.1,0,0.2,0,0.3-0.1c0.2-0.2,0.2-0.5,0.1-0.7c-1.3-1.7-5.2-3.9-8.8-3.6
						c-0.3,0-0.5,0.3-0.4,0.5c0,0.3,0.2,0.5,0.5,0.4c3.3-0.3,6.9,1.9,7.9,3.2C332.2,325.7,332.3,325.8,332.5,325.8L332.5,325.8z"/>
					<path class="st19" d="M336.3,323c0.1,0,0.2,0,0.3-0.1c0.2-0.2,0.2-0.5,0.1-0.7c-1.3-1.7-5.2-3.9-8.8-3.6
						c-0.3,0-0.5,0.3-0.4,0.5c0,0.3,0.2,0.5,0.5,0.4c3.3-0.3,6.9,1.9,7.9,3.2C336.1,323,336.2,323,336.3,323L336.3,323z"/>
					<path class="st19" d="M340.2,320.3c0.1,0,0.2,0,0.3-0.1c0.2-0.2,0.2-0.5,0.1-0.7c-1.8-2.4-6-4-9.6-3.6c-0.3,0-0.5,0.3-0.4,0.5
						c0,0.3,0.2,0.4,0.5,0.4c3.2-0.3,7.1,1.1,8.7,3.2C339.9,320.2,340,320.3,340.2,320.3L340.2,320.3z"/>
				</g>
			</g>
			<g>
				<path class="st9" d="M388.5,345c0.3,4.6,1,7.6,2.6,10.3s4.7,3.5,7.8,2.8c3.1-0.8,7.1-2.9,8-6.9s1.4-6.7,0.7-10.9L388.5,345
					L388.5,345z"/>
				<path class="st8" d="M401.6,311.8c1.3,0.1,1.7,6.3,2.4,12.4c0.8,6.6,2.8,9.3,3.5,14.8c0.8,6.2-0.2,9-2.4,12.7
					c-2.2,3.7-9.8,7.4-13.6,2c-3.1-4.4-3.2-9.2-2.9-15.4c0.3-6.4-0.2-10.8-0.4-15.7c-0.2-4.6-1.3-9.3-0.2-9.8
					c0.1,0.7,0.2,1.5,0.3,2.2c0.1,0.8,0.1,1.7,0.4,2.5c0.1,0.3,0.4,0.7,0.5,0.1c0.1-0.4,0-0.8,0-1.1c-0.2-1.7,0.7-1.9,1.1-2
					c1-0.3,5-0.8,5.9-0.8c1-0.1,4.4-0.2,4.8,0.3c0.3,0.4,0.3,1,0.4,1.8c0.1,0.9,0.3,1.6,0.4,1.3c0.1-0.7-0.1-2.4-0.1-2.8
					s-0.1-1-0.1-1.4C401.6,312.6,401.6,312.2,401.6,311.8L401.6,311.8z"/>
				<path class="st6" d="M407.8,342.5c0.2,3.8-0.7,6.5-2.4,9.4c-2.2,3.7-10.5,7.4-14.2,2.1c-1.9-2.7-2.4-5.8-2.6-9
					C390.8,340.8,404.2,339,407.8,342.5z"/>
				<g>
					<path class="st19" d="M391.3,338.2c0,0,0.1,0,0.2,0c0,0,6-2.5,11.7-1.1c0.3,0,0.5-0.1,0.6-0.4s-0.1-0.5-0.4-0.6
						c-6.1-1.4-12.1,1.1-12.4,1.2c-0.2,0.1-0.3,0.4-0.2,0.6C390.9,338.1,391.1,338.2,391.3,338.2L391.3,338.2z"/>
					<path class="st19" d="M402.9,332.4c0.2,0,0.3-0.1,0.4-0.3c0.1-0.2,0-0.5-0.3-0.6c-5.7-1.9-12.1,1-12.3,1.1
						c-0.2,0.1-0.3,0.4-0.2,0.6s0.4,0.3,0.6,0.2c0,0,6.3-2.9,11.6-1C402.8,332.4,402.9,332.4,402.9,332.4z"/>
					<path class="st19" d="M402.7,328.1c0.2,0,0.3-0.1,0.4-0.3c0.1-0.2,0-0.5-0.3-0.6c-6.3-2.3-12.4,0.9-12.6,1.1
						c-0.2,0.1-0.3,0.4-0.2,0.6c0.1,0.2,0.4,0.3,0.7,0.2c0,0,5.9-3.1,11.8-1C402.6,328.1,402.7,328.1,402.7,328.1L402.7,328.1z"/>
					<path class="st2" d="M402.4,323.8c0.2,0,0.3-0.1,0.4-0.3c0.1-0.2,0-0.5-0.3-0.6c-5.9-2.2-12.4,1-12.7,1.2
						c-0.2,0.1-0.3,0.4-0.2,0.6c0.1,0.2,0.4,0.3,0.7,0.2c0.1,0,6.4-3.2,11.9-1.1C402.3,323.8,402.3,323.8,402.4,323.8L402.4,323.8z"
						/>
				</g>
			</g>
			<path class="st3" d="M386.4,129.9c5.8,10.5,10,19.1,10.6,50.3s0.5,40,0.6,43.7s2.3,10.5,4.2,29c1.9,18.5-0.3,40.6-0.3,40.6
				s-1.3,3-8.4,3.6c-6.5,0.6-9.8-1.9-9.8-1.9s-9-36.1-11.5-47.3s-9.7-47.9-9.7-47.9l-4.3,29.8c0,0,2,10.2,0,26.5s-5.5,32.9-5.5,32.9
				s-4.5,1.7-10,1.6c-5.6-0.1-8.8-2.3-8.8-2.3s-5.6-48.4-5.6-66.8s1.6-64.5,7.4-91.8H386.4L386.4,129.9z"/>
			<path class="st13" d="M386.4,129.9c5.8,10.5,10,19.1,10.6,50.3s0.5,40,0.6,43.7s2.3,10.5,4.2,29c1.9,18.5-0.3,40.6-0.3,40.6
				s-1.3,3-8.4,3.6c-6.5,0.6-9.8-1.9-9.8-1.9s-9-36.1-11.5-47.3s-9.7-47.9-9.7-47.9l-4.3,29.8c0,0,2,10.2,0,26.5s-5.5,32.9-5.5,32.9
				s-4.5,1.7-10,1.6c-5.6-0.1-8.8-2.3-8.8-2.3s-5.6-48.4-5.6-66.8s1.6-64.5,7.4-91.8H386.4L386.4,129.9z"/>
			<path class="st14" d="M337.1,156.6c2.8,7.6,12.9,12.9,17.3,14l5.2,29.1l-1.8,30.2l4.3-29.8l-5.8-35.4
				C356.3,164.7,344,163.8,337.1,156.6L337.1,156.6z M379.3,152.9c0.7,3,1.4,6,2.1,9s1.4,6,2.1,9.1c0.1-3.1-0.2-6.2-0.6-9.3
				s-1-6.1-1.7-9.2c-0.7-3-1.6-6-2.7-9c-1.1-2.9-2.3-5.8-4-8.5c0.9,3,1.8,5.9,2.5,8.9C377.8,146.9,378.6,149.9,379.3,152.9
				L379.3,152.9z M384.5,147.2c1,1.8,2,3.6,2.9,5.5l2.8,5.6c-0.2-2.1-0.7-4.2-1.4-6.2c-0.7-2-1.6-3.9-2.6-5.8
				c-1-1.9-2.1-3.6-3.4-5.3s-2.6-3.3-4.2-4.7c0.9,1.9,1.9,3.7,2.9,5.6C382.5,143.6,383.5,145.4,384.5,147.2L384.5,147.2z
				 M379.9,231.3c-1.8-9.6-3-19.2-4.3-28.9c-1.2-9.7-2.4-19.3-3.8-29c0.6,9.7,1.3,19.5,2.2,29.2c0.9,9.7,2.1,19.4,3.9,29.1
				c1.9,9.6,3.8,19.1,5.8,28.7c2,9.5,4.1,19.1,6.3,28.6c-1.5-9.6-3.1-19.3-4.8-28.9C383.5,250.5,381.7,240.9,379.9,231.3
				L379.9,231.3z M335.5,198.9l1.6-25.4c-1.3,8.4-2.3,16.8-3.1,25.3c-0.8,8.5-1.5,16.9-1.5,25.5c0.3,8.6,0.9,17,1.6,25.5
				c0.7,8.5,1.5,16.9,2.5,25.4c-0.2-8.5-0.6-17-1-25.5L335,237c-0.2-4.2-0.5-8.5-0.6-12.7s0.2-8.4,0.4-12.7
				C335,207.4,335.3,203.1,335.5,198.9L335.5,198.9z"/>
		</g>
		<g id="Top">
			<g>
				<path class="st20" d="M346,77.4c-6.8,1.4-11.3,3.4-15.2,10.2c-4,6.7-18,36.5-18,36.5l18.4,8.2l13.3-24.9L346,77.4z"/>
				<path class="st3" d="M346,77.2c-5.4,1.2-8.6,2.4-11.2,4.9c-2.6,2.6-4.3,4.7-7.3,11.1s-8.8,17.9-8.8,17.9
					c5.7,5.5,11.7,9.3,18.5,10.2l7.6-14L346,77.2L346,77.2z"/>
			</g>
			<path class="st9" d="M394.6,148.8c-2.1-9.7-4.8-20.6-5.1-22.8c-1.7-12.4,0.5-18.7,1.3-24.1c1.8-11.8-1.6-21.7-4.4-24
				c0,0-2.8-0.7-6.3-1.5c-2-0.5-2.8-0.6-5.9-1.1c-6.9-1-13.2-0.7-15.8-0.4c-1.3,0.1-7.3,1.2-7.3,1.2c-1.8,0.4-5.2,1-5.2,1
				s-4.2,3.4-8.1,10.4c-3,5.3-4.7,9.8-5.2,21.3c-0.7,14.6-1.6,29.7-1.6,39.9C343.1,156.2,379,157.9,394.6,148.8L394.6,148.8z"/>
			<g id="Tablet">
				<g>
					<g>
						<path class="st10" d="M306.9,109.5L306.9,109.5l1.2-1.1l0,0c0.3-0.2,0.7-0.3,1.2-0.2l14.4,3.3c1.2,0.3,2.6,1.5,3.1,2.6
							l10.5,26.9c0.2,0.6,0.2,1.1-0.1,1.4l0,0l-1.2,1.1l0,0c-0.3,0.2-0.7,0.3-1.2,0.2l-14.4-3.4c-1.2-0.3-2.6-1.5-3.1-2.6
							c-2.1-5.3-8.5-21.6-10.5-26.9C306.5,110.3,306.6,109.8,306.9,109.5L306.9,109.5z"/>
						<path class="st10" d="M324,113.4c0.7,0.5,1.3,1.2,1.6,1.9l10.5,26.9c0.2,0.6,0.2,1.1-0.1,1.4l1.1-1.1l0,0
							c0.3-0.3,0.4-0.8,0.1-1.4l-10.5-26.9c-0.2-0.7-0.8-1.3-1.5-1.8C325.3,112.4,324,113.4,324,113.4z"/>
						<path class="st9" d="M336.2,142.2l-10.5-26.9c-0.5-1.2-1.8-2.4-3.1-2.6l-14.4-3.3c-1.2-0.3-1.9,0.4-1.4,1.6
							c2.1,5.3,8.5,21.6,10.5,26.9c0.5,1.2,1.8,2.4,3.1,2.6l14.4,3.4C336,144.1,336.6,143.4,336.2,142.2L336.2,142.2z"/>
					</g>
					<path class="st10" d="M325.8,121l-2-5c-0.1-0.2-0.3-0.4-0.6-0.5l-2.5-0.6c-0.2-0.1-0.3,0.1-0.3,0.3c0.4,1,1.6,4,2,5
						c0.1,0.2,0.3,0.4,0.6,0.5l2.5,0.6C325.8,121.4,325.9,121.2,325.8,121L325.8,121z"/>
					<path class="st9" d="M323.8,117.2c-0.2-0.5-0.9-1.1-1.5-1.2s-0.9,0.2-0.7,0.7c0.2,0.5,0.9,1.1,1.5,1.2
						C323.7,118.1,324,117.7,323.8,117.2z"/>
					<path class="st9" d="M324.7,119.8c-0.2-0.5-0.9-1.1-1.5-1.2s-0.9,0.2-0.7,0.7c0.2,0.5,0.9,1.1,1.5,1.2S325,120.3,324.7,119.8z"
						/>
				</g>
				<g>
					<path class="st17" d="M310.2,126.4c-1.5-1.7-1.4-1.9-0.8-3c0.6-1,2-2.7,4.4-2.9c1.6-0.1,3.2-0.3,4.1,0s0.4,2.2-1.7,2.9
						c-3.2,1.1-3.1,2-3.1,2s3-1,4.2-1.2s3.5,0.1,4.9,0.2s1.9,1.8-0.4,2.7c0,0,1.8,0.1,2.6,0.1c1.8,0.1,2.5,1,1.2,2.2
						c-0.3,0.3-0.7,0.6-1.5,0.8c0,0,1.9-0.2,2,0.4c0.3,1.8-0.8,2.4-4.5,3.9c-3.5,1.5-4.1,3.5-3.2,4.8c0,0-1.6-0.7-3-1.5
						c-1-0.6-1.9-1.2-1.7-2.8c0,0-2.1,0.3-2.4-1s0.2-2.8,0.2-2.8s-1.3-0.5-1.4-2s0.5-2.4,0.5-2.4L310.2,126.4L310.2,126.4z"/>
					<path class="st20" d="M321.8,127c-0.8,0-1.5-0.1-2.4,0c-0.8,0.2-1.5,0.6-2.2,1c-1.3,0.8-2.6,1.6-3.8,2.6c1.5-0.5,2.8-1.2,4.1-2
						c0.7-0.4,1.3-0.8,2-1C320.3,127.4,321.1,127.3,321.8,127L321.8,127z"/>
					<path class="st20" d="M324.1,130.2c-0.8-0.1-1.7-0.1-2.5,0.2c-0.8,0.2-1.6,0.6-2.3,1c-1.5,0.8-2.8,1.7-4.1,2.8
						c1.5-0.6,3-1.4,4.4-2.2S322.5,130.4,324.1,130.2L324.1,130.2z"/>
				</g>
			</g>
			<g id="Head">
				<path class="st9" d="M367.2,17.4c-1.7-0.2-3.4,0.8-5.1,0.6c-1.1-0.1-1.9-0.9-2.8-1.5c-2.2-1.6-4.9-2.7-7.7-2.6
					c-5,0.2-7.1,3.1-8.6,7.4c-0.6,1.2-1.6,2.4-2.9,2.6s-2.9-0.9-2.7-2.2c-2.6,1.7-2.7,5.8-0.1,7.6c-2.7,0.6-5.6,2.7-5.4,5.7
					c0.2,2.4,2.6,4.3,2.4,6.7c-0.2,1.9-1.9,3.2-3,4.7c-1.7,2.3-2,5.5-0.5,7.9c0.9,1.3,2.1,2.3,3.1,3.6c2.2,1.9,2.1,4.9,3,7.5
					c1.2,3.1,4.3,5.3,7.7,5.4c1.7,0,3.3-0.4,5-0.2c1.9,0.3,3.6,1.5,5.4,2.2c2.2,0.7,5,1.1,7-0.3c0.5-0.4,0.8-0.7,1.4-0.8
					c3.3-0.7,6.9,1.3,10.1-0.3c1.7-0.9,2.8-2.7,4.5-3.5c2-0.9,4.4,0,6.6-0.2c4.1-0.2,7.4-4.3,6.6-8.4c-0.2-1.3-0.8-2.6-1.2-3.8
					c-0.4-1.3-0.5-2.7,0.1-3.9c0.5-1,1.5-1.6,2.2-2.4c2.2-2.6,1.3-7-1.3-9.2c-1.2-1-2.6-1.7-3.4-3s-0.6-3-1-4.5
					c-1.2-4.6-5.8-8.6-11-7C374.2,19.3,370.5,17.6,367.2,17.4L367.2,17.4z"/>
				<g>
					<path class="st17" d="M373.7,71.8c0-1.9,0.2-11.6,0.2-11.6c0.1,0.7,3.6,2.7,6.8-1.1c3.2-3.8,3.4-7.7,1.5-10.2
						c-2.1-2.8-6.7-2.6-8.6,2c-1.3,1.7-3.7-0.3-2.7-4.7c-0.3-3.1-4.8-6.5-2.4-11.8c-8.9-5.9-19.1-5.5-24.5-0.8
						c-0.9,2.8-2.4,9.5-2.1,17.1c0.4,10.3,3.1,15.3,6.5,17c2.2,1.2,4.2,1.4,8.1,1.1l-0.2,3.2l0,0c-0.1,1.6,0.1,2.8-1.5,3.3
						c-1.1,0.4-3.6,0.8-3.6,0.8s-3.7,6.3,6.4,6.9c16.1,0.9,22.5-6.6,22.5-6.6s-1.1-0.3-3.6-1.1C374,74.5,373.7,73.7,373.7,71.8
						L373.7,71.8z"/>
					<path class="st20" d="M356.4,68.7c6.9-0.7,13.5-3,15.1-6.2c0,0,0,3.4-2.8,5.1c-3.9,2.3-12.4,3.5-12.4,3.5L356.4,68.7z"/>
					<g>
						<g>
							<path class="st21" d="M359.6,56.5l-6.1,2c0.5,1.7,2.3,2.7,4,2.2S360.1,58.3,359.6,56.5L359.6,56.5z"/>
							<path class="st18" d="M359.2,57.9c-1.7,0-3.2,1.1-3.5,2.8c0.6,0.2,1.2,0.2,1.8,0c1.2-0.4,2-1.4,2.2-2.7
								C359.5,58,359.4,57.9,359.2,57.9L359.2,57.9z"/>
						</g>
						<path class="st9" d="M345.1,39.3l4.2-1.1c-0.2-1.2-1.4-1.9-2.6-1.6C345.6,36.9,344.8,38.1,345.1,39.3z"/>
						<path class="st9" d="M363.6,40l-4.2-1.5c0.4-1.2,1.6-1.8,2.8-1.4C363.4,37.5,364,38.8,363.6,40z"/>
						<path class="st9" d="M349.3,45.4c0.1,1-0.7,1.9-1.7,2s-1.9-0.6-2-1.6s0.7-1.9,1.7-2S349.2,44.4,349.3,45.4z"/>
						<path class="st9" d="M362.5,45.7c0.1,1-0.7,1.9-1.7,2s-1.9-0.6-2-1.6s0.7-1.9,1.7-2S362.4,44.7,362.5,45.7z"/>
					</g>
				</g>
			</g>
			<g>
				<g>
					<path class="st17" d="M375.3,129l4.6-28.5c0,0,0.3-16.8,6.7-22.3c7.4,2,9.5,6.2,11.4,10.7c2.5,5.9,2.3,11.6,0.1,26.8
						c-1.8,12.9-4.1,21-6,25.7c-2.3,5.8-7.4,6.3-16.3,5.9c-8.9-0.5-14.5-1.3-26.8-2.9c-5.9-0.8-9-2.1-14-3.6
						c-2.4-0.8-3.8-1.4-5.3-2.4s-2.8-2.2-3.7-3.8c-0.2-0.3-0.3-0.6-0.5-0.8s-0.5-0.4-0.7-0.6c-0.5-0.4-1-0.7-1.4-1.2
						s-0.6-1.2-0.9-1.7c-0.1-0.3-0.2-0.6-0.4-0.8c-0.2-0.3-0.4-0.5-0.6-0.7c-0.5-0.6-1.2-1.2-1.5-1.9c-0.3-0.7,0.1-1.2,0.1-1.2
						s-0.8-0.6-1.1-0.9c-0.4-0.3-0.7-0.7-1-1.1c-0.1-0.2-0.2-0.4-0.2-0.5s0.1-0.2,0.2-0.3c1.3-1.3,3.2-0.8,4.7-0.2
						c4,1.5,6.1,3.3,10.3,4.4c2.2,0.6,2.8,0.7,3.6,0.5c1.1-0.7-3-4.5-3.3-7.7c-0.2-1.6,1.3-3.5,2.5-1.7c2.7,3.8,4.9,4.8,6.9,7
						s3.8,3.5,8,4.9C355.2,131.2,375.2,129,375.3,129L375.3,129z"/>
					<path class="st20" d="M375.3,129c5.4-1,9.9-0.8,9.9-0.8s-2.5-1.8-9.7-0.8L375.3,129L375.3,129z"/>
					<path class="st20" d="M320.3,125.6c0.8,0.7,1.7,1.3,2.5,1.9c0.9,0.6,1.8,1.2,2.6,1.8c0.4,0.3,0.9,0.6,1.3,0.9
						c0.5,0.3,0.9,0.5,1.4,0.8c0.9,0.5,1.9,0.9,2.9,1.3l-1.4-0.8c-0.5-0.3-0.9-0.5-1.4-0.8s-0.9-0.5-1.3-0.8s-0.9-0.6-1.3-0.9
						c-0.9-0.6-1.8-1.1-2.7-1.7L320.3,125.6L320.3,125.6z"/>
					<path class="st20" d="M322,129.1c0.5,0.6,1.1,1.3,1.7,1.8s1.3,1,1.9,1.5c0.7,0.5,1.3,0.9,2,1.4c0.7,0.4,1.4,0.8,2.2,1.2
						c-0.7-0.5-1.3-0.9-2-1.4l-2-1.4l-2-1.4C323.3,130.2,322.6,129.6,322,129.1L322,129.1z"/>
				</g>
				<path class="st3" d="M386.4,77.9c5.2,1.5,8.8,2.8,11.1,7.2c2.3,4.4,2.9,8.5,2.2,18.6s-3.4,21.4-3.4,21.4s-6.7-3.1-20-3.2
					c0,0,2.5-15.3,3.1-22.7S381,82.2,386.4,77.9L386.4,77.9z"/>
			</g>
		</g>
	</g>
</g>
</svg>
