<?xml version="1.0" encoding="UTF-8"?>
<svg id="_лой_1" data-name="‘лой_1" xmlns="http://www.w3.org/2000/svg" viewBox="0 0 3000 2000">
  <defs>
    <style>
      .cls-1 {
        fill: #f99746;
      }

      .cls-2 {
        fill: #ed975d;
      }

      .cls-3 {
        fill: #ed985f;
      }

      .cls-4 {
        fill: #ebf3fa;
      }

      .cls-5 {
        fill: #ed7d2b;
      }

      .cls-6 {
        fill: #e8945b;
      }

      .cls-7 {
        fill: #e6efff;
      }

      .cls-8 {
        fill: #e9f3fe;
      }

      .cls-9 {
        fill: #f77d48;
      }

      .cls-10 {
        fill: #fff;
      }

      .cls-11 {
        fill: #ffb27d;
      }

      .cls-12 {
        fill: #fca56b;
      }

      .cls-13 {
        fill: #739af0;
      }

      .cls-14 {
        fill: #b3cff9;
      }

      .cls-15 {
        fill: #90aff4;
      }

      .cls-16 {
        fill: #b5453c;
      }

      .cls-17 {
        fill: #a8d29f;
      }

      .cls-18 {
        fill: #aec3ff;
      }

      .cls-19 {
        fill: #d7e5ff;
      }

      .cls-20 {
        fill: #163560;
      }

      .cls-21 {
        fill: #1f4d84;
      }

      .cls-22 {
        fill: #1f447f;
      }

      .cls-23 {
        fill: #233862;
      }

      .cls-24 {
        fill: #113c68;
      }

      .cls-25 {
        fill: #15447c;
      }

      .cls-26 {
        fill: #1c3154;
      }

      .cls-27, .cls-28 {
        fill: #5888dd;
      }

      .cls-29 {
        fill: #6385db;
      }

      .cls-30 {
        fill: #2a4e96;
      }

      .cls-31 {
        fill: #2c3a64;
      }

      .cls-32 {
        fill: #607cf4;
      }

      .cls-33 {
        fill: #7599ea;
      }

      .cls-34 {
        opacity: .5;
      }

      .cls-35 {
        opacity: .8;
      }

      .cls-28 {
        opacity: .4;
      }
    </style>
  </defs>
  <rect class="cls-10" width="3000" height="2000"/>
  <g>
    <path class="cls-4" d="M2573.27,1840.87c-148.19,0-2151.66-4.32-2151.66-4.56-.83-1.94-254.33-312.65,64.88-637.5,158.17-160.96-145.25-369.49,0-548.54,248.81-306.7,494.99-133.97,700.07-220.23,36.24-15.23,72.6-39.73,109-77.34,20.49-21.15,42.94-39.64,66.98-55.61,3.69-2.46,7.41-4.86,11.17-7.19,14.39-8.93,29.32-17,44.69-24.26,10.33-4.87,20.84-9.37,31.56-13.51h0c17-6.57,34.47-12.24,52.31-17.03,25.34-6.81,51.42-11.88,78.02-15.31,11.6-1.51,23.3-2.69,35.09-3.58,229.16-17.23,487.04,79.67,620.13,221.3,26.79,28.52,148.63,176.08,52.59,378.91-60.64,128.06,193.4,250.36,283.67,396.6,229.51,371.79,3.58,623,1.49,627.85Z"/>
    <g class="cls-35">
      <path class="cls-19" d="M2054.76,976.46c-6.12,16.82-13.62,32.76-22.35,47.7-20.95,35.86-48.89,66.01-81.39,89.32-75.51,54.18-175.6,71.37-269.54,37.22-111.75-40.62-183.53-142.5-191.17-253.95-1.02-14.69-.92-29.54,.37-44.44,2.12-25.02,7.56-50.18,16.54-74.89,7.27-19.99,16.5-38.71,27.39-56,.12-.2,.25-.39,.37-.59,30.24-47.76,73.19-84.63,122.59-107.74,14.01-6.56,28.55-12.01,43.47-16.28,7.11-2.04,14.33-3.81,21.59-5.29,50.97-10.49,105.38-7.44,157.89,11.65,6.96,2.53,13.77,5.3,20.41,8.3,9.38,4.21,18.43,8.88,27.14,13.96,36.69,21.39,67.39,50.1,90.93,83.52h.01c14.67,20.81,26.54,43.44,35.33,67.27,4.62,12.52,8.39,25.36,11.26,38.45,1.79,8.15,3.23,16.37,4.32,24.69,2.62,19.97,3.16,40.34,1.52,60.82-2.06,25.47-7.53,51.11-16.68,76.3Z"/>
      <g>
        <path class="cls-18" d="M1732.53,720.58c-17.21,13.33-12.65,49-42.45,28.9-29.8-20.11-48.5-31.04-56.94-13.49-8.45,17.55,17.96,27.15,11.01,46.27-6.95,19.12-21.09,21.14-35.99,5.44-14.92-15.7-15.35-30.81-39.49-30.31-24.15,.5-34.45-9.43-33.27-27.56,.2-3.19-.12-5.95-.79-8.41,.12-.2,.25-.39,.37-.59,30.24-47.76,73.19-84.63,122.59-107.74,14.01-6.56,28.55-12.01,43.47-16.28,7.11-2.04,14.33-3.81,21.59-5.29,8.42,3.42,17.45,10.36,22.23,24.28,10.51,30.63,27.56,23.42,13.08,49.08-14.49,25.65-8.52,31.95,7.28,36.66,15.81,4.71,34.02,11.33,31.54,23.83-2.49,12.5-47.01-18.13-64.23-4.79Z"/>
        <path class="cls-18" d="M2054.76,976.46c-6.12,16.82-13.62,32.76-22.35,47.7-20.95,35.86-48.89,66.01-81.39,89.32-8.1-.25-15.47-3-21.68-8.55-29.18-26.07,9.49-53.75,29.85-67.23,20.36-13.47-17.44-17.94-36.5-44.19-19.06-26.25,25.57-61.83-3.11-63.75-28.68-1.92-63.56-3.78-69.4-34.5-5.84-30.72,24.33-24.4,19.05-50.28-5.28-25.88,19.67-30.73,46.36-23.34,26.69,7.38,29.98-12.29,63.06-3.36,33.09,8.93,17.51,49.65,54.01,59.83,36.5,10.18,31.92,17.79,31.92,17.79,2.58,.86,4.87,2.3,6.85,4.25-2.06,25.47-7.53,51.11-16.68,76.3Z"/>
        <path class="cls-18" d="M2069.93,839.35c-34.75,3.63-32.4-39.75-61.9-37.17-29.75,2.59-17.02-18.56-31.74-40.4-14.74-21.84-64.39-10-54.3-32.11,10.09-22.09,37.82-4.81,50.81-20.69,12.99-15.89,40.47-.75,40.47-.75,1.88-.03,3.8,.21,5.74,.72,0,0,0-.01,.01,0,14.67,20.81,26.54,43.43,35.33,67.27,4.62,12.52,8.39,25.36,11.26,38.45,1.79,8.15,3.23,16.37,4.32,24.69Z"/>
        <path class="cls-18" d="M1849.72,670.41s23.59-16.7,1.41-32.23c-22.19-15.52-24.87-6.73-43.24-15.72-18.38-8.99-31.27,3.08-22.8,24.45,8.46,21.37,8.8,56.6,27.78,44.79,18.98-11.81,21.03-25.24,36.86-21.29Z"/>
      </g>
    </g>
    <path class="cls-17" d="M487.77,1837.14h101.6c5.44-4.62-3.77-15.11-13.39-15.81-4.18-.32-9.47,.56-15.51,1.83-1.4-18.57-9.38-102.05-39.47-98.69-33.83,3.76,0,36.76,9.56,56.3,7.09,14.47,14.56,35.23,17.97,45.03-2.75,.59-5.59,1.18-8.5,1.71-4.48-13.77-21.17-60.08-42.39-57.38-24.91,3.16-14.9,21.73,2.76,32.75,12.95,8.11,28.86,19.63,36.42,25.19-6.4,1.05-13.09,1.75-19.87,1.59-17.4-.41-25.9,4.71-29.19,7.47Z"/>
    <path class="cls-17" d="M2104.67,1837.14h-94.37c-5.06-4.29,3.5-14.03,12.44-14.69,3.88-.29,8.79,.52,14.4,1.7,1.3-17.25,8.71-94.79,36.66-91.67,31.43,3.49,0,34.15-8.88,52.3-6.58,13.44-13.52,32.72-16.7,41.82,2.55,.55,5.19,1.09,7.89,1.59,4.17-12.79,19.66-55.81,39.37-53.3,23.14,2.94,13.84,20.18-2.56,30.42-12.03,7.53-26.81,18.23-33.83,23.4,5.95,.97,12.16,1.63,18.45,1.48,16.17-.38,24.05,4.38,27.11,6.94Z"/>
    <g>
      <path class="cls-11" d="M2172.07,1218.56s2.25-22.34-9.43-21.57c-11.68,.76-14.78,6.12-13.47,10.42,1.3,4.29,12.67,18.5,12.67,18.5l10.24-7.34Z"/>
      <path class="cls-13" d="M2354.1,1263.32s-12.93,15.2-40.74,32.73c-2.63,1.67-5.39,3.34-8.29,5.03-10.8,6.29-23.47,12.74-38.1,18.75-1.61,.66-3.5,1.39-5.63,2.16-16.67,6.02-47.33,14.55-66.33,15.32-1.65,.07-3.22,.07-4.68,.01-28.92-1.17-32.45-113.42-32.45-113.42,0,0,3.22-11.23,18.08-8.4,0,0,22.57,63.4,30.65,68.57,7.18,4.59,48.47-57.99,84.01-62.37,23.92-2.95,63.48,41.65,63.48,41.65Z"/>
      <path class="cls-26" d="M2276.39,1810.74s2.14,24.71-3.09,27.28l-66.85-.14s0-7.72,10.74-9.43c10.74-1.71,29.6-8,32.79-22,3.19-14,26.41,4.29,26.41,4.29Z"/>
      <path class="cls-30" d="M2227.32,1511.66c.33,16.16,1.11,32.83,2.63,47.81,7.22,71.08,9.76,156.96,10.8,173.52,1.8,28.74,7.48,74.66,7.48,74.66,0,0,11.26,10.69,33.21,5.59,0,0,18.19-66.13,22.25-135.77,.06-1.14,.12-2.29,.18-3.44,.47-9.21,.96-19.73,1.47-31.08,3.34-76.03,6.98-188.98,6.98-188.98l-83.89-19.7s-1.93,37.12-1.11,77.41Z"/>
      <path class="cls-23" d="M2227.32,1511.66c21.26,36.68,61.78,104.26,78.02,131.27,3.34-76.03,6.98-188.98,6.98-188.98l-83.89-19.7s-1.93,37.12-1.11,77.41Z"/>
      <path class="cls-29" d="M2261.33,1321.98c-16.67,6.02-47.33,14.55-66.33,15.32,2.91-.54,24.07-4.74,31.89-14.18,8.4-10.16,22.55-37.74,33.81-26.48,5.3,5.3,3.74,15.77,.63,25.35Z"/>
      <path class="cls-11" d="M2402.29,1499.71s5.21,20.42,4.35,24.96c-.85,4.54-5.94,19.9-9.11,23.72-3.17,3.81-3.3-16.57-5.41-19.78-2.11-3.2-.97,7.61-2.66,8.5-1.69,.88-4.51-8.19-5.76-11.41-1.25-3.22,4.5-14.42,5.04-22.45,.53-8.03,13.54-3.54,13.54-3.54Z"/>
      <path class="cls-26" d="M2442.92,1782.66s11.9,10.86,9.58,18.57c-2.32,7.72-13.06,12.86-14.51,22.29-1.45,9.43-7.25,14.57-12.48,14.57h-24.9s-3.85-6.64,5.44-8.64c9.29-2,12.79-13.08,12.21-23.37-.58-10.29,.87-24,.87-24l19.73-4.57,4.06,5.14Z"/>
      <path class="cls-30" d="M2241.64,1455.67s78.53,168.02,120.32,241.74c41.79,73.72,54.85,94.3,54.85,94.3,0,0,23.94-9.43,26.12-15.86,0,0-15.98-142.33-43.97-177.02-15.81-19.6-34.39-78.44-35.26-99.01-.87-20.57-19.22-69.68-19.22-69.68l-102.84,25.53Z"/>
      <path class="cls-13" d="M2227.01,1446.93s25.57,27.52,69.02,35.83c19.07,3.65,57.78,7.18,67.38-6.4,2.25-3.19,2.27-7.91,1.77-15.28-1.29-19.15-6.11-56.18,15.64-130.59,2.03-6.92,3.39-13.56,4.18-19.89,4.75-38.07,4.23-66.8-28.79-82.15-49.49-23-69.8-4.08-69.8-4.08,0,0-26.32,12.3-38.35,48.14-24.05,71.69-21.06,174.41-21.06,174.41Z"/>
      <path class="cls-11" d="M2326.5,1222.13c-8.33,5.92-22.99,9.41-36.96,2.42-1.08-.54-.94-7.93-.67-15.19,.27-7.12,.94-14.12,.94-14.12l17.61-11.56,16.8-11.02c-2.01,37.91,6.05,46.78,2.29,49.46Z"/>
      <path class="cls-3" d="M2321.26,1188.31s-11.43,17.15-32.39,21.05c.27-7.12,1.03-14.97,1.03-14.97l17.52-10.7,13.85,4.63Z"/>
      <path class="cls-11" d="M2274.03,1190.79s42.6,15.9,52.08-10.35c9.48-26.25,21.36-41.87-5.44-53.13-26.8-11.26-35.73-3.14-41.06,4.85-5.33,7.99-16.42,53.82-5.58,58.63Z"/>
      <path class="cls-31" d="M2352.65,1130.26c.49-.38,1.48-.57,3.56-.27,0,0-1.44-1.35-3.62-1.84,.13-2.94-.39-8.29-5.05-10.48,0,0,2.36,1.93,2.11,5.03-4.53-6.96-15.88-13.62-50.14-17.62-45.16-5.27-36.13,26.09-31.04,30.62,5.09,4.53,21.41-1.91,31.97,1.06,10.56,2.97,9.54,18.87,12.75,21.71,3.22,2.85,2.53-1.2,7.89-2.45s4.22,7,1.75,12.02c-2.47,5.02,2.91,13.36,2.91,13.36l8.29-6.01c8.29-6.01,20.89-35.92,19.1-43.18-.16-.64-.31-1.29-.47-1.94Z"/>
      <path class="cls-29" d="M2365.18,1461.08c-1.29-19.15-6.11-56.18,15.64-130.59,2.03-6.92,3.39-13.56,4.18-19.89h0c-16.16-5.33-45.6,6.52-45.6,6.52,0,0-6.92,98.36,25.79,143.95Z"/>
      <path class="cls-13" d="M2365.12,1233.43s19.88,7.23,32.57,59.88c8.38,34.78,23.81,85.91,25.55,101.98,1.74,16.07-17.64,110.13-17.64,110.13,0,0-2.73,1.99-9.43,.65-6.41-1.28-9.39-5.62-9.39-5.62,0,0-4.63-62.69-3.44-92.3,.5-12.3-56.93-90.07-87.93-100.09-12.17-3.93,69.71-74.64,69.71-74.64Z"/>
      <path class="cls-18" d="M2086.99,1165.28s57.47-1.63,123.79,10.58l6.93-17.46,7.6-19.13s-66.58-28.66-106.6-68.58l-31.72,94.59Z"/>
      <path class="cls-1" d="M2119.62,1069.75l-33,97.4h0c-4.83-1.43-7.46-6.61-5.78-11.35l29.04-81.84c1.41-3.96,5.88-5.9,9.74-4.21h0Z"/>
      <path class="cls-1" d="M2151.12,1237.77h0c6.41,1.28,12.71-2.92,14-9.33l11.36-56.85c1.28-6.42-2.92-12.71-9.33-14h0c-6.42-1.28-12.71,2.92-14,9.33l-11.36,56.85c-1.28,6.42,2.92,12.71,9.33,14Z"/>
      <path class="cls-13" d="M2086.99,1165.28s57.47-1.63,123.79,10.58l6.93-17.46c-62.32-12.73-130.72,6.88-130.72,6.88Z"/>
      <path class="cls-1" d="M2192.45,1172.34l17.96,3.16c-.27,.01,16.68,3.3,22.24-11.73,.51-1.03,.84-2.04,1.07-3.24,4.32-18.73-5.96-22.18-5.96-22.18l-23.11-9.01-7.34,25.99v.09s-4.84,16.92-4.84,16.92Z"/>
      <path class="cls-5" d="M2192.45,1172.34l17.96,3.16c-.27,.01,16.68,3.3,22.24-11.73-10.16-7.39-35.35-8.45-35.35-8.45v.09s-4.84,16.92-4.84,16.92Z"/>
      <path class="cls-11" d="M2152.65,1182.73s8.79,3.5,7.17,7.37c-1.61,3.87-12.78,9.19-14.54,6.14-1.76-3.05,1.84-16.77,7.37-13.5Z"/>
      <path class="cls-11" d="M2172.24,1215.04s1.66-8.99,1.76-13.12c.1-4.13,.59-7.5-.38-7.62-.97-.12-1.68,.64-2.07,1.97-.4,1.33-1.92,9.56-1.92,9.56l.77,7.95,1.85,1.25Z"/>
    </g>
    <g>
      <path class="cls-33" d="M1303.31,1209.17l-49.77,591.8s-5.21,35.87,21.47,35.94c43.87,.1,218.38,0,218.38,0,0,0-33.02-7.47-32.62-24.27,.47-19.8,58.17-609.07,58.17-609.07l-215.63,5.6Z"/>
      <path class="cls-15" d="M1509.81,1826.41c-8.63,.03-177.57,.31-220.3-.24-18.62-.23-21.89-16.56-22.04-27.12-.08-5.06,.57-8.81,.57-8.81l1.29-15.38,3.3-39.2,2.91-34.64,3.75-44.51,3.15-37.57,35.37-420.52,215.63-5.6s-24.3,246.61-41.49,426.11c-1.92,20-3.74,39.18-5.43,57.08-.55,5.72-1.07,11.3-1.59,16.74-1.59,16.98-3.05,32.58-4.32,46.35-.67,7.26-1.29,14-1.84,20.18-2.19,24.21-3.48,39.67-3.5,42.61,0,1.71,.14,3.31,.42,4.79,3.54,18.86,30.88,19.71,34.12,19.71Z"/>
      <polygon class="cls-18" points="779.65 887.13 900.89 1374.12 917.49 1440.81 973.95 1667.63 2023 1667.63 1814.88 887.13 779.65 887.13"/>
      <polygon class="cls-15" points="779.65 887.13 762.85 892.73 951.62 1684.57 973.96 1667.63 779.65 887.13"/>
      <polygon class="cls-33" points="951.62 1684.57 1994.21 1684.57 2023 1667.63 973.96 1667.63 951.62 1684.57"/>
      <rect class="cls-18" x="1317.74" y="1826.41" width="225.74" height="10.73" transform="translate(2861.22 3663.55) rotate(180)"/>
      <polygon class="cls-27" points="1486.1 1684.57 1484.93 1692.77 1272.64 1735.66 1275.55 1701.02 1276.94 1684.57 1486.1 1684.57"/>
      <path class="cls-28" d="M1509.81,1826.41c-8.63,.03-177.57,.31-220.3-.24-18.62-.23-21.89-16.56-22.04-27.12l211.29-39.75c-2.19,24.21-3.48,39.67-3.5,42.61,0,1.71,.14,3.31,.42,4.79,3.54,18.86,30.88,19.71,34.12,19.71Z"/>
      <polygon class="cls-18" points="779.65 887.13 1814.88 887.13 1982.84 1514.41 935.81 1514.41 779.65 887.13"/>
      <polygon class="cls-13" points="1934.02 1487.22 964.73 1487.22 930.09 1349.24 916.69 1295.85 911.23 1274.08 875.63 1132.28 873.78 1124.9 854.97 1049.94 846.55 1016.41 839.37 987.8 822.53 920.74 1777.84 920.74 1796.33 987.8 1804.22 1016.41 1813.46 1049.94 1874.37 1270.89 1874.37 1270.9 1879.53 1289.62 1881.93 1298.31 1923.99 1450.84 1934.02 1487.22"/>
      <polygon class="cls-32" points="1796.33 987.8 839.37 987.8 822.53 920.73 1777.85 920.73 1796.33 987.8"/>
      <g>
        <path class="cls-8" d="M862.05,951.04c-1.15-4.63,1.66-8.38,6.29-8.38s9.32,3.75,10.47,8.38c1.15,4.63-1.66,8.38-6.29,8.38s-9.32-3.75-10.47-8.38Z"/>
        <path class="cls-8" d="M889.91,951.04c-1.15-4.63,1.66-8.38,6.29-8.38s9.32,3.75,10.47,8.38c1.15,4.63-1.66,8.38-6.29,8.38s-9.32-3.75-10.47-8.38Z"/>
        <path class="cls-8" d="M919.91,951.04c-1.15-4.63,1.66-8.38,6.29-8.38s9.32,3.75,10.47,8.38c1.15,4.63-1.66,8.38-6.29,8.38s-9.32-3.75-10.47-8.38Z"/>
      </g>
    </g>
    <path class="cls-9" d="M1587.81,530.83c39.18-46,99.59-138.4,140.26-185.71,8.37-9.74,1.41-24.77-11.43-24.77h-74.01l69.81-157.86c2.98-6.74-6.2-12.11-10.62-6.21l-168.8,225.92c-4.92,6.59,.46,15.87,8.63,14.86l83.79-10.32-49.85,136.94c-2.74,7.54,7.02,13.25,12.22,7.14Z"/>
    <path class="cls-18" d="M1239.36,810.99c8.81-45.21,14.38-129.17,23.69-175.81,1.92-9.6-8.33-16.98-16.86-12.18l-49.16,27.68-12.68-130.96c-.54-5.59-8.65-5.72-9.37-.15l-27.61,213.19c-.8,6.22,6.24,10.37,11.29,6.64l51.79-38.19,18.11,109.6c1,6.03,9.62,6.17,10.79,.17Z"/>
    <g>
      <path class="cls-7" d="M1976.36,1500.58l-842.23,70.96c-63.95,5.39-110.23-59.81-84.05-118.4l356.82-798.57c27.07-60.58,110.28-67.59,147.1-12.39l485.41,727.61c35.62,53.39,.9,125.41-63.05,130.8Z"/>
      <path class="cls-9" d="M1979.04,1532.43l-842.23,70.96c-41.42,3.49-80.52-14.66-104.58-48.56-24.06-33.9-28.3-76.79-11.34-114.74l356.82-798.57c17.53-39.24,53.57-64.82,96.4-68.43,42.83-3.61,82.64,15.58,106.49,51.34l485.41,727.61c23.07,34.58,26.07,77.58,8.02,115.02-18.05,37.44-53.56,61.88-94.98,65.37Zm-499.56-895.63c-19.28,1.62-35.5,13.14-43.39,30.8l-356.82,798.57c-7.63,17.08-5.72,36.39,5.11,51.64,10.83,15.26,28.43,23.43,47.07,21.86l842.23-70.96c18.64-1.57,34.63-12.57,42.75-29.42,8.12-16.85,6.78-36.21-3.61-51.77l-485.41-727.61c-10.74-16.09-28.65-24.73-47.93-23.11Z"/>
      <path class="cls-9" d="M1459.74,1378.4c-.91-10.85,.17-21.05,3.28-30.59,3.1-9.53,7.9-17.97,14.41-25.31,6.51-7.33,14.57-13.32,24.2-17.94,9.62-4.61,20.67-7.46,33.14-8.51,12.46-1.05,23.92-.1,34.34,2.82,10.43,2.93,19.47,7.48,27.11,13.62,7.65,6.15,13.79,13.67,18.44,22.54,4.65,8.89,7.43,18.75,8.35,29.61,.91,10.85-.19,20.97-3.3,30.34-3.11,9.38-7.92,17.73-14.43,25.07-6.51,7.34-14.66,13.33-24.45,17.96-9.79,4.63-20.92,7.48-33.39,8.53-12.47,1.05-23.84,.1-34.09-2.84-10.26-2.94-19.21-7.49-26.86-13.64-7.64-6.14-13.79-13.57-18.42-22.3-4.64-8.72-7.41-18.51-8.33-29.36Zm130.21-152.37l-121.32,10.22-52.11-413.07,155.69-13.12,17.74,415.97Z"/>
    </g>
    <g>
      <path class="cls-11" d="M936.75,1251.36s2.64-5.94,4.35-8.75c1.71-2.81,9.02-11.05,10.26-9.19,1.24,1.87,6.22,14.42,3.58,17.94-2.64,3.52,.17,9.63-12.97,13.34l-5.21-13.34Z"/>
      <path class="cls-5" d="M790.68,1213.86s67.29,56.17,93.52,50.97c20.52-4.07,52.95-14.35,52.95-14.35,0,0,8.56,8.14,6.14,17.9,0,0-41.32,38.88-70.76,39.13-46.02,.39-67.72-22.8-67.72-22.8l-14.13-70.84Z"/>
      <path class="cls-24" d="M672.67,1806.31s1.95,31.51,8.05,31.96c.81,.06,30.92,.06,30.92,.06l38.44-.22s-.25-9.26-11.49-11.22c-11.23-1.96-30.04-9.85-36.85-24.7-7.16-15.62-29.07,4.12-29.07,4.12Z"/>
      <path class="cls-30" d="M670.45,1808.49s11.68,3.91,20.81,3.91c10.18,0,19.42-2.77,19.42-2.77,0,0,2.2-21.27,14.3-68.14,6.35-24.57,15.41-56.16,28.3-95.41,35.65-108.48,46.49-171.94,47.48-177.95,.05-.32,.07-.47,.07-.47l-.12-.05-109.61-48.12s13.55,149.51-3.74,206.9c-2.42,8.02-4.49,17.37-6.27,27.49-10.92,62.33-10.66,154.62-10.66,154.62Z"/>
      <path class="cls-23" d="M724.99,1741.49c6.35-24.57,15.41-56.16,28.3-95.41,35.65-108.48,46.49-171.94,47.48-177.95-.01-.18-.02-.35-.04-.53l-109.61-48.12s13.55,149.51-3.74,206.9c-2.42,8.02,37.6,115.11,37.6,115.11Z"/>
      <path class="cls-25" d="M758.28,1806.31s1.95,31.51,8.05,31.96c.81,.06,30.92,.06,30.92,.06l38.44-.22s-.25-9.26-11.49-11.22c-11.23-1.96-30.04-9.85-36.85-24.7-7.16-15.62-29.07,4.12-29.07,4.12Z"/>
      <path class="cls-30" d="M820.42,1423s1.42,96.88-15.34,215.84c-16.76,118.96-11.08,169.45-11.08,169.45,0,0-11.52,3.73-16.16,4.11-11.84,.96-23.98-2.78-23.98-2.78,0,0-23.99-119-17.11-178.54,6.88-59.54-32.85-204.31-32.85-204.31l116.53-3.78Z"/>
      <path class="cls-11" d="M742.7,1196.29l21.39,14.03,19.49-5.51c3.56-5.08,4.51-14.88,4.56-23.36,.05-8.42-.77-15.56-.77-15.56l-28.87-12.74-10.77-4.75c.03,.17,.84,8.84,.95,10.11,2.01,22.49-5.99,37.78-5.99,37.78Z"/>
      <path class="cls-1" d="M820.91,1449.94c-26.63,25.71-127.41,21.39-133.62-6.94-6.2-28.33,6.77-241.15,52.26-254.52,9.44-2.77,59.91,13.54,59.91,13.54,0,0,7.92,20.72,13.11,47.09,1.01,5.13,3.95,59.52,6.15,110.4,1.03,23.8,1.9,46.83,2.34,63.7,.4,15.8,.42,26.18-.15,26.74Z"/>
      <path class="cls-12" d="M750.85,1158.9c5.86,9.9,26.4,18.57,37.29,22.54,.05-8.42-.77-15.56-.77-15.56l-28.87-12.74c-6.38-.08-10.27,1.34-7.66,5.76Z"/>
      <path class="cls-11" d="M798.26,1164.12s-46.51,14.51-55.1-14.59c-8.59-29.1-20.38-46.83,8.95-57.32,29.33-10.49,38.41-1.1,43.64,7.92,5.23,9.02,14.39,59.48,2.51,64Z"/>
      <path class="cls-20" d="M793.93,1097.32s-2.97,33.87-9.97,32.4c-7-1.47-14.71-4.62-13.69,5.59,1.03,10.21-6.81,27.71-16.91,27.67-21.66-.09-45.19-55.67-39.26-66.21,17.11-30.41,104.56-36.55,79.83,.55Z"/>
      <path class="cls-5" d="M787.09,1189.21c-.6-.25-34.62-15.51-38.6-14.2-3.98,1.31-8.94,13.47-8.94,13.47l59.91,13.54s-4.72-9.59-12.37-12.81Z"/>
      <g>
        <path class="cls-21" d="M998.9,1354.03l-190.72,179.57c-3.74,3.52-8.45,4.64-10.48,2.49l-6.44-6.84c-2.02-2.15-.62-6.79,3.12-10.31l190.72-179.57c3.74-3.52,8.45-4.64,10.48-2.49l6.44,6.84c2.02,2.15,.62,6.79-3.12,10.31Z"/>
        <path class="cls-13" d="M891.87,1454.8l-83.69,78.8c-3.74,3.52-8.45,4.64-10.48,2.49l-6.44-6.84c-2.02-2.15-.62-6.79,3.12-10.31l83.69-78.8,13.8,14.65Z"/>
        <path class="cls-21" d="M955.07,1286.23c7.32,24.13,20.88,46.73,40.57,65.25,60.13,56.57,154.74,53.68,211.31-6.44,55.82-59.34,53.75-152.24-4.11-209.04-.77-.76-1.55-1.52-2.35-2.26-60.12-56.57-154.72-53.7-211.29,6.43-38.05,40.44-49.21,96.49-34.14,146.06Zm42.73-137.97c32.92-34.99,79.83-48.94,123.88-41.31,25.67,4.44,50.35,16.2,70.74,35.38,55.38,52.1,58.03,139.23,5.93,194.62-19.18,20.39-43.1,33.62-68.44,39.63-43.51,10.3-91.19-.75-126.18-33.68-55.38-52.11-58.04-139.24-5.93-194.63Z"/>
        <g class="cls-34">
          <path class="cls-14" d="M1198.35,1336.96c-19.18,20.39-43.11,33.62-68.44,39.63-43.51,10.29-91.18-.76-126.18-33.69-55.38-52.1-58.04-139.24-5.93-194.63,32.92-34.99,79.83-48.94,123.88-41.31,25.67,4.44,50.36,16.2,70.74,35.38,55.38,52.1,58.04,139.24,5.93,194.62Z"/>
        </g>
      </g>
      <path class="cls-5" d="M821.06,1423.2c-105.09-74.88-96.35-174.81-96.35-174.81,38.41,21.66,76.52,69.56,94.01,111.11,1.03,23.8,1.9,46.83,2.34,63.7Z"/>
      <g>
        <path class="cls-11" d="M924.78,1389.1c7.41-1.71,12.39-7.31,13.42-8.29,0,0,3.16,.22-.52,6.96-.31,.56-.99,2.01-1.51,3.04-.21,.42,.08,.91,.55,.94,4.28,.33,8.58-1.37,16.81,.35,1.14,.24,1.47,2.96,1.42,4.12-.07,1.96,.07,4.17-2.21,7.18-1.33,1.75-5.03,3.63-13.28,6.95-3.14,1.26-12.13,.31-20.55-2.58l-6.73-3.12,2.09-12.5,1.69,.35c2.68,.56,6.01-2.71,8.81-3.4Z"/>
        <path class="cls-1" d="M757.32,1202.02s-94.42,17.98,27.78,154.72c19.54,21.87,125.14,50.34,125.14,50.34,0,0,10.71-9.11,5.31-16.49,0,0-72.71-52.8-88.7-61.19-7.2-3.78-27.93-84.27-39.66-103.65-11.73-19.38-29.87-23.73-29.87-23.73Z"/>
      </g>
      <path class="cls-11" d="M939.31,1253.02s3.09-5.9,3.69-9.02c.6-3.11,4.49-12.19,6.09-13.79,.64-.64,2.76,.19,3.01,2.94,.11,1.2-.48,3.38-1.52,5.97-1.69,4.23-1.41,9.96-2,11.87-1.46,4.76-9.28,2.03-9.28,2.03Z"/>
    </g>
    <g>
      <g>
        <path class="cls-11" d="M976.89,1018.74c-1.61,1.84-1.81,3.89-1.02,6.09,0,0,0,.02,.02,.03,1.47,4.06,6.32,8.6,11.96,13.13,.72,.58,1.36,1.11,1.92,1.6,.15,.13,.29,.26,.43,.39,.11,.1,.22,.2,.33,.3,5.26,4.85,3.28,5.96,12.72,15.8,10.77,11.21,18.18,11.42,20.29,10.39,1.79-.87-1.84-6.81-5.86-13.5-.19-.32-.39-.65-.58-.97-.54-.89-1.07-1.79-1.6-2.68-4.71-8.04-3.5-11.81-2.38-23.78,.91-9.72,15.15-54.32,15.15-54.32l-20.64-3.56s-6.23,35.51-13.08,40.98c-3.66,2.91-7.76,2.95-11.28,5.11-.25,.15-.49,.3-.73,.46-2,1.33-4.04,2.69-5.65,4.54Z"/>
        <path class="cls-23" d="M976.89,1018.74c-1.61,1.84-1.81,3.89-1.02,6.09,0,0,0,.02,.02,.03,1.8,4.06,6.53,8.57,11.98,13.09,.71,.59,1.34,1.13,1.9,1.64,.15,.13,.29,.26,.43,.39,.11,.1,.22,.2,.33,.3,5.26,4.85,3.28,5.96,12.72,15.8,10.77,11.21,18.18,11.42,20.29,10.39,1.79-.87-1.84-6.81-5.86-13.5-2.1-.77-11.84-4.73-19.2-14.16-6.25-7.98-10.49-18.14-14.74-24.39-.47-.09-.75-.14-1.21-.23-2,1.33-4.04,2.69-5.65,4.54Z"/>
        <path class="cls-11" d="M1143.34,1005.91c1.27,6.37,10.36,5.31,20.5,2.84,10.15-2.48,7.74,.47,22.18-1.12,14.44-1.59,18.82-6.98,19.26-9.12,.4-1.91-6.74-2.58-14.39-3.46-.96-.11-1.93-.23-2.9-.35-8.64-1.09-14.97-6.67-22.82-11.25-7.43-4.34-18.52-22.02-18.52-22.02l-19.81,1.56s10.39,15.79,14.41,22.65c2.36,4.04,2.24,9.38,1.94,13.5-.15,2.24-.3,4.53,.15,6.78Z"/>
        <path class="cls-23" d="M1163.84,1008.75c10.15-2.48,7.74,.47,22.18-1.12,14.44-1.59,18.82-6.98,19.26-9.12,.4-1.91-6.74-2.58-14.39-3.46l-.07,.15s-8.66,6.14-20.68,6.42c-9.8,.24-20.17-2.58-26.94-2.47-.15,2.24-.3,4.53,.15,6.78,1.27,6.37,10.36,5.31,20.5,2.84Z"/>
        <path class="cls-23" d="M1067.48,879.24l-18.53,49.81-24.19,65.04s-6.56,.63-12.84-1.18c-5.78-1.67-12.42-6.05-12.42-6.05,0,0,6.74-69.85,19.27-109.94,3.21-10.29,6.81-18.61,10.78-23.3,19.42-22.93,37.93,25.6,37.93,25.6Z"/>
        <path class="cls-30" d="M1048.69,800.11c-10.54-3.4-38.04-.07-67.87,5.32-8.24,1.49-16.55-2.28-20.89-9.44h0l-75.06-5.89s-24.79,54.92-11.24,89.93c1.99,5.15,6.36,8.36,13.12,8.47,0,0,0,0,0,0,0,0,45.36,.08,59.87,.08,37.33,.01,79.01-25.63,84.4-26.71,8.82-1.76,12.35,15.89,21.17,34.42,8.82,18.53,82.92,82.09,82.92,82.09,0,0,11.39,.12,16.1-1.65,5.06-1.9,6.91-4.36,6.91-4.36,0,0-82.07-163.43-109.43-172.27Z"/>
        <path class="cls-23" d="M952.03,575.56c-5.57-3.32-11.01-3.83-14.34-3.74-2.32,.07-4.63-.09-6.92-.42-28.65-4.21-45.91,37.4-46.93,49.97-1.86,23.08-14.08,26.6-31.27,41.05-34.48,28.98-24.38,62.66-5.54,75.19,11.31,7.51,31.24,0,31.24,0,.28,.2,54.52-30.29,81.25-45,40.07-5.68,8.6-107.47-7.49-117.06Z"/>
        <path class="cls-11" d="M937.13,680.08c.12,.08-13.15,4.6-22.02,.67-8.35-3.69-14.66-17.43-14.54-17.43,3.8-.17,7.97-3.49,11.18-25.27l1.62,.58,27.18,9.79s-1.97,8.72-3.25,17.03c-1.08,6.97-1.65,13.65-.17,14.64Z"/>
        <path class="cls-2" d="M940.55,648.42s-1.09,4.71-2.67,13.5c-15.61-2.82-22.31-14.85-24.51-23.29l27.18,9.79Z"/>
        <path class="cls-11" d="M944.59,657.08s-37.19-5.01-33.72-28.12c3.47-23.11,1.01-39.33,24.91-37.11,23.89,2.22,27.17,11.73,27.89,19.73,.72,8-9.31,46.21-19.07,45.5Z"/>
        <path class="cls-23" d="M962.32,598.9s-23.82,20.51-40.01,22.16c-16.2,1.65-22.33-3.55-22.33-3.55,0,0,9.55-7.92,15.3-20.71,1.69-3.77,5.27-6.36,9.39-6.71,11.56-.99,33.49-1.44,37.65,8.81Z"/>
        <path class="cls-23" d="M947.43,597.06s7.96,7.7,10.47,13.42c2.42,5.51,3.14,18.7,1.21,23.93,0,0,12.42-24.13,5.4-35.85-7.45-12.44-17.08-1.5-17.08-1.5Z"/>
        <path class="cls-1" d="M968.43,734.89c-1.15,75.29-.33,59.56-8.57,66.7-1.99,1.72-7.56,2.74-14.91,3.23-23.09,1.52-63.67-2.29-65.21-6.56-5.32-14.77-1.56-19.35-5.99-41.95-.46-2.4-1.03-5.01-1.71-7.84-3.7-15.52-7.3-20.81,5.85-45.74,11.93-22.59,24.31-40.92,25.43-40.26,31.44,18.68,33.98,2.99,33.98,2.99,0,0,31.7,32.71,31.13,69.44Z"/>
        <path class="cls-30" d="M1048.95,929.05l-24.19,65.04s-6.56,.63-12.84-1.18c-5.78-1.67-12.42-6.05-12.42-6.05,0,0,6.74-69.85,19.27-109.94l30.18,52.12Z"/>
        <path class="cls-1" d="M937.3,665.44s32.35,5.5,36.15,19.43c3.79,13.93,16.27,98.49,16.27,98.49,0,0-9.13,8.91-16.72,1.31-7.6-7.6-23.89-79.12-23.89-79.12l-11.81-40.1Z"/>
        <path class="cls-5" d="M944.96,804.81c-23.09,1.52-63.67-2.29-65.21-6.56-5.32-14.77-1.56-19.35-5.99-41.95l11.15-31.35s-1.85,34.92,8.44,44.1c10.28,9.19,42.15,17.74,47.16,25.42,2.41,3.68,4,7.38,4.46,10.34Z"/>
        <path class="cls-11" d="M918.51,790.12s22.78-5.06,26.45-3.04c3.67,2.02,12.65,9.39,13.78,11.95,1.12,2.56-8.18-1.95-11.21-2.76-1.96-.53-7.12,1.26-9.68,2.12-10.75,3.58-17.34,1.73-17.34,1.73l-2.01-10Z"/>
        <path class="cls-1" d="M903.3,662.44s-30.58,1.87-41.18,16.64c-14.91,20.78-44.51,109.36-27.57,121.18,19.08,13.31,86.84,3.51,86.84,3.51,0,0,2.26-10.54-.88-15.64-3.14-5.1-54.12-13.35-56.47-15.71-2.35-2.35,29.43-45.88,29.43-52.94,0-7.06,9.81-57.04,9.81-57.04Z"/>
        <path class="cls-11" d="M946.06,793.42s4.77,6.16,6.33,6.89c1.56,.74,2.58,.55,2.58,.55l-3.21-5.79-5.7-1.66Z"/>
        <path class="cls-11" d="M944.96,787.08l13.87,6.74s-.59,.97-2.3,.89-6.02-1.66-6.02-1.66l-5.56-5.97Z"/>
      </g>
      <polygon class="cls-23" points="1063.44 802.96 918.5 802.91 918.5 806.11 1062.15 806.16 1063.44 802.96"/>
      <polygon class="cls-23" points="952.39 806.12 1062.15 806.16 1095.2 724.06 985.61 724.02 952.39 806.12"/>
      <path class="cls-10" d="M1034.46,765.09c.83-2.89-.84-5.23-3.73-5.23-2.89,0-5.9,2.34-6.73,5.22-.83,2.89,.84,5.23,3.73,5.23,2.89,0,5.9-2.34,6.73-5.22Z"/>
    </g>
    <g>
      <path class="cls-20" d="M1777.27,1115.74c-14.79-4.91-25.02,1.29-25.02,1.29-42.57,1.75-44.15,45.39-39.16,61.63,7.02,22.81-17.82,40.79,9.73,50.02,31.96,10.71,58.78-2,56.95,3.52,101.07,7.96,31.13-105.29-2.5-116.46Z"/>
      <path class="cls-1" d="M1733.12,1327.98s-4.05,8.01-11.38,17.21c-8.84,11.08-55.26-15.21-51.26-17.21,4-2,27.32-69.2,32.88-77.64,5.56-8.44,24.48-12.83,24.48-12.83l5.28,90.47Z"/>
      <path class="cls-22" d="M1889.76,1781.18s12.81,11.69,10.31,20c-2.5,8.31-14.06,13.85-15.62,24-1.56,10.15-7.81,15.69-13.44,15.69h-26.82s-4.14-7.15,5.86-9.3c10-2.15,13.77-14.08,13.14-25.16s.94-25.84,.94-25.84l21.25-4.92,4.38,5.54Z"/>
      <path class="cls-26" d="M1781.32,1786.15s4.61,49.53-1.01,52.3l-71.98-.15s0-8.31,11.56-10.15c11.56-1.85,31.87-8.62,35.31-23.69s26.12-18.31,26.12-18.31Z"/>
      <path class="cls-1" d="M1836.69,1294.57s1.07,15.12,0,33.27c-.71,12.03-12.88,28.14-14.61,32.13-4.33,10-9.22,11.62-9.22,11.62l-37.79,9.26-13.29,3.25-41.91-12.52s-19.09-53.27-11.42-83.26c7.66-29.99,19.37-50.82,19.37-50.82,0,0,28.48-6.4,78.72-2.84l30.14,59.9Z"/>
      <path class="cls-5" d="M1840.29,1328.26c-.71,12.03-16.48,27.72-18.21,31.71-4.33,10-9.22,11.62-9.22,11.62l-37.79,9.26-6.82-19.56s55.22-14.51,46.34-65.62l25.7,32.58Z"/>
      <path class="cls-23" d="M1722.55,1379.67s-20.75,64.59-22.09,86.59c-1.33,21.99,39.67,312.42,41.32,322.55,1.55,9.55,13.42,15.64,13.42,15.64,0,0,5.46,3.22,13.24,1.02,10.8-3.05,14.22-6.7,14.22-6.7,0,0,16.15-207.13,6.16-281.12-10-73.99-10.11-137.98-10.11-137.98h-56.15Z"/>
      <path class="cls-30" d="M1810.47,1377.75s31.66,42.47,34.61,71.19c2.95,28.71,4.63,129.56,10.92,157.55,6.29,27.99,29.39,81.86,29.39,169.16,0,0-2.4,5-9.81,7.67-2.37,.85-5.55,1.68-8.63,2.39-6.11,1.4-12.39-1.59-15.18-7.2-15.62-31.44-65.36-132.86-67.91-153.91-1.8-14.9-17.51-113.5-51.78-171.35-8.23-13.89,5.05-69.13,5.05-69.13l73.35-6.36Z"/>
      <path class="cls-23" d="M1719.23,1369.7s8.33,6.59,24.88,6.92c19.77,.4,68.75-5.04,68.75-5.04,0,0,2.18,6.08,2.09,12.5,0,0-59.83,15.09-94.49,2.2,0,0-4.47-8.41-1.23-16.59Z"/>
      <path class="cls-10" d="M1739.37,1393.66c-4.97,0-9.02-4.58-9.02-10.21s4.05-10.21,9.02-10.21,9.02,4.58,9.02,10.21-4.05,10.21-9.02,10.21Zm0-17.43c-3.33,0-6.03,3.24-6.03,7.22s2.71,7.22,6.03,7.22,6.03-3.24,6.03-7.22-2.7-7.22-6.03-7.22Z"/>
      <polygon class="cls-16" points="1782.59 1412.23 1692.67 1413.07 1648.43 1309.09 1738.35 1308.25 1782.59 1412.23"/>
      <path class="cls-11" d="M1770.83,1365.24l-6.59-8.1s-4.46-3.98-7.7-4.65c-3.24-.68-10.07-4.62-10.73-3.51-.66,1.11,5.25,9.03,5.25,9.03l.3,.04c-6.79,5.11-23.93,.6-26.04,2.68-2.56,2.52,3.53,7.98,6.8,11.05,3.27,3.06,12.62,8.17,19.91,5.91,5.33-1.66,13.71-3.35,13.71-3.35l5.09-9.1Z"/>
      <path class="cls-11" d="M1655.19,1327.38s5.65-6.42,9.25-3.34c3.6,3.08-.94,18.24-4.37,16.7s-6.85-11.47-4.88-13.36Z"/>
      <path class="cls-1" d="M1806.55,1234.67s25.74,2.84,44.21,36.4c14.57,26.47,39.47,75.26,30.07,89.04-4.12,6.05-43.67,27.58-119.94,15.28,0,0,1.2-9.63,7.35-14.1,0,0,64.19-20.61,64.08-24.71-.21-7.75-8.67-14.45-44.53-50.32-9.75-9.75,18.75-51.6,18.75-51.6Z"/>
      <path class="cls-11" d="M1786.74,1236.03c.88-1.19-.25-4.97-1.67-12.01-1.28-6.38-3.45-16.25-3.41-27.35l-1.9,.32-31.9,5.37s.73,8.53,.75,16.57c0,.07,0,.13,0,.2,.04,6.98-1.88,17.53,.47,18.9,12.09,7.08,34.25,2.57,37.66-2Z"/>
      <path class="cls-6" d="M1747.87,1202.36s.63,12.03,.66,20.06c17.85-.43,27.38-17.76,31.25-25.43l-31.9,5.37Z"/>
      <path class="cls-11" d="M1745.94,1216.7s41.82-5.96,37.71-31.95c-4.11-25.99-1.48-44.26-28.36-41.55-26.88,2.7-30.48,13.44-31.22,22.45-.74,9.01,10.88,51.93,21.87,51.05Z"/>
      <path class="cls-20" d="M1736.2,1145.59s16.28,28.66,34.52,30.38c18.25,1.71,25.1-4.19,25.1-4.19,0,0-15.15-8.54-20.91-26.74,0,0-32.41-15.33-38.72,.55Z"/>
      <path class="cls-20" d="M1739.42,1147.62s-7.96,4.52-10.47,11.25c-2.45,6.58-4.08,15.05-1.84,24.75,0,0-11.91-19.35-4.1-32.61,8.27-14.06,16.41-3.39,16.41-3.39Z"/>
    </g>
    <path class="cls-23" d="M342.52,1837.14H2660.86c1.6,0,2.9,1.3,2.9,2.9v1.67c0,1.6-1.3,2.9-2.9,2.9H342.52c-1.6,0-2.9-1.3-2.9-2.9v-1.67c0-1.6,1.3-2.9,2.9-2.9Z"/>
  </g>
</svg>