<?xml version="1.0" encoding="utf-8"?>
<!-- Generator: Adobe Illustrator 27.0.1, SVG Export Plug-In . SVG Version: 6.00 Build 0)  -->
<svg version="1.1" id="Layer_1" xmlns="http://www.w3.org/2000/svg" xmlns:xlink="http://www.w3.org/1999/xlink" x="0px" y="0px"
	 viewBox="0 0 750 500" style="enable-background:new 0 0 750 500;" xml:space="preserve">
<style type="text/css">
	.st0{opacity:0.37;fill:url(#SVGID_1_);enable-background:new    ;}
	.st1{opacity:0.37;fill:url(#SVGID_00000129195150109239342510000009211214172952439988_);enable-background:new    ;}
	.st2{fill:url(#SVGID_00000083799833535865074710000008066772103008382340_);}
	.st3{fill:url(#SVGID_00000088835448587534241650000007425699232185380538_);}
	.st4{fill:url(#SVGID_00000039104060955832752330000003748693827199478403_);}
	.st5{fill:url(#SVGID_00000083780212767134075360000005238644823310947250_);}
	.st6{fill:none;}
	.st7{fill:url(#SVGID_00000115493379304974584130000000757102461864754853_);}
	.st8{fill:url(#SVGID_00000150791037043277383040000016524597294319692420_);}
	.st9{fill:#111023;}
	.st10{fill:url(#SVGID_00000106119571474530141180000014530344754931932310_);}
	.st11{fill:url(#SVGID_00000106859929083091499390000000112926105263259013_);}
	.st12{fill:url(#SVGID_00000092414050313700461560000011601727618234517666_);}
	.st13{fill:url(#SVGID_00000112596340002788551370000016864275591361295522_);}
	.st14{fill:url(#SVGID_00000021831810699400503090000015869392655292218788_);}
	.st15{fill:url(#SVGID_00000158013403633719805380000018275394327823768207_);}
	.st16{fill:url(#SVGID_00000016042480704525490320000013309108564959157672_);}
	.st17{fill:#5B2B89;}
	.st18{fill:url(#SVGID_00000083788481199436701550000004771525094222176188_);}
	.st19{fill:url(#SVGID_00000172435728600769146570000001056481979082684035_);}
	.st20{fill:url(#SVGID_00000027597641616281283010000003978435385142502272_);}
	.st21{fill:url(#SVGID_00000072970918260201971350000004393377164171197369_);}
	.st22{fill:url(#SVGID_00000057867995488669004720000012448944598122153348_);}
	.st23{opacity:0.38;fill:url(#SVGID_00000062151358259651129330000017442708056467049637_);enable-background:new    ;}
	.st24{fill:url(#SVGID_00000107586287401572597870000010365085919962741155_);}
	.st25{fill:#F79244;}
	.st26{fill:#FFFFFF;}
	.st27{opacity:0.5;fill:url(#SVGID_00000110447160692329018480000014201537216269911692_);enable-background:new    ;}
	.st28{fill:url(#SVGID_00000118395839749751001880000014696683822137471918_);}
	.st29{fill:url(#SVGID_00000122689695938318987900000003309391737976768418_);}
	.st30{fill:#E9FDFF;}
	.st31{fill:url(#SVGID_00000083790539007374272380000008522833697080952491_);}
	.st32{fill:url(#SVGID_00000180338176246426448990000017422436541092168630_);}
	.st33{fill:#2A2A2A;}
	.st34{fill:url(#SVGID_00000089551855425815349170000015147926012845628326_);}
	.st35{fill:#112129;}
</style>
<g id="OBJECTS">
	<g>
		
			<linearGradient id="SVGID_1_" gradientUnits="userSpaceOnUse" x1="387.9224" y1="114.5399" x2="404.1024" y2="358.8499" gradientTransform="matrix(1 0 0 -1 0 502)">
			<stop  offset="0" style="stop-color:#31D1D6"/>
			<stop  offset="0.37" style="stop-color:#32CED8"/>
			<stop  offset="0.62" style="stop-color:#35C5DE"/>
			<stop  offset="0.82" style="stop-color:#3CB6EA"/>
			<stop  offset="1" style="stop-color:#45A3FA"/>
		</linearGradient>
		<path class="st0" d="M204.2,373.5h-51.5c-13.8-14.3-17.5-37.1-9.2-55.2c7.8-17.2,24.7-28.6,34.9-44.6
			c21.8-34,11.2-84.8,40.8-112.3c14.8-13.8,36.1-17.7,56.2-19.3s41-1.6,59.6-9.4c23-9.7,40.3-30.4,63.9-38.2
			c26.6-8.8,58.3,2.2,73.9,25.4c9.7,14.6,13.4,32.8,24.9,46.1c18.6,21.4,51.3,23,74.5,39.3c15.9,11.1,26.6,29.4,28.7,48.7
			c2.5,23.3-6.4,49.8,7.6,68.6c6.8,9.2,17.9,14.4,25.2,23.1c7.3,8.7,9.4,16.7,7.1,27.8H204.2z"/>
		
			<linearGradient id="SVGID_00000147900835895886066190000001091342641634687646_" gradientUnits="userSpaceOnUse" x1="401.0823" y1="114.5392" x2="417.2623" y2="358.8492" gradientTransform="matrix(1 0 0 -1 0 502)">
			<stop  offset="0" style="stop-color:#31D1D6"/>
			<stop  offset="0.37" style="stop-color:#32CED8"/>
			<stop  offset="0.62" style="stop-color:#35C5DE"/>
			<stop  offset="0.82" style="stop-color:#3CB6EA"/>
			<stop  offset="1" style="stop-color:#45A3FA"/>
		</linearGradient>
		<path style="opacity:0.37;fill:url(#SVGID_00000147900835895886066190000001091342641634687646_);enable-background:new    ;" d="
			M217.3,373.5h-51.5c-13.8-14.3-17.5-37.1-9.2-55.2c7.8-17.2,24.7-28.6,34.9-44.6c21.8-34,11.2-84.8,40.8-112.3
			c14.8-13.8,36.1-17.7,56.2-19.3s41-1.6,59.6-9.4c23-9.7,40.3-30.4,63.9-38.2c26.6-8.8,58.3,2.2,73.9,25.4
			c9.7,14.6,13.4,32.8,24.9,46.1c18.6,21.4,51.3,23,74.5,39.3c15.9,11.1,26.6,29.4,28.7,48.7c2.5,23.3-6.4,49.8,7.6,68.6
			c6.8,9.2,17.9,14.4,25.2,23.1c7.3,8.7,9.4,16.7,7.1,27.8H217.3z"/>
	</g>
	
		<linearGradient id="SVGID_00000052104724872319872410000006303371046521400450_" gradientUnits="userSpaceOnUse" x1="238.6731" y1="304.03" x2="238.6731" y2="346.64" gradientTransform="matrix(1 0 0 -1 0 502)">
		<stop  offset="0" style="stop-color:#F9E6D9"/>
		<stop  offset="0.12" style="stop-color:#FBF1EA"/>
		<stop  offset="0.27" style="stop-color:#FDF9F6"/>
		<stop  offset="0.48" style="stop-color:#FEFDFD"/>
		<stop  offset="1" style="stop-color:#FFFFFF"/>
	</linearGradient>
	<path style="fill:url(#SVGID_00000052104724872319872410000006303371046521400450_);" d="M335.8,197.2l-2.1,0.1H142.2l-0.5,0.1
		c-1.9-12.7,8-25.6,20.6-29c10.9-3,23.7-0.3,32.9-7c8.2-6,10.2-17.2,15.6-25.8c3.3-5.4,8.1-9.8,13.7-12.8c7-3.8,15.7-5.1,22.9-1.7
		c12.7,6,15.1,22.8,23.6,34c1.9,2.5,4.3,4.8,7.3,5.7c2.8,0.8,5.8,0.2,8.6-0.3c9.4-1.6,20.6-1.5,26.4,6c2.7,3.5,3.7,8.1,5.2,12.3
		c1.5,4.2,4,8.5,8.2,10c2,0.7,4.3,0.7,6.1,1.9C335,191.9,335.7,194.5,335.8,197.2L335.8,197.2z"/>
	
		<linearGradient id="SVGID_00000044179532433062921770000004764971272369519236_" gradientUnits="userSpaceOnUse" x1="530.7712" y1="274.1199" x2="533.4711" y2="315.6499" gradientTransform="matrix(1 0 0 -1 0 502)">
		<stop  offset="0" style="stop-color:#F9E6D9"/>
		<stop  offset="0.12" style="stop-color:#FBF1EA"/>
		<stop  offset="0.27" style="stop-color:#FDF9F6"/>
		<stop  offset="0.48" style="stop-color:#FEFDFD"/>
		<stop  offset="1" style="stop-color:#FFFFFF"/>
	</linearGradient>
	<path style="fill:url(#SVGID_00000044179532433062921770000004764971272369519236_);" d="M643.8,221.3H420.5c-1.8-2.3-2-6-0.7-8.7
		c1.6-3.6,5.1-6.1,8.5-8.2c3.4-2.1,7.1-4,9.6-7c4.9-5.9,4.6-14.3,5.7-21.9c1.3-9,5.1-17.9,11.9-24c2.7-2.4,5.8-4.3,9.1-5.8
		c9.4-4.4,20.9-5.4,29.7,0c8.4,5.2,12.5,15.2,19.7,21.9c1.7,1.6,3.7,3,6,3.5c6.5,1.5,12.1-4.4,17-9c7-6.5,16.3-11.3,25.7-10.1
		c11.1,1.4,19.7,11,23.9,21.3c1.8,4.3,3.1,9.1,6.6,12.2c9,7.9,24.1-0.9,34.6,4.8c3.9,2.1,6.6,6.1,8.7,10
		C640,206.8,642.5,214,643.8,221.3L643.8,221.3z"/>
	<g>
		
			<linearGradient id="SVGID_00000111187374952703045480000004020325754175692191_" gradientUnits="userSpaceOnUse" x1="218.26" y1="201.485" x2="331.39" y2="201.485" gradientTransform="matrix(1 0 0 -1 0 502)">
			<stop  offset="0" style="stop-color:#31D1D6"/>
			<stop  offset="0.37" style="stop-color:#32CED8"/>
			<stop  offset="0.62" style="stop-color:#35C5DE"/>
			<stop  offset="0.82" style="stop-color:#3CB6EA"/>
			<stop  offset="1" style="stop-color:#45A3FA"/>
		</linearGradient>
		<path style="fill:url(#SVGID_00000111187374952703045480000004020325754175692191_);" d="M331.4,345.2h-16.1v28.2h-38.9v-28.2
			h-58.2v-28.9l60.7-88.7h36.4v88.2h16.1V345.2z M276.4,315.8v-17c0-3.2,0.1-7.5,0.4-12.9s0.4-8.3,0.5-8.5h-1.1
			c-2.3,5.1-4.8,9.9-7.7,14.4l-16.2,24H276.4z"/>
		
			<linearGradient id="SVGID_00000026146523652735653840000001133214319597942438_" gradientUnits="userSpaceOnUse" x1="265.2366" y1="118.9501" x2="264.1566" y2="173.9601" gradientTransform="matrix(1 0 0 -1 0 502)">
			<stop  offset="0" style="stop-color:#F9E6D9"/>
			<stop  offset="0.12" style="stop-color:#FBF1EA"/>
			<stop  offset="0.27" style="stop-color:#FDF9F6"/>
			<stop  offset="0.48" style="stop-color:#FEFDFD"/>
			<stop  offset="1" style="stop-color:#FFFFFF"/>
		</linearGradient>
		<path style="fill:url(#SVGID_00000026146523652735653840000001133214319597942438_);" d="M320.8,345.2h-16.1v28.2h-38.9v-28.2
			h-58.2v-28.9l60.7-88.7h36.4v88.2h16.1V345.2z M265.8,315.8v-17c0-3.2,0.1-7.5,0.4-12.9s0.4-8.3,0.5-8.5h-1.1
			c-2.3,5.1-4.8,9.9-7.7,14.4l-16.2,24H265.8z"/>
	</g>
	<g>
		<path class="st6" d="M585.3,346.2l-5.6-28.9l-10.4,2l-5.3,1l-16.7-86.6l-35.8,6.9l-42.7,98.6l5.5,28.4l57.1-11l3.2,16.8h39.6
			l-4.7-24.2l5.3-1L585.3,346.2L585.3,346.2z M515.3,329.8l-13.2,2.5l9.4-22.2l1.9-4.5c2-4.9,3.6-10.1,4.8-15.6l1.1-0.2
			c-0.1,0.3,0.3,3.1,1.1,8.5c0.8,5.4,1.5,9.6,2.1,12.8l3.2,16.6L515.3,329.8z"/>
		
			<linearGradient id="SVGID_00000113351965199481637230000005616680580264682411_" gradientUnits="userSpaceOnUse" x1="517.2299" y1="123.89" x2="516.15" y2="178.9" gradientTransform="matrix(1 0 0 -1 0 502)">
			<stop  offset="0" style="stop-color:#F9E6D9"/>
			<stop  offset="0.12" style="stop-color:#FBF1EA"/>
			<stop  offset="0.27" style="stop-color:#FDF9F6"/>
			<stop  offset="0.48" style="stop-color:#FEFDFD"/>
			<stop  offset="1" style="stop-color:#FFFFFF"/>
		</linearGradient>
		<path style="fill:url(#SVGID_00000113351965199481637230000005616680580264682411_);" d="M574.9,348.2l-5.6-28.9l-15.8,3
			l-16.8-86.6l-25.3,4.9l-10.4,2l-42.7,98.6l5.5,28.4l10.4-2l46.7-9l2.9,14.8h39.6l-4.3-22.2l10.4-2L574.9,348.2L574.9,348.2z
			 M511.5,310.1c0.2,1.1,0.4,2.1,0.5,3l3.2,16.6l-23.6,4.6l11.3-26.7c2-4.9,3.6-10.1,4.8-15.6l1.1-0.2c-0.1,0.3,0.3,3.1,1.1,8.5
			C510.5,304.2,511.1,307.4,511.5,310.1L511.5,310.1z"/>
	</g>
	<g>
		<g>
			
				<linearGradient id="SVGID_00000031183084144983330160000012780947483465991833_" gradientUnits="userSpaceOnUse" x1="290.2598" y1="270.9509" x2="322.2598" y2="279.2209" gradientTransform="matrix(1 0 0 -1 0 502)">
				<stop  offset="0" style="stop-color:#31D1D6"/>
				<stop  offset="0.37" style="stop-color:#32CED8"/>
				<stop  offset="0.62" style="stop-color:#35C5DE"/>
				<stop  offset="0.82" style="stop-color:#3CB6EA"/>
				<stop  offset="1" style="stop-color:#45A3FA"/>
			</linearGradient>
			<path style="fill:url(#SVGID_00000031183084144983330160000012780947483465991833_);" d="M336.8,299.5h-23.8L298,189
				c0,0-21.8-23.8-46.8-28.3l23.8-2.6l53.7,1.5L336.8,299.5L336.8,299.5z"/>
			<path class="st9" d="M243.1,238.7c0,0-13.5,19.8-7.5,36.7l25.1-36.7l-3.3-4.4L243.1,238.7L243.1,238.7z"/>
			<path class="st9" d="M313.1,299.5l-0.8,5.1c0,0-7.2,1-7.6,11.2h18.6l10.1-9.9l0.9-6.5H313.1L313.1,299.5z"/>
			
				<linearGradient id="SVGID_00000013910995611399939160000008226899379680597645_" gradientUnits="userSpaceOnUse" x1="226.7345" y1="301.345" x2="297.97" y2="301.345" gradientTransform="matrix(1 0 0 -1 0 502)">
				<stop  offset="0" style="stop-color:#31D1D6"/>
				<stop  offset="0.37" style="stop-color:#32CED8"/>
				<stop  offset="0.62" style="stop-color:#35C5DE"/>
				<stop  offset="0.82" style="stop-color:#3CB6EA"/>
				<stop  offset="1" style="stop-color:#45A3FA"/>
			</linearGradient>
			<path style="fill:url(#SVGID_00000013910995611399939160000008226899379680597645_);" d="M284.3,188.9l-29.8-1.1l4.8,45.6
				l-20.2,7.2l-11.6-56.3c-3.4-10.5,3.7-21.5,14.7-22.6l8.9-1h0c25,4.5,46.8,28.3,46.8,28.3L284.3,188.9L284.3,188.9z"/>
		</g>
		<g>
			
				<linearGradient id="SVGID_00000158011190456022895880000007604947322706990264_" gradientUnits="userSpaceOnUse" x1="177.14" y1="443.025" x2="229.52" y2="443.025" gradientTransform="matrix(1 0 0 -1 0 502)">
				<stop  offset="0" style="stop-color:#51ADC6"/>
				<stop  offset="0" style="stop-color:#54AEC4"/>
				<stop  offset="7.000000e-02" style="stop-color:#74BEB4"/>
				<stop  offset="0.13" style="stop-color:#8ECCA7"/>
				<stop  offset="0.21" style="stop-color:#A4D79C"/>
				<stop  offset="0.3" style="stop-color:#B5E094"/>
				<stop  offset="0.41" style="stop-color:#C1E68E"/>
				<stop  offset="0.57" style="stop-color:#C8EA8A"/>
				<stop  offset="1" style="stop-color:#CAEB8A"/>
			</linearGradient>
			<path style="fill:url(#SVGID_00000158011190456022895880000007604947322706990264_);" d="M229.5,61.7V63l-1.6,0.2
				c-0.4-0.9-0.9-1.6-1.3-2c-2.1-1.9-3.6-3.3-5.2-2.4c-1.2,0.7-1.1,3.9-1,5.4l-4.4,0.6l-38.9,4.9l0-0.1c2.5-0.6,4.5-5.1,4.5-10.6
				s-1.9-9.9-4.4-10.6l52.3,5.9L229.5,61.7L229.5,61.7z"/>
			
				<linearGradient id="SVGID_00000050657717835194306220000011339825090496767160_" gradientUnits="userSpaceOnUse" x1="180.05" y1="449.075" x2="171.58" y2="449.075" gradientTransform="matrix(1 0 0 -1 0 502)">
				<stop  offset="0" style="stop-color:#8AEBD6"/>
				<stop  offset="0.46" style="stop-color:#88E9D6"/>
				<stop  offset="0.63" style="stop-color:#84E2D9"/>
				<stop  offset="0.75" style="stop-color:#7CD6DE"/>
				<stop  offset="0.84" style="stop-color:#71C5E5"/>
				<stop  offset="0.92" style="stop-color:#63AFEE"/>
				<stop  offset="0.99" style="stop-color:#5295F9"/>
				<stop  offset="1" style="stop-color:#5193FA"/>
			</linearGradient>
			<path style="fill:url(#SVGID_00000050657717835194306220000011339825090496767160_);" d="M180.1,51.2c-0.1,0.2-0.2,0.3-0.3,0.5
				c-0.6,1.1-0.8,2.3-1.5,3.3c-0.5,0.7-1.2,1.3-2.1,1.6c-0.9,0.3-1.8,0.4-2.8,0.5c-0.6,0.1-1.3,0.2-1.8,0.5c0.3-5.2,2.3-9.2,4.9-9.4
				l0.8,0.1C178.3,48.6,179.3,49.7,180.1,51.2z"/>
			
				<linearGradient id="SVGID_00000140726564237014651490000012806438080807188352_" gradientUnits="userSpaceOnUse" x1="181.6" y1="444.02" x2="171.53" y2="444.02" gradientTransform="matrix(1 0 0 -1 0 502)">
				<stop  offset="0" style="stop-color:#31D1D6"/>
				<stop  offset="0.37" style="stop-color:#32CED8"/>
				<stop  offset="0.62" style="stop-color:#35C5DE"/>
				<stop  offset="0.82" style="stop-color:#3CB6EA"/>
				<stop  offset="1" style="stop-color:#45A3FA"/>
			</linearGradient>
			<path style="fill:url(#SVGID_00000140726564237014651490000012806438080807188352_);" d="M181.6,58.1
				C181.6,58.1,181.6,58.1,181.6,58.1c-0.7,0.9-1,2-1.6,2.9c-0.7,1-1.8,1.8-3,2.1c-1.1,0.2-2.3,0.1-3.4,0.6
				c-0.5,0.3-0.9,0.7-1.3,1.2c-0.5-1.7-0.8-3.7-0.8-5.9c0-0.5,0-0.9,0.1-1.3c0.6-0.3,1.2-0.4,1.8-0.5c0.9-0.1,1.9-0.2,2.8-0.5
				c0.8-0.3,1.6-0.9,2.1-1.6c0.7-1,1-2.2,1.5-3.3c0.1-0.2,0.2-0.3,0.3-0.5C180.9,52.9,181.5,55.3,181.6,58.1L181.6,58.1z"/>
			
				<linearGradient id="SVGID_00000022558013094739530590000011755474988221952909_" gradientUnits="userSpaceOnUse" x1="181.62" y1="438.155" x2="172.36" y2="438.155" gradientTransform="matrix(1 0 0 -1 0 502)">
				<stop  offset="0" style="stop-color:#8AEBD6"/>
				<stop  offset="0.46" style="stop-color:#88E9D6"/>
				<stop  offset="0.63" style="stop-color:#84E2D9"/>
				<stop  offset="0.75" style="stop-color:#7CD6DE"/>
				<stop  offset="0.84" style="stop-color:#71C5E5"/>
				<stop  offset="0.92" style="stop-color:#63AFEE"/>
				<stop  offset="0.99" style="stop-color:#5295F9"/>
				<stop  offset="1" style="stop-color:#5193FA"/>
			</linearGradient>
			<path style="fill:url(#SVGID_00000022558013094739530590000011755474988221952909_);" d="M181.6,58.9c0,5.5-2,10-4.5,10.6
				c-0.2,0.1-0.4,0.1-0.6,0.1c-1.8,0-3.3-1.9-4.2-4.8c0.3-0.5,0.7-0.9,1.3-1.2c1-0.5,2.2-0.4,3.4-0.6c1.2-0.3,2.3-1,3-2.1
				c0.6-0.9,0.9-2,1.5-2.8c0,0,0,0,0.1,0C181.6,58.4,181.6,58.7,181.6,58.9L181.6,58.9z"/>
			<path class="st9" d="M260.3,56.3H276c-1.6,0.7-3,1.4-3.7,2c-0.5,0.5-0.3,1.3,0.3,2.4h-12.4L260.3,56.3L260.3,56.3z"/>
			<path class="st9" d="M295.2,59v1.7h-8.5c-0.8-1.9-1.4-3.5-1.6-4.4h10.2C295.2,56.3,295.2,59,295.2,59z"/>
			
				<linearGradient id="SVGID_00000118391369413147326720000001484215469425141158_" gradientUnits="userSpaceOnUse" x1="229.51" y1="443.535" x2="260.31" y2="443.535" gradientTransform="matrix(1 0 0 -1 0 502)">
				<stop  offset="0" style="stop-color:#31D1D6"/>
				<stop  offset="0.37" style="stop-color:#32CED8"/>
				<stop  offset="0.62" style="stop-color:#35C5DE"/>
				<stop  offset="0.82" style="stop-color:#3CB6EA"/>
				<stop  offset="1" style="stop-color:#45A3FA"/>
			</linearGradient>
			<polygon style="fill:url(#SVGID_00000118391369413147326720000001484215469425141158_);" points="260.3,60.7 260.3,61.7 
				229.5,61.7 229.5,55.3 260.3,55.3 260.3,56.3 			"/>
			
				<linearGradient id="SVGID_00000012455948775399648100000008654785131072200591_" gradientUnits="userSpaceOnUse" x1="216.0403" y1="433.899" x2="230.73" y2="433.899" gradientTransform="matrix(1 0 0 -1 0 502)">
				<stop  offset="0" style="stop-color:#F7BE86"/>
				<stop  offset="0.33" style="stop-color:#F7BC83"/>
				<stop  offset="0.54" style="stop-color:#F7B67A"/>
				<stop  offset="0.73" style="stop-color:#F7AC6B"/>
				<stop  offset="0.89" style="stop-color:#F79E56"/>
				<stop  offset="1" style="stop-color:#F79244"/>
			</linearGradient>
			<path style="fill:url(#SVGID_00000012455948775399648100000008654785131072200591_);" d="M230.7,72.5l-6.8,5.2
				c0,0-8.2-8.6-7.9-13l4.4-0.6c-0.1-1.5-0.2-4.7,1-5.4c1.5-0.9,3,0.6,5.2,2.4c0.4,0.4,0.9,1.1,1.3,2
				C229.5,66.6,230.7,72.5,230.7,72.5L230.7,72.5z"/>
			<path class="st17" d="M185.1,48.4c-0.4-1-1.9-0.1-1.5,0.8c2.8,6.1,2.4,12.8-0.9,18.6c-0.5,0.9,0.9,1.8,1.5,0.8
				C187.8,62.3,188.1,55,185.1,48.4L185.1,48.4z"/>
		</g>
		<g>
			
				<linearGradient id="SVGID_00000075860172694321203820000006707262904534533800_" gradientUnits="userSpaceOnUse" x1="302.7987" y1="422.67" x2="302.3087" y2="405.01" gradientTransform="matrix(1 0 0 -1 0 502)">
				<stop  offset="0" style="stop-color:#7B6ED6"/>
				<stop  offset="0.48" style="stop-color:#796CD4"/>
				<stop  offset="0.65" style="stop-color:#7268D0"/>
				<stop  offset="0.78" style="stop-color:#6660C8"/>
				<stop  offset="0.88" style="stop-color:#5555BE"/>
				<stop  offset="0.96" style="stop-color:#3F46B0"/>
				<stop  offset="1" style="stop-color:#333EA8"/>
			</linearGradient>
			<polygon style="fill:url(#SVGID_00000075860172694321203820000006707262904534533800_);" points="305.9,79.3 305.9,84.6 
				299.6,78.7 			"/>
			
				<linearGradient id="SVGID_00000117659180040630210130000006470667326942900630_" gradientUnits="userSpaceOnUse" x1="314.691" y1="422.4406" x2="313.391" y2="381.4306" gradientTransform="matrix(1 0 0 -1 0 502)">
				<stop  offset="0" style="stop-color:#7B6ED6"/>
				<stop  offset="0.48" style="stop-color:#796CD4"/>
				<stop  offset="0.65" style="stop-color:#7268D0"/>
				<stop  offset="0.78" style="stop-color:#6660C8"/>
				<stop  offset="0.88" style="stop-color:#5555BE"/>
				<stop  offset="0.96" style="stop-color:#3F46B0"/>
				<stop  offset="1" style="stop-color:#333EA8"/>
			</linearGradient>
			<path style="fill:url(#SVGID_00000117659180040630210130000006470667326942900630_);" d="M305.9,84.6l6.3,5.9l6,5.7
				c0,0,13.8-9.7,19.1-9.7c0.4,0,0.7,0,1.1,0.1c4.7,0.7,7.6,6.1,6.8,11.3c-0.9,5.6-0.7,11.9-6.2,12.9c-5.4,1-29.3,6.8-29.3,6.8
				l-26.2-35.5l3.1-2.2l6.9-4.8l1.4-1l3,2.8l1.8,1.7L305.9,84.6L305.9,84.6z"/>
			
				<linearGradient id="SVGID_00000051362612405151082610000001306621186541069467_" gradientUnits="userSpaceOnUse" x1="325.5182" y1="422.05" x2="325.0282" y2="404.38" gradientTransform="matrix(1 0 0 -1 0 502)">
				<stop  offset="0" style="stop-color:#7B6ED6"/>
				<stop  offset="0.48" style="stop-color:#796CD4"/>
				<stop  offset="0.65" style="stop-color:#7268D0"/>
				<stop  offset="0.78" style="stop-color:#6660C8"/>
				<stop  offset="0.88" style="stop-color:#5555BE"/>
				<stop  offset="0.96" style="stop-color:#3F46B0"/>
				<stop  offset="1" style="stop-color:#333EA8"/>
			</linearGradient>
			<path style="fill:url(#SVGID_00000051362612405151082610000001306621186541069467_);" d="M322.8,80.4l15.6,6.1
				c-0.4-0.1-0.7-0.1-1.1-0.1c-5.4,0.1-19.1,9.7-19.1,9.7l-6-5.7L322.8,80.4z"/>
			
				<linearGradient id="SVGID_00000112633841577077939640000016571258120914689460_" gradientUnits="userSpaceOnUse" x1="221" y1="384.8146" x2="339.01" y2="384.8146" gradientTransform="matrix(1 0 0 -1 0 502)">
				<stop  offset="0" style="stop-color:#7B6ED6"/>
				<stop  offset="0.48" style="stop-color:#796CD4"/>
				<stop  offset="0.65" style="stop-color:#7268D0"/>
				<stop  offset="0.78" style="stop-color:#6660C8"/>
				<stop  offset="0.88" style="stop-color:#5555BE"/>
				<stop  offset="0.96" style="stop-color:#3F46B0"/>
				<stop  offset="1" style="stop-color:#333EA8"/>
			</linearGradient>
			<path style="fill:url(#SVGID_00000112633841577077939640000016571258120914689460_);" d="M339,110.8l-9.1,24.7l-1.2,24.1
				c0,0-1.1,0.2-2.9,0.4c-8.7,1.2-34.6,4.2-50.8-1.9l6.3-29.9l-2.9-23.6l-35.2,3.9L221,79.9l2.9-2.2l6.8-5.2l20.9,20.4l32.7-14.3
				c1.2,0.9,2.2,1.3,2.2,1.3l-3.1,2.2l26.2,35.5C309.7,117.6,333.6,111.8,339,110.8L339,110.8z"/>
			
				<linearGradient id="SVGID_00000076596853946434135120000012314124409577728385_" gradientUnits="userSpaceOnUse" x1="272.0938" y1="434.6186" x2="293.4601" y2="434.6186" gradientTransform="matrix(1 0 0 -1 0 502)">
				<stop  offset="0" style="stop-color:#F7BE86"/>
				<stop  offset="0.33" style="stop-color:#F7BC83"/>
				<stop  offset="0.54" style="stop-color:#F7B67A"/>
				<stop  offset="0.73" style="stop-color:#F7AC6B"/>
				<stop  offset="0.89" style="stop-color:#F79E56"/>
				<stop  offset="1" style="stop-color:#F79244"/>
			</linearGradient>
			<path style="fill:url(#SVGID_00000076596853946434135120000012314124409577728385_);" d="M293.5,75.1l-6.9,4.8c0,0-1-0.4-2.2-1.3
				c-1.5-1.1-3.4-2.9-3.6-5.5c-0.3-3.5-6.1-9.1-8-12.5c-0.6-1.1-0.8-1.9-0.3-2.4c0.6-0.6,2-1.3,3.7-2c3.6-1.4,8.5-2.4,8.9-0.2
				c0,0,0,0.1,0,0.2c0.2,0.9,0.8,2.5,1.6,4.4C289.1,66.5,293.5,75.1,293.5,75.1L293.5,75.1z"/>
			
				<linearGradient id="SVGID_00000180358130163368828130000003552755435411499187_" gradientUnits="userSpaceOnUse" x1="283.5" y1="393.195" x2="339.02" y2="393.195" gradientTransform="matrix(1 0 0 -1 0 502)">
				<stop  offset="0" style="stop-color:#3C0887"/>
				<stop  offset="0.32" style="stop-color:#3E0987"/>
				<stop  offset="0.53" style="stop-color:#470D87"/>
				<stop  offset="0.71" style="stop-color:#561488"/>
				<stop  offset="0.87" style="stop-color:#6B1F89"/>
				<stop  offset="1" style="stop-color:#822A8A"/>
			</linearGradient>
			
				<path style="opacity:0.38;fill:url(#SVGID_00000180358130163368828130000003552755435411499187_);enable-background:new    ;" d="
				M329.9,135.5c-40-8.5-46.4-53.4-46.4-53.4l26.2,35.5l29.3-6.8L329.9,135.5L329.9,135.5z"/>
		</g>
		<g>
			
				<linearGradient id="SVGID_00000008866836308175749970000007759566654632709300_" gradientUnits="userSpaceOnUse" x1="296.64" y1="430.07" x2="324.697" y2="430.07" gradientTransform="matrix(1 0 0 -1 0 502)">
				<stop  offset="0" style="stop-color:#F7BE86"/>
				<stop  offset="0.33" style="stop-color:#F7BC83"/>
				<stop  offset="0.54" style="stop-color:#F7B67A"/>
				<stop  offset="0.73" style="stop-color:#F7AC6B"/>
				<stop  offset="0.89" style="stop-color:#F79E56"/>
				<stop  offset="1" style="stop-color:#F79244"/>
			</linearGradient>
			<path style="fill:url(#SVGID_00000008866836308175749970000007759566654632709300_);" d="M322.5,58.6c0.9-0.2,1.7-0.1,2,1.3
				c0.8,3.1-2.7,6.8-2.7,6.8l0.9,13.7l-10.6,10.1l4.1-11.9l-10.5,0.7l-6.3-0.7l-1.8-1.7c0,0-1.2-11.4-1.2-18.1
				c0-1.5,0.1-2.8,0.2-3.7l0-0.3c7.3,1.2,17.5-1.6,17.5-1.6s1.4,13.9,3.4,14.1c2,0.2,2.5-7.5,2.5-7.5S321.4,58.9,322.5,58.6
				L322.5,58.6z"/>
			<path class="st9" d="M322.6,48.5l-0.1,10.1c-1.1,0.3-2.2,1.3-2.2,1.3s-0.6,7.8-2.5,7.5c-2-0.2-3.4-14.1-3.4-14.1
				s-10.2,2.9-17.5,1.6l0,0c-2.3-0.4-4.3-1.2-5.6-2.6c-5.6-5.9-3.6-9.2,4.4-7.4S320.3,37.1,322.6,48.5L322.6,48.5z"/>
			<polygon class="st25" points="316.3,78.7 312.2,90.5 305.9,84.6 305.9,79.3 			"/>
			<path class="st9" d="M296.2,56.8c1.6-0.8,3.3-0.9,5-0.3c1,0.4,0.2,1.9-0.8,1.5c-1.1-0.4-2.3-0.3-3.3,0.2
				C296.2,58.7,295.2,57.3,296.2,56.8L296.2,56.8z"/>
			
				<ellipse transform="matrix(0.9986 -5.216166e-02 5.216166e-02 0.9986 -2.7499 16.3452)" class="st9" cx="311.8" cy="60.9" rx="1.2" ry="1.8"/>
			<path class="st9" d="M313.9,56.4c-1.7-0.6-3.4-0.6-5,0.2c-1,0.5-0.1,1.9,0.9,1.4c1-0.5,2.2-0.5,3.3-0.1
				C314.2,58.3,315,56.8,313.9,56.4L313.9,56.4z"/>
			<path class="st25" d="M302,66.5c0.5-2.6,1.9-5.2,2.8-7.7c0.2-0.5,1-0.1,0.8,0.4c-0.6,1.6-1.1,3.1-1.7,4.7c-0.2,0.5-0.7,1.4-0.7,2
				c-0.2,1.9,0.7,1.8,1.7,2.3c0.5,0.2,0.1,1-0.4,0.8C303.2,68.3,301.7,68.2,302,66.5L302,66.5z"/>
			<path class="st9" d="M301.1,61c-0.8-0.6-1.7-1.1-2.7-1.2c-0.6-0.1-0.9,0.9-0.2,1c0.5,0.1,1,0.2,1.5,0.4c-0.5,0.2-1.1,0.3-1.6,0.5
				c-0.6,0.2-0.4,1.2,0.3,1c0.9-0.3,1.8-0.6,2.6-0.9C301.2,61.8,301.4,61.3,301.1,61L301.1,61z"/>
			<ellipse class="st26" cx="305.2" cy="74.1" rx="2.2" ry="3.2"/>
		</g>
	</g>
	<g>
		
			<linearGradient id="SVGID_00000175296398794583242590000012220402498170799751_" gradientUnits="userSpaceOnUse" x1="406.5016" y1="50.11" x2="407.5816" y2="124.54" gradientTransform="matrix(1 0 0 -1 0 502)">
			<stop  offset="0" style="stop-color:#8AEBD6"/>
			<stop  offset="0.46" style="stop-color:#88E9D6"/>
			<stop  offset="0.63" style="stop-color:#84E2D9"/>
			<stop  offset="0.75" style="stop-color:#7CD6DE"/>
			<stop  offset="0.84" style="stop-color:#71C5E5"/>
			<stop  offset="0.92" style="stop-color:#63AFEE"/>
			<stop  offset="0.99" style="stop-color:#5295F9"/>
			<stop  offset="1" style="stop-color:#5193FA"/>
		</linearGradient>
		<path style="opacity:0.5;fill:url(#SVGID_00000175296398794583242590000012220402498170799751_);enable-background:new    ;" d="
			M611.8,373.5H210.5c0,0-21.6,14.3,10.5,16.8s82.2,4.7,80.9,15.6s-30.2,8.8-30.2,28s133.7,14.8,133.7,14.8s75.5,1,86.3-11.8
			s-30.5-24.5-23-29.5s61.8,10.1,69.9-2.2s-1.6-20,13.3-21.6S609.2,388,611.8,373.5L611.8,373.5z"/>
		
			<linearGradient id="SVGID_00000078021081377509050430000011166802306347902852_" gradientUnits="userSpaceOnUse" x1="581.42" y1="54.89" x2="581.42" y2="120.42" gradientTransform="matrix(1 0 0 -1 0 502)">
			<stop  offset="0" style="stop-color:#8AEBD6"/>
			<stop  offset="0.46" style="stop-color:#88E9D6"/>
			<stop  offset="0.63" style="stop-color:#84E2D9"/>
			<stop  offset="0.75" style="stop-color:#7CD6DE"/>
			<stop  offset="0.84" style="stop-color:#71C5E5"/>
			<stop  offset="0.92" style="stop-color:#63AFEE"/>
			<stop  offset="0.99" style="stop-color:#5295F9"/>
			<stop  offset="1" style="stop-color:#5193FA"/>
		</linearGradient>
		
			<ellipse style="fill:url(#SVGID_00000078021081377509050430000011166802306347902852_);" cx="581.4" cy="398.8" rx="30.3" ry="8.6"/>
		
			<linearGradient id="SVGID_00000084507615826428264540000005834216961187230910_" gradientUnits="userSpaceOnUse" x1="258.4" y1="54.89" x2="258.4" y2="120.42" gradientTransform="matrix(1 0 0 -1 0 502)">
			<stop  offset="0" style="stop-color:#8AEBD6"/>
			<stop  offset="0.46" style="stop-color:#88E9D6"/>
			<stop  offset="0.63" style="stop-color:#84E2D9"/>
			<stop  offset="0.75" style="stop-color:#7CD6DE"/>
			<stop  offset="0.84" style="stop-color:#71C5E5"/>
			<stop  offset="0.92" style="stop-color:#63AFEE"/>
			<stop  offset="0.99" style="stop-color:#5295F9"/>
			<stop  offset="1" style="stop-color:#5193FA"/>
		</linearGradient>
		
			<ellipse style="fill:url(#SVGID_00000084507615826428264540000005834216961187230910_);" cx="258.4" cy="406.3" rx="26.5" ry="6.6"/>
		<ellipse class="st30" cx="410.4" cy="431.9" rx="30.1" ry="5.8"/>
	</g>
	<g>
		<g>
			
				<linearGradient id="SVGID_00000111171982891486526930000017543177569401367472_" gradientUnits="userSpaceOnUse" x1="406.838" y1="299.3973" x2="512.1907" y2="299.3973" gradientTransform="matrix(0.9798 0.2002 0.2002 -0.9798 -106.2522 527.7228)">
				<stop  offset="0" style="stop-color:#31D1D6"/>
				<stop  offset="0.37" style="stop-color:#32CED8"/>
				<stop  offset="0.62" style="stop-color:#35C5DE"/>
				<stop  offset="0.82" style="stop-color:#3CB6EA"/>
				<stop  offset="1" style="stop-color:#45A3FA"/>
			</linearGradient>
			<path style="fill:url(#SVGID_00000111171982891486526930000017543177569401367472_);" d="M450.2,296.3
				c-6.2-14.1-17.8-22.9-34.8-26.4c-1.9-0.4-3.7-0.7-5.4-0.9c-15-1.9-27.4,1.7-37.1,10.7C362,289.9,354,307.6,348.8,333
				c-3.2,15.6-4.1,29-2.7,40.4h37.2c-0.5-6.6,0.8-17.5,3.9-32.6c3.3-16.3,6.6-27.3,9.9-33c1.9-3.3,4-5.5,6.5-6.6
				c1.7-0.8,3.6-1,5.6-0.5c4.8,1,7.5,4.9,8.2,11.6c0.7,6.8-0.5,18.1-3.8,33.9c-2.4,11.9-4.9,20.9-7.3,27.2H447
				c1.9-5.9,3.5-12.3,5-19.3c1-4.6,1.7-9.1,2.2-13.4C456.6,322.5,455.2,307.7,450.2,296.3L450.2,296.3z"/>
			
				<linearGradient id="SVGID_00000111913042640259219580000001410701828907435448_" gradientUnits="userSpaceOnUse" x1="390.7701" y1="121.41" x2="389.6902" y2="176.42" gradientTransform="matrix(1 0 0 -1 0 502)">
				<stop  offset="0" style="stop-color:#F9E6D9"/>
				<stop  offset="0.12" style="stop-color:#FBF1EA"/>
				<stop  offset="0.27" style="stop-color:#FDF9F6"/>
				<stop  offset="0.48" style="stop-color:#FEFDFD"/>
				<stop  offset="1" style="stop-color:#FFFFFF"/>
			</linearGradient>
			<path style="fill:url(#SVGID_00000111913042640259219580000001410701828907435448_);" d="M439.8,294.2
				c-5.5-12.7-15.5-21.1-29.8-25.2c-1.6-0.5-3.3-0.9-5-1.2c-17.5-3.6-31.6-0.3-42.5,9.8c-10.9,10.1-18.9,27.9-24.1,53.3
				c-1.1,5.2-1.9,10.1-2.4,14.8c-1.2,10.4-1.2,19.6,0,27.7h37.1c0-0.2-0.1-0.5-0.1-0.7c-0.8-6.5,0.5-17.8,3.8-34
				c3.3-16.3,6.6-27.3,9.9-33c3.3-5.7,7.3-8.1,12-7.1c2,0.4,3.6,1.3,4.8,2.6c1.9,2,3,5,3.4,9c0.7,6.8-0.5,18.1-3.8,33.9
				c-2.7,13.3-5.5,23-8.2,29.3h40.9c2.2-6.4,4-13.5,5.7-21.4C446.6,327.6,446,308.3,439.8,294.2L439.8,294.2z"/>
		</g>
		<polygon class="st33" points="468.2,198.9 467.9,199.1 441.8,219.4 425.5,232.1 411.9,269.7 408.1,268.3 422.1,229.6 465.7,195.7 
					"/>
		
			<linearGradient id="SVGID_00000000208190390439378380000016768860594609758885_" gradientUnits="userSpaceOnUse" x1="441.81" y1="256.715" x2="484.5118" y2="256.715" gradientTransform="matrix(1 0 0 -1 0 502)">
			<stop  offset="0" style="stop-color:#7B6ED6"/>
			<stop  offset="0.48" style="stop-color:#796CD4"/>
			<stop  offset="0.65" style="stop-color:#7268D0"/>
			<stop  offset="0.78" style="stop-color:#6660C8"/>
			<stop  offset="0.88" style="stop-color:#5555BE"/>
			<stop  offset="0.96" style="stop-color:#3F46B0"/>
			<stop  offset="1" style="stop-color:#333EA8"/>
		</linearGradient>
		<path style="fill:url(#SVGID_00000000208190390439378380000016768860594609758885_);" d="M480.7,283.2c-3,3.5-7,6-11,8.3l-0.3-0.5
			c1.6-2,3.2-4.4,2.8-6.9c-0.3-1.7-1.6-3.1-2.9-4.2c-2.2-1.9-4.6-3.6-6.7-5.6s-3.9-4.6-4.2-7.5c-0.4-3.8,1.6-7.4,2.4-11.1
			c0.3-1.5,0.4-3.1-0.2-4.5c-1.3-3.2-5.4-3.9-8.6-5.2c-2.9-1.2-5.6-3.3-6.4-6.3c-1.2-4.3,1.9-8.8,1.5-13.2c-0.3-3.1-2.5-5.9-5.4-7.1
			l26.1-20.3c4.4,3.8,8.2,8.9,8.3,14.7c0,3.7-1.5,7.2-2.5,10.7c-0.4,1.4-0.8,2.9-0.5,4.4c0.4,2.2,2.2,3.9,3.8,5.5
			c3.4,3.2,6.8,7.2,6.7,11.8c-0.1,5.2-4.5,9.9-3.8,15.1c0.5,3.3,3,6,4.1,9.1C485.4,274.8,483.7,279.7,480.7,283.2L480.7,283.2z"/>
	</g>
</g>
<g id="DESIGNED_BY_FREEPIK">
	<g>
		<g>
			<g>
				<path class="st35" d="M385.1,471.3c-0.4,0.4-0.8,0.9-1.1,1.5l-0.5-0.2c-0.1-0.3-0.4-0.5-0.7-0.5c-0.3,0-0.6,0.3-0.5,0.7
					c0,0.3,0.3,0.6,0.7,0.5c0.1,0,0.1,0,0.2,0l0.5,0.2c-0.2,0.5-0.4,1.1-0.5,1.7l0.8,0.1c0.2-1.3,0.9-2.5,1.8-3.5L385.1,471.3
					L385.1,471.3z"/>
				<path class="st35" d="M390.6,469c-0.2,0-0.3,0-0.5,0l-0.1-0.6c0.2-0.1,0.3-0.4,0.3-0.6c0-0.4-0.4-0.7-0.8-0.6
					c-0.4,0-0.7,0.4-0.6,0.8c0,0.2,0.2,0.5,0.4,0.6l0.1,0.6c-0.7,0.1-1.4,0.3-2.1,0.6l0.3,0.7c0.9-0.5,1.9-0.7,3-0.7
					c0.5,0,1,0,1.5,0.2l0.2-0.7C391.7,469.1,391.1,469,390.6,469L390.6,469z"/>
				<path class="st35" d="M397.2,471.6c0.3,0,0.6-0.3,0.5-0.7c0-0.3-0.3-0.6-0.7-0.5c-0.3,0-0.5,0.3-0.5,0.6l-0.4,0.4
					c-0.4-0.4-0.9-0.8-1.4-1.1l-0.4,0.6c1.1,0.7,2,1.7,2.6,2.9l0.7-0.3c-0.2-0.5-0.6-1.1-0.9-1.5l0.4-0.4
					C397.1,471.6,397.1,471.6,397.2,471.6L397.2,471.6z"/>
				<path class="st35" d="M390,479.2c-0.4,0-0.8,0-1.2,0c-0.9,0-1.7-0.1-2.5-0.2c-0.4-0.1-0.9-0.1-1.3-0.3c1,1.9,3.1,3.1,5.4,3.1
					c2.9,0,5.3-1.9,6-4.5c-0.7,0.5-1.5,0.8-2.5,1.1C392.8,478.9,391.5,479.1,390,479.2L390,479.2z"/>
				<path class="st35" d="M390.6,470.5c-3.4,0-6.1,2.7-6.1,5.9c0,0.4,0,0.9,0.1,1.3c0.7,0.5,2.7,0.9,5.4,0.7c2.9-0.2,5.3-1,6.7-2.2
					c0-0.2,0-0.4,0-0.6C396.2,472.8,393.7,470.5,390.6,470.5L390.6,470.5z M388.4,477.1c-1,0-1.9-0.8-1.9-1.9s0.8-1.9,1.9-1.9
					s1.9,0.8,1.9,1.9S389.5,477.1,388.4,477.1z M393.2,476.1c-0.8,0-1.4-0.6-1.4-1.4s0.6-1.4,1.4-1.4s1.4,0.6,1.4,1.4
					S393.9,476.1,393.2,476.1z"/>
			</g>
			<path class="st35" d="M406.6,472.4c-0.3-0.1-0.8-0.3-1.4-0.2c-0.5,0.1-0.8,0.3-0.8,1v0.9h2.2v1.7h-2.2v5.5h-1.9v-5.5h-1.3v-1.7
				h1.3v-0.9c0-1.7,0.9-2.8,2.6-2.8c0.6,0,1.2,0.1,1.6,0.3L406.6,472.4L406.6,472.4z"/>
			<path class="st35" d="M411.3,475.7c-0.2,0-0.4,0-0.5,0c-0.9,0-1.5,0.5-1.5,1.6v3.9h-1.9V474h1.9v0.8c0.5-0.7,1.1-1,2-1
				c0.4,0,0.9,0.1,1.1,0.3L411.3,475.7L411.3,475.7z"/>
			<path class="st35" d="M419,477.6c0,0.2,0,0.5,0,0.6h-5.1c0.2,1,0.9,1.5,1.8,1.5c0.6,0,1.3-0.2,1.8-0.7l1.1,1.2
				c-0.8,0.8-1.9,1.1-3.1,1.1c-2.2,0-3.7-1.5-3.7-3.8s1.5-3.8,3.6-3.8S419,475.4,419,477.6L419,477.6z M413.9,476.9h3.2
				c-0.2-0.9-0.7-1.4-1.6-1.4C414.6,475.5,414,476.1,413.9,476.9L413.9,476.9z"/>
			<path class="st35" d="M426.6,477.6c0,0.2,0,0.5,0,0.6h-5.1c0.2,1,0.9,1.5,1.8,1.5c0.6,0,1.3-0.2,1.8-0.7l1.1,1.2
				c-0.8,0.8-1.9,1.1-3.1,1.1c-2.2,0-3.7-1.5-3.7-3.8s1.5-3.8,3.6-3.8S426.6,475.4,426.6,477.6L426.6,477.6z M421.5,476.9h3.2
				c-0.2-0.9-0.7-1.4-1.6-1.4C422.2,475.5,421.7,476.1,421.5,476.9L421.5,476.9z"/>
			<path class="st35" d="M435,477.6c0,2.1-1.5,3.8-3.5,3.8c-1,0-1.6-0.4-2.1-0.9v3.7h-1.9V474h1.9v0.8c0.5-0.6,1.1-1,2.1-1
				C433.5,473.9,435,475.5,435,477.6L435,477.6z M429.3,477.6c0,1.1,0.8,2,1.8,2s1.9-0.9,1.9-2s-0.7-2-1.9-2
				S429.3,476.5,429.3,477.6z"/>
			<path class="st35" d="M438.1,471.7c0,0.7-0.5,1.2-1.2,1.2s-1.2-0.5-1.2-1.2s0.5-1.2,1.2-1.2S438.1,471,438.1,471.7z M437.8,481.2
				h-1.9V474h1.9V481.2z"/>
			<path class="st35" d="M441,476.6l2.7-2.5h2.4l-3.5,3.4l3.5,3.8h-2.4l-2.7-2.9v2.9h-1.9v-10.7h1.9L441,476.6L441,476.6z"/>
		</g>
		<g>
			<path class="st35" d="M309.4,481.1v-1c-0.5,0.7-1.4,1.2-2.4,1.2c-1.9,0-3.1-1.4-3.1-3.7s1.3-3.7,3.1-3.7c1,0,1.8,0.5,2.4,1.2
				v-3.8h1.1v9.8L309.4,481.1L309.4,481.1z M309.4,479.2V476c-0.4-0.6-1.2-1.1-2.1-1.1c-1.4,0-2.3,1.2-2.3,2.7s0.9,2.7,2.3,2.7
				C308.2,480.3,309,479.8,309.4,479.2z"/>
			<path class="st35" d="M311.9,477.6c0-2,1.5-3.7,3.5-3.7c2.1,0,3.4,1.7,3.4,3.8v0.3h-5.7c0.1,1.3,1,2.5,2.5,2.5
				c0.8,0,1.6-0.3,2.2-0.9l0.5,0.7c-0.7,0.7-1.6,1.1-2.8,1.1C313.4,481.3,311.9,479.8,311.9,477.6L311.9,477.6z M315.4,474.8
				c-1.5,0-2.3,1.3-2.3,2.4h4.6C317.7,476.1,317,474.8,315.4,474.8L315.4,474.8z"/>
			<path class="st35" d="M319.6,480.2l0.6-0.8c0.5,0.5,1.4,1,2.3,1c1.1,0,1.7-0.5,1.7-1.2c0-1.7-4.4-0.7-4.4-3.3c0-1.1,1-2,2.6-2
				c1.2,0,2,0.5,2.6,1l-0.5,0.8c-0.4-0.5-1.2-0.9-2.1-0.9c-1,0-1.6,0.5-1.6,1.1c0,1.5,4.4,0.5,4.4,3.3c0,1.2-1,2.1-2.8,2.1
				C321.3,481.3,320.3,481,319.6,480.2L319.6,480.2z"/>
			<path class="st35" d="M326.5,472.3c0-0.4,0.3-0.8,0.7-0.8s0.8,0.3,0.8,0.8s-0.3,0.7-0.8,0.7S326.5,472.8,326.5,472.3z
				 M326.7,481.2v-7.1h1.1v7.1H326.7z"/>
			<path class="st35" d="M329.6,483l0.6-0.8c0.6,0.7,1.3,1,2.3,1c1.2,0,2.3-0.6,2.3-2.1v-1c-0.5,0.7-1.4,1.3-2.4,1.3
				c-1.9,0-3.1-1.4-3.1-3.7s1.3-3.7,3.1-3.7c1,0,1.8,0.5,2.4,1.2v-1.1h1.1v6.9c0,2.3-1.6,3.1-3.4,3.1
				C331.2,484,330.4,483.8,329.6,483L329.6,483z M334.7,479.1V476c-0.4-0.6-1.2-1.1-2.1-1.1c-1.4,0-2.3,1.1-2.3,2.7s0.9,2.7,2.3,2.7
				C333.5,480.3,334.3,479.8,334.7,479.1L334.7,479.1z"/>
			<path class="st35" d="M342.4,481.1v-4.6c0-1.2-0.6-1.6-1.6-1.6c-0.9,0-1.7,0.5-2.1,1.1v5.2h-1.1v-7.1h1.1v1
				c0.5-0.6,1.5-1.2,2.5-1.2c1.5,0,2.3,0.8,2.3,2.3v5L342.4,481.1L342.4,481.1z"/>
			<path class="st35" d="M344.9,477.6c0-2,1.5-3.7,3.5-3.7c2.1,0,3.4,1.7,3.4,3.8v0.3h-5.7c0.1,1.3,1,2.5,2.5,2.5
				c0.8,0,1.6-0.3,2.2-0.9l0.5,0.7c-0.7,0.7-1.7,1.1-2.8,1.1C346.4,481.3,344.9,479.8,344.9,477.6L344.9,477.6z M348.4,474.8
				c-1.5,0-2.3,1.3-2.3,2.4h4.6C350.7,476.1,350,474.8,348.4,474.8L348.4,474.8z"/>
			<path class="st35" d="M358.4,481.1v-1c-0.5,0.7-1.4,1.2-2.4,1.2c-1.9,0-3.1-1.4-3.1-3.7s1.3-3.7,3.1-3.7c1,0,1.8,0.5,2.4,1.2
				v-3.8h1.1v9.8L358.4,481.1L358.4,481.1z M358.4,479.2V476c-0.4-0.6-1.2-1.1-2.1-1.1c-1.4,0-2.3,1.2-2.3,2.7s0.9,2.7,2.3,2.7
				C357.1,480.3,358,479.8,358.4,479.2z"/>
			<path class="st35" d="M364.7,481.1v-9.8h1.1v3.8c0.6-0.8,1.4-1.2,2.4-1.2c1.9,0,3.1,1.5,3.1,3.7s-1.3,3.7-3.1,3.7
				c-1,0-1.9-0.5-2.4-1.2v1L364.7,481.1L364.7,481.1z M367.9,480.3c1.4,0,2.3-1.2,2.3-2.7s-0.9-2.7-2.3-2.7c-0.9,0-1.7,0.5-2.1,1.1
				v3.2C366.2,479.9,367,480.3,367.9,480.3z"/>
			<path class="st35" d="M372.5,482.9c0.2,0.1,0.4,0.1,0.6,0.1c0.5,0,0.8-0.2,1-0.8l0.5-1.1l-3-7.1h1.2l2.4,5.8l2.3-5.8h1.2
				l-3.5,8.5c-0.4,1-1.1,1.4-2.1,1.4c-0.2,0-0.6,0-0.8-0.1L372.5,482.9z"/>
		</g>
	</g>
</g>
</svg>
