<?xml version="1.0" encoding="utf-8"?>
<!-- Generator: Adobe Illustrator 27.0.1, SVG Export Plug-In . SVG Version: 6.00 Build 0)  -->
<svg version="1.1" id="_лой_1" xmlns="http://www.w3.org/2000/svg" xmlns:xlink="http://www.w3.org/1999/xlink" x="0px" y="0px"
	 viewBox="0 0 2483.3 1761.6" style="enable-background:new 0 0 2483.3 1761.6;" xml:space="preserve">
<style type="text/css">
	.st0{fill:#606060;}
	.st1{opacity:0.8;}
	.st2{fill:#D7E5FF;}
	.st3{fill:#AEC3FF;}
	.st4{fill:#A8D29F;}
	.st5{fill:#FFB27D;}
	.st6{fill:#739AF0;}
	.st7{fill:#1C3154;}
	.st8{fill:#2A4E96;}
	.st9{fill:#233862;}
	.st10{fill:#6385DB;}
	.st11{fill:#ED985F;}
	.st12{fill:#2C3A64;}
	.st13{fill:#F99746;}
	.st14{fill:#ED7D2B;}
	.st15{fill:#7599EA;}
	.st16{fill:#90AFF4;}
	.st17{fill:#5888DD;}
	.st18{opacity:0.4;fill:#5888DD;enable-background:new    ;}
	.st19{fill:#607CF4;}
	.st20{fill:#E9F3FE;}
	.st21{fill:#F77D48;}
	.st22{fill:#E6EFFF;}
	.st23{fill:#113C68;}
	.st24{fill:#15447C;}
	.st25{fill:#FCA56B;}
	.st26{fill:#163560;}
	.st27{fill:#1F4D84;}
	.st28{opacity:0.5;}
	.st29{fill:#B3CFF9;}
	.st30{fill:#ED975D;}
	.st31{fill:#FFFFFF;}
	.st32{fill:#1F447F;}
	.st33{fill:#B5453C;}
	.st34{fill:#E8945B;}
</style>
<g>
	<path class="st0" d="M2316.6,1763.6c-148.2,0-2151.7-4.3-2151.7-4.6c-0.8-1.9-254.3-312.7,64.9-637.5C388,960.5,84.6,752,229.8,573
		c248.8-306.7,495-134,700.1-220.2c36.2-15.2,72.6-39.7,109-77.3c20.5-21.1,42.9-39.6,67-55.6c3.7-2.5,7.4-4.9,11.2-7.2
		c14.4-8.9,29.3-17,44.7-24.3c10.3-4.9,20.8-9.4,31.6-13.5l0,0c17-6.6,34.5-12.2,52.3-17c25.3-6.8,51.4-11.9,78-15.3
		c11.6-1.5,23.3-2.7,35.1-3.6c229.2-17.2,487,79.7,620.1,221.3c26.8,28.5,148.6,176.1,52.6,378.9
		c-60.6,128.1,193.4,250.4,283.7,396.6C2544.6,1507.5,2318.7,1758.7,2316.6,1763.6L2316.6,1763.6z"/>
	<g class="st1">
		<path class="st2" d="M1798.1,899.1c-6.1,16.8-13.6,32.8-22.3,47.7c-20.9,35.9-48.9,66-81.4,89.3c-75.5,54.2-175.6,71.4-269.5,37.2
			c-111.8-40.6-183.5-142.5-191.2-253.9c-1-14.7-0.9-29.5,0.4-44.4c2.1-25,7.6-50.2,16.5-74.9c7.3-20,16.5-38.7,27.4-56
			c0.1-0.2,0.2-0.4,0.4-0.6c30.2-47.8,73.2-84.6,122.6-107.7c14-6.6,28.6-12,43.5-16.3c7.1-2,14.3-3.8,21.6-5.3
			c51-10.5,105.4-7.4,157.9,11.7c7,2.5,13.8,5.3,20.4,8.3c9.4,4.2,18.4,8.9,27.1,14c36.7,21.4,67.4,50.1,90.9,83.5l0,0
			c14.7,20.8,26.5,43.4,35.3,67.3c4.6,12.5,8.4,25.4,11.3,38.5c1.8,8.2,3.2,16.4,4.3,24.7c2.6,20,3.2,40.3,1.5,60.8
			C1812.7,848.3,1807.3,874,1798.1,899.1L1798.1,899.1z"/>
		<g>
			<path class="st3" d="M1475.9,643.3c-17.2,13.3-12.7,49-42.4,28.9c-29.8-20.1-48.5-31-56.9-13.5s18,27.2,11,46.3
				s-21.1,21.1-36,5.4c-14.9-15.7-15.3-30.8-39.5-30.3s-34.4-9.4-33.3-27.6c0.2-3.2-0.1-6-0.8-8.4c0.1-0.2,0.2-0.4,0.4-0.6
				c30.2-47.8,73.2-84.6,122.6-107.7c14-6.6,28.6-12,43.5-16.3c7.1-2,14.3-3.8,21.6-5.3c8.4,3.4,17.4,10.4,22.2,24.3
				c10.5,30.6,27.6,23.4,13.1,49.1c-14.5,25.7-8.5,32,7.3,36.7s34,11.3,31.5,23.8C1537.6,660.6,1493.1,629.9,1475.9,643.3
				L1475.9,643.3z"/>
			<path class="st3" d="M1798.1,899.1c-6.1,16.8-13.6,32.8-22.3,47.7c-20.9,35.9-48.9,66-81.4,89.3c-8.1-0.2-15.5-3-21.7-8.6
				c-29.2-26.1,9.5-53.7,29.8-67.2c20.4-13.5-17.4-17.9-36.5-44.2s25.6-61.8-3.1-63.8c-28.7-1.9-63.6-3.8-69.4-34.5
				s24.3-24.4,19.1-50.3c-5.3-25.9,19.7-30.7,46.4-23.3c26.7,7.4,30-12.3,63.1-3.4c33.1,8.9,17.5,49.7,54,59.8
				c36.5,10.2,31.9,17.8,31.9,17.8c2.6,0.9,4.9,2.3,6.9,4.2C1812.7,848.3,1807.2,873.9,1798.1,899.1L1798.1,899.1z"/>
			<path class="st3" d="M1813.3,762c-34.8,3.6-32.4-39.8-61.9-37.2c-29.8,2.6-17-18.6-31.7-40.4c-14.7-21.8-64.4-10-54.3-32.1
				s37.8-4.8,50.8-20.7s40.5-0.8,40.5-0.8c1.9,0,3.8,0.2,5.7,0.7l0,0c14.7,20.8,26.5,43.4,35.3,67.3c4.6,12.5,8.4,25.4,11.3,38.5
				C1810.7,745.5,1812.2,753.7,1813.3,762L1813.3,762z"/>
			<path class="st3" d="M1593.1,593.1c0,0,23.6-16.7,1.4-32.2s-24.9-6.7-43.2-15.7c-18.4-9-31.3,3.1-22.8,24.5s8.8,56.6,27.8,44.8
				S1577.2,589.1,1593.1,593.1L1593.1,593.1z"/>
		</g>
	</g>
	<path class="st4" d="M231.1,1759.8h101.6c5.4-4.6-3.8-15.1-13.4-15.8c-4.2-0.3-9.5,0.6-15.5,1.8c-1.4-18.6-9.4-102.1-39.5-98.7
		c-33.8,3.8,0,36.8,9.6,56.3c7.1,14.5,14.6,35.2,18,45c-2.8,0.6-5.6,1.2-8.5,1.7c-4.5-13.8-21.2-60.1-42.4-57.4
		c-24.9,3.2-14.9,21.7,2.8,32.8c12.9,8.1,28.9,19.6,36.4,25.2c-6.4,1.1-13.1,1.8-19.9,1.6C242.9,1751.9,234.4,1757.1,231.1,1759.8
		L231.1,1759.8z"/>
	<path class="st4" d="M1848,1759.8h-94.4c-5.1-4.3,3.5-14,12.4-14.7c3.9-0.3,8.8,0.5,14.4,1.7c1.3-17.2,8.7-94.8,36.7-91.7
		c31.4,3.5,0,34.2-8.9,52.3c-6.6,13.4-13.5,32.7-16.7,41.8c2.6,0.6,5.2,1.1,7.9,1.6c4.2-12.8,19.7-55.8,39.4-53.3
		c23.1,2.9,13.8,20.2-2.6,30.4c-12,7.5-26.8,18.2-33.8,23.4c5.9,1,12.2,1.6,18.4,1.5C1837.1,1752.5,1844.9,1757.3,1848,1759.8
		L1848,1759.8z"/>
	<g>
		<path class="st5" d="M1915.4,1141.2c0,0,2.2-22.3-9.4-21.6c-11.7,0.8-14.8,6.1-13.5,10.4s12.7,18.5,12.7,18.5L1915.4,1141.2
			L1915.4,1141.2z"/>
		<path class="st6" d="M2097.4,1186c0,0-12.9,15.2-40.7,32.7c-2.6,1.7-5.4,3.3-8.3,5c-10.8,6.3-23.5,12.7-38.1,18.8
			c-1.6,0.7-3.5,1.4-5.6,2.2c-16.7,6-47.3,14.6-66.3,15.3c-1.6,0.1-3.2,0.1-4.7,0c-28.9-1.2-32.4-113.4-32.4-113.4
			s3.2-11.2,18.1-8.4c0,0,22.6,63.4,30.6,68.6c7.2,4.6,48.5-58,84-62.4C2057.9,1141.4,2097.4,1186,2097.4,1186L2097.4,1186z"/>
		<path class="st7" d="M2019.7,1733.4c0,0,2.1,24.7-3.1,27.3l-66.9-0.1c0,0,0-7.7,10.7-9.4c10.7-1.7,29.6-8,32.8-22
			S2019.7,1733.4,2019.7,1733.4L2019.7,1733.4z"/>
		<path class="st8" d="M1970.7,1434.3c0.3,16.2,1.1,32.8,2.6,47.8c7.2,71.1,9.8,157,10.8,173.5c1.8,28.7,7.5,74.7,7.5,74.7
			s11.3,10.7,33.2,5.6c0,0,18.2-66.1,22.2-135.8c0.1-1.1,0.1-2.3,0.2-3.4c0.5-9.2,1-19.7,1.5-31.1c3.3-76,7-189,7-189l-83.9-19.7
			C1971.8,1357,1969.8,1394.1,1970.7,1434.3L1970.7,1434.3z"/>
		<path class="st9" d="M1970.7,1434.3c21.3,36.7,61.8,104.3,78,131.3c3.3-76,7-189,7-189l-83.9-19.7
			C1971.8,1356.9,1969.8,1394.1,1970.7,1434.3L1970.7,1434.3z"/>
		<path class="st10" d="M2004.7,1244.7c-16.7,6-47.3,14.6-66.3,15.3c2.9-0.5,24.1-4.7,31.9-14.2c8.4-10.2,22.6-37.7,33.8-26.5
			C2009.3,1224.6,2007.8,1235.1,2004.7,1244.7L2004.7,1244.7z"/>
		<path class="st5" d="M2145.6,1422.4c0,0,5.2,20.4,4.4,25c-0.9,4.5-5.9,19.9-9.1,23.7c-3.2,3.8-3.3-16.6-5.4-19.8
			c-2.1-3.2-1,7.6-2.7,8.5s-4.5-8.2-5.8-11.4c-1.2-3.2,4.5-14.4,5-22.4C2132.6,1417.9,2145.6,1422.4,2145.6,1422.4L2145.6,1422.4z"
			/>
		<path class="st7" d="M2186.3,1705.3c0,0,11.9,10.9,9.6,18.6c-2.3,7.7-13.1,12.9-14.5,22.3s-7.2,14.6-12.5,14.6H2144
			c0,0-3.9-6.6,5.4-8.6s12.8-13.1,12.2-23.4s0.9-24,0.9-24l19.7-4.6L2186.3,1705.3L2186.3,1705.3z"/>
		<path class="st8" d="M1985,1378.4c0,0,78.5,168,120.3,241.7s54.9,94.3,54.9,94.3s23.9-9.4,26.1-15.9c0,0-16-142.3-44-177
			c-15.8-19.6-34.4-78.4-35.3-99c-0.9-20.6-19.2-69.7-19.2-69.7L1985,1378.4L1985,1378.4z"/>
		<path class="st6" d="M1970.4,1369.6c0,0,25.6,27.5,69,35.8c19.1,3.7,57.8,7.2,67.4-6.4c2.2-3.2,2.3-7.9,1.8-15.3
			c-1.3-19.2-6.1-56.2,15.6-130.6c2-6.9,3.4-13.6,4.2-19.9c4.8-38.1,4.2-66.8-28.8-82.2c-49.5-23-69.8-4.1-69.8-4.1
			s-26.3,12.3-38.4,48.1C1967.4,1266.9,1970.3,1369.6,1970.4,1369.6L1970.4,1369.6z"/>
		<path class="st5" d="M2069.8,1144.8c-8.3,5.9-23,9.4-37,2.4c-1.1-0.5-0.9-7.9-0.7-15.2c0.3-7.1,0.9-14.1,0.9-14.1l17.6-11.6
			l16.8-11C2065.6,1133.3,2073.6,1142.1,2069.8,1144.8L2069.8,1144.8z"/>
		<path class="st11" d="M2064.6,1111c0,0-11.4,17.2-32.4,21.1c0.3-7.1,1-15,1-15l17.5-10.7L2064.6,1111L2064.6,1111z"/>
		<path class="st5" d="M2017.4,1113.5c0,0,42.6,15.9,52.1-10.3s21.4-41.9-5.4-53.1c-26.8-11.3-35.7-3.1-41.1,4.8
			S2006.5,1108.7,2017.4,1113.5z"/>
		<path class="st12" d="M2096,1052.9c0.5-0.4,1.5-0.6,3.6-0.3c0,0-1.4-1.3-3.6-1.8c0.1-2.9-0.4-8.3-5.1-10.5c0,0,2.4,1.9,2.1,5
			c-4.5-7-15.9-13.6-50.1-17.6c-45.2-5.3-36.1,26.1-31,30.6s21.4-1.9,32,1.1s9.5,18.9,12.8,21.7c3.2,2.8,2.5-1.2,7.9-2.4
			s4.2,7,1.8,12s2.9,13.4,2.9,13.4l8.3-6c8.3-6,20.9-35.9,19.1-43.2C2096.3,1054.3,2096.2,1053.6,2096,1052.9L2096,1052.9z"/>
		<path class="st10" d="M2108.5,1383.8c-1.3-19.2-6.1-56.2,15.6-130.6c2-6.9,3.4-13.6,4.2-19.9l0,0c-16.2-5.3-45.6,6.5-45.6,6.5
			S2075.8,1338.2,2108.5,1383.8L2108.5,1383.8z"/>
		<path class="st6" d="M2108.5,1156.1c0,0,19.9,7.2,32.6,59.9c8.4,34.8,23.8,85.9,25.6,102s-17.6,110.1-17.6,110.1s-2.7,2-9.4,0.7
			c-6.4-1.3-9.4-5.6-9.4-5.6s-4.6-62.7-3.4-92.3c0.5-12.3-56.9-90.1-87.9-100.1C2026.6,1226.8,2108.5,1156.1,2108.5,1156.1
			L2108.5,1156.1z"/>
		<path class="st3" d="M1830.3,1088c0,0,57.5-1.6,123.8,10.6l6.9-17.5l7.6-19.1c0,0-66.6-28.7-106.6-68.6L1830.3,1088z"/>
		<path class="st13" d="M1863,992.4l-33,97.4l0,0c-4.8-1.4-7.5-6.6-5.8-11.3l29-81.8C1854.6,992.7,1859.1,990.7,1863,992.4
			L1863,992.4L1863,992.4z"/>
		<path class="st13" d="M1894.5,1160.5L1894.5,1160.5c6.4,1.3,12.7-2.9,14-9.3l11.4-56.8c1.3-6.4-2.9-12.7-9.3-14l0,0
			c-6.4-1.3-12.7,2.9-14,9.3l-11.4,56.8C1883.9,1152.9,1888.1,1159.2,1894.5,1160.5z"/>
		<path class="st6" d="M1830.3,1088c0,0,57.5-1.6,123.8,10.6l6.9-17.5C1898.7,1068.4,1830.3,1088,1830.3,1088z"/>
		<path class="st13" d="M1935.8,1095l18,3.2c-0.3,0,16.7,3.3,22.2-11.7c0.5-1,0.8-2,1.1-3.2c4.3-18.7-6-22.2-6-22.2l-23.1-9l-7.3,26
			v0.1L1935.8,1095L1935.8,1095z"/>
		<path class="st14" d="M1935.8,1095l18,3.2c-0.3,0,16.7,3.3,22.2-11.7c-10.2-7.4-35.4-8.4-35.4-8.4v0.1L1935.8,1095L1935.8,1095z"
			/>
		<path class="st5" d="M1896,1105.4c0,0,8.8,3.5,7.2,7.4c-1.6,3.9-12.8,9.2-14.5,6.1C1886.9,1115.9,1890.5,1102.2,1896,1105.4
			L1896,1105.4z"/>
		<path class="st5" d="M1915.6,1137.7c0,0,1.7-9,1.8-13.1s0.6-7.5-0.4-7.6s-1.7,0.6-2.1,2c-0.4,1.3-1.9,9.6-1.9,9.6l0.8,7.9
			L1915.6,1137.7L1915.6,1137.7z"/>
	</g>
	<g>
		<path class="st15" d="M1046.7,1131.9l-49.8,591.8c0,0-5.2,35.9,21.5,35.9c43.9,0.1,218.4,0,218.4,0s-33-7.5-32.6-24.3
			c0.5-19.8,58.2-609.1,58.2-609.1L1046.7,1131.9L1046.7,1131.9z"/>
		<path class="st16" d="M1253.2,1749.1c-8.6,0-177.6,0.3-220.3-0.2c-18.6-0.2-21.9-16.6-22-27.1c-0.1-5.1,0.6-8.8,0.6-8.8l1.3-15.4
			l3.3-39.2l2.9-34.6l3.8-44.5l3.1-37.6l35.4-420.5l215.6-5.6c0,0-24.3,246.6-41.5,426.1c-1.9,20-3.7,39.2-5.4,57.1
			c-0.6,5.7-1.1,11.3-1.6,16.7c-1.6,17-3.1,32.6-4.3,46.3c-0.7,7.3-1.3,14-1.8,20.2c-2.2,24.2-3.5,39.7-3.5,42.6
			c0,1.7,0.1,3.3,0.4,4.8C1222.6,1748.2,1249.9,1749.1,1253.2,1749.1L1253.2,1749.1z"/>
		<polygon class="st3" points="523,809.8 644.2,1296.8 660.8,1363.5 717.3,1590.3 1766.3,1590.3 1558.2,809.8 		"/>
		<polygon class="st16" points="523,809.8 506.2,815.4 695,1607.3 717.3,1590.3 		"/>
		<polygon class="st15" points="695,1607.3 1737.6,1607.3 1766.3,1590.3 717.3,1590.3 		"/>
		<rect x="1061.1" y="1749.1" class="st3" width="225.7" height="10.7"/>
		<polygon class="st17" points="1229.4,1607.3 1228.3,1615.5 1016,1658.3 1018.9,1623.7 1020.3,1607.3 		"/>
		<path class="st18" d="M1253.2,1749.1c-8.6,0-177.6,0.3-220.3-0.2c-18.6-0.2-21.9-16.6-22-27.1l211.3-39.8
			c-2.2,24.2-3.5,39.7-3.5,42.6c0,1.7,0.1,3.3,0.4,4.8C1222.6,1748.2,1249.9,1749.1,1253.2,1749.1L1253.2,1749.1z"/>
		<polygon class="st3" points="523,809.8 1558.2,809.8 1726.2,1437.1 679.2,1437.1 		"/>
		<polygon class="st6" points="1677.4,1409.9 708.1,1409.9 673.4,1271.9 660,1218.5 654.6,1196.8 619,1055 617.1,1047.6 
			598.3,972.6 589.9,939.1 582.7,910.5 565.9,843.4 1521.2,843.4 1539.7,910.5 1547.6,939.1 1556.8,972.6 1617.7,1193.6 
			1617.7,1193.6 1622.9,1212.3 1625.3,1221 1667.3,1373.5 		"/>
		<polygon class="st19" points="1539.7,910.5 582.7,910.5 565.9,843.4 1521.2,843.4 		"/>
		<g>
			<path class="st20" d="M605.4,873.7c-1.2-4.6,1.7-8.4,6.3-8.4s9.3,3.8,10.5,8.4c1.2,4.6-1.7,8.4-6.3,8.4S606.5,878.4,605.4,873.7z
				"/>
			<path class="st20" d="M633.3,873.7c-1.2-4.6,1.7-8.4,6.3-8.4s9.3,3.8,10.5,8.4c1.2,4.6-1.7,8.4-6.3,8.4S634.4,878.4,633.3,873.7z
				"/>
			<path class="st20" d="M663.3,873.7c-1.2-4.6,1.7-8.4,6.3-8.4s9.3,3.8,10.5,8.4c1.2,4.6-1.7,8.4-6.3,8.4S664.4,878.4,663.3,873.7z
				"/>
		</g>
	</g>
	<path class="st21" d="M1331.2,453.5c39.2-46,99.6-138.4,140.3-185.7c8.4-9.7,1.4-24.8-11.4-24.8h-74l69.8-157.9
		c3-6.7-6.2-12.1-10.6-6.2l-168.8,225.9c-4.9,6.6,0.5,15.9,8.6,14.9l83.8-10.3l-49.8,136.9C1316.2,453.9,1326,459.6,1331.2,453.5
		L1331.2,453.5z"/>
	<path class="st3" d="M982.7,733.7c8.8-45.2,14.4-129.2,23.7-175.8c1.9-9.6-8.3-17-16.9-12.2l-49.2,27.7l-12.7-131
		c-0.5-5.6-8.7-5.7-9.4-0.2l-27.6,213.2c-0.8,6.2,6.2,10.4,11.3,6.6l51.8-38.2l18.1,109.6C972.9,739.5,981.5,739.7,982.7,733.7
		L982.7,733.7z"/>
	<g>
		<path class="st22" d="M1719.7,1423.3l-842.2,71c-63.9,5.4-110.2-59.8-84.1-118.4l356.8-798.6c27.1-60.6,110.3-67.6,147.1-12.4
			l485.4,727.6C1818.4,1345.9,1783.7,1417.9,1719.7,1423.3L1719.7,1423.3z"/>
		<path class="st21" d="M1722.4,1455.1l-842.2,71c-41.4,3.5-80.5-14.7-104.6-48.6s-28.3-76.8-11.3-114.7l356.8-798.6
			c17.5-39.2,53.6-64.8,96.4-68.4s82.6,15.6,106.5,51.3l485.4,727.6c23.1,34.6,26.1,77.6,8,115
			C1799.3,1427.2,1763.8,1451.6,1722.4,1455.1L1722.4,1455.1z M1222.8,559.5c-19.3,1.6-35.5,13.1-43.4,30.8l-356.8,798.6
			c-7.6,17.1-5.7,36.4,5.1,51.6c10.8,15.3,28.4,23.4,47.1,21.9l842.2-71c18.6-1.6,34.6-12.6,42.8-29.4c8.1-16.8,6.8-36.2-3.6-51.8
			l-485.4-727.6C1260,566.5,1242.1,557.9,1222.8,559.5L1222.8,559.5z"/>
		<path class="st21" d="M1203.1,1301.1c-0.9-10.8,0.2-21.1,3.3-30.6c3.1-9.5,7.9-18,14.4-25.3s14.6-13.3,24.2-17.9
			s20.7-7.5,33.1-8.5c12.5-1.1,23.9-0.1,34.3,2.8s19.5,7.5,27.1,13.6c7.7,6.2,13.8,13.7,18.4,22.5c4.7,8.9,7.4,18.8,8.3,29.6
			c0.9,10.8-0.2,21-3.3,30.3c-3.1,9.4-7.9,17.7-14.4,25.1s-14.7,13.3-24.4,18c-9.8,4.6-20.9,7.5-33.4,8.5s-23.8,0.1-34.1-2.8
			c-10.3-2.9-19.2-7.5-26.9-13.6c-7.6-6.1-13.8-13.6-18.4-22.3C1206.8,1321.7,1204,1311.9,1203.1,1301.1L1203.1,1301.1z
			 M1333.3,1148.7l-121.3,10.2l-52.1-413.1l155.7-13.1L1333.3,1148.7z"/>
	</g>
	<g>
		<path class="st5" d="M680.1,1174c0,0,2.6-5.9,4.3-8.8c1.7-2.8,9-11.1,10.3-9.2c1.2,1.9,6.2,14.4,3.6,17.9
			c-2.6,3.5,0.2,9.6-13,13.3L680.1,1174L680.1,1174z"/>
		<path class="st14" d="M534,1136.5c0,0,67.3,56.2,93.5,51c20.5-4.1,53-14.3,53-14.3s8.6,8.1,6.1,17.9c0,0-41.3,38.9-70.8,39.1
			c-46,0.4-67.7-22.8-67.7-22.8L534,1136.5L534,1136.5z"/>
		<path class="st23" d="M416,1729c0,0,2,31.5,8,32c0.8,0.1,30.9,0.1,30.9,0.1l38.4-0.2c0,0-0.2-9.3-11.5-11.2
			c-11.2-2-30-9.8-36.8-24.7C437.9,1709.3,416,1729,416,1729L416,1729z"/>
		<path class="st8" d="M413.8,1731.2c0,0,11.7,3.9,20.8,3.9c10.2,0,19.4-2.8,19.4-2.8s2.2-21.3,14.3-68.1
			c6.3-24.6,15.4-56.2,28.3-95.4c35.7-108.5,46.5-171.9,47.5-177.9c0-0.3,0.1-0.5,0.1-0.5l-0.1-0.1l-109.6-48.1
			c0,0,13.5,149.5-3.7,206.9c-2.4,8-4.5,17.4-6.3,27.5C413.5,1638.9,413.8,1731.2,413.8,1731.2L413.8,1731.2z"/>
		<path class="st9" d="M468.3,1664.2c6.3-24.6,15.4-56.2,28.3-95.4c35.7-108.5,46.5-171.9,47.5-177.9c0-0.2,0-0.3,0-0.5l-109.6-48.1
			c0,0,13.5,149.5-3.7,206.9C428.3,1557.1,468.3,1664.2,468.3,1664.2L468.3,1664.2z"/>
		<path class="st24" d="M501.6,1729c0,0,2,31.5,8,32c0.8,0.1,30.9,0.1,30.9,0.1l38.4-0.2c0,0-0.2-9.3-11.5-11.2
			c-11.2-2-30-9.8-36.8-24.7C523.5,1709.3,501.6,1729,501.6,1729L501.6,1729z"/>
		<path class="st8" d="M563.8,1345.7c0,0,1.4,96.9-15.3,215.8S537.3,1731,537.3,1731s-11.5,3.7-16.2,4.1c-11.8,1-24-2.8-24-2.8
			s-24-119-17.1-178.5s-32.8-204.3-32.8-204.3L563.8,1345.7L563.8,1345.7z"/>
		<path class="st5" d="M486,1119l21.4,14l19.5-5.5c3.6-5.1,4.5-14.9,4.6-23.4c0-8.4-0.8-15.6-0.8-15.6l-28.9-12.7L491,1071
			c0,0.2,0.8,8.8,1,10.1C494,1103.7,486,1119,486,1119L486,1119z"/>
		<path class="st13" d="M564.3,1372.6c-26.6,25.7-127.4,21.4-133.6-6.9s6.8-241.2,52.3-254.5c9.4-2.8,59.9,13.5,59.9,13.5
			s7.9,20.7,13.1,47.1c1,5.1,4,59.5,6.2,110.4c1,23.8,1.9,46.8,2.3,63.7C564.8,1361.7,564.8,1372.1,564.3,1372.6L564.3,1372.6z"/>
		<path class="st25" d="M494.2,1081.6c5.9,9.9,26.4,18.6,37.3,22.5c0-8.4-0.8-15.6-0.8-15.6l-28.9-12.7
			C495.5,1075.7,491.6,1077.2,494.2,1081.6L494.2,1081.6z"/>
		<path class="st5" d="M541.6,1086.8c0,0-46.5,14.5-55.1-14.6s-20.4-46.8,9-57.3c29.3-10.5,38.4-1.1,43.6,7.9
			C544.3,1031.8,553.5,1082.3,541.6,1086.8L541.6,1086.8z"/>
		<path class="st26" d="M537.3,1020c0,0-3,33.9-10,32.4s-14.7-4.6-13.7,5.6s-6.8,27.7-16.9,27.7c-21.7-0.1-45.2-55.7-39.3-66.2
			C474.6,989,562,982.9,537.3,1020L537.3,1020z"/>
		<path class="st14" d="M530.4,1111.9c-0.6-0.2-34.6-15.5-38.6-14.2s-8.9,13.5-8.9,13.5l59.9,13.5
			C542.8,1124.7,538.1,1115.1,530.4,1111.9z"/>
		<g>
			<path class="st27" d="M742.2,1276.7l-190.7,179.6c-3.7,3.5-8.5,4.6-10.5,2.5l-6.4-6.8c-2-2.2-0.6-6.8,3.1-10.3l190.7-179.6
				c3.7-3.5,8.5-4.6,10.5-2.5l6.4,6.8C747.4,1268.6,746,1273.2,742.2,1276.7L742.2,1276.7z"/>
			<path class="st6" d="M635.2,1377.5l-83.7,78.8c-3.7,3.5-8.5,4.6-10.5,2.5l-6.4-6.8c-2-2.2-0.6-6.8,3.1-10.3l83.7-78.8
				L635.2,1377.5L635.2,1377.5z"/>
			<path class="st27" d="M698.4,1208.9c7.3,24.1,20.9,46.7,40.6,65.2c60.1,56.6,154.7,53.7,211.3-6.4c55.8-59.3,53.8-152.2-4.1-209
				c-0.8-0.8-1.6-1.5-2.3-2.3c-60.1-56.6-154.7-53.7-211.3,6.4C694.5,1103.3,683.3,1159.3,698.4,1208.9L698.4,1208.9z M741.1,1070.9
				c32.9-35,79.8-48.9,123.9-41.3c25.7,4.4,50.3,16.2,70.7,35.4c55.4,52.1,58,139.2,5.9,194.6c-19.2,20.4-43.1,33.6-68.4,39.6
				c-43.5,10.3-91.2-0.8-126.2-33.7C691.7,1213.5,689,1126.3,741.1,1070.9L741.1,1070.9z"/>
			<g class="st28">
				<path class="st29" d="M941.7,1259.6c-19.2,20.4-43.1,33.6-68.4,39.6c-43.5,10.3-91.2-0.8-126.2-33.7
					c-55.4-52.1-58-139.2-5.9-194.6c32.9-35,79.8-48.9,123.9-41.3c25.7,4.4,50.4,16.2,70.7,35.4
					C991.1,1117.1,993.8,1204.3,941.7,1259.6z"/>
			</g>
		</g>
		<path class="st14" d="M564.4,1345.9C459.3,1271,468,1171.1,468,1171.1c38.4,21.7,76.5,69.6,94,111.1
			C563.1,1306,564,1329,564.4,1345.9L564.4,1345.9z"/>
		<g>
			<path class="st5" d="M668.1,1311.8c7.4-1.7,12.4-7.3,13.4-8.3c0,0,3.2,0.2-0.5,7c-0.3,0.6-1,2-1.5,3c-0.2,0.4,0.1,0.9,0.5,0.9
				c4.3,0.3,8.6-1.4,16.8,0.3c1.1,0.2,1.5,3,1.4,4.1c-0.1,2,0.1,4.2-2.2,7.2c-1.3,1.8-5,3.6-13.3,6.9c-3.1,1.3-12.1,0.3-20.5-2.6
				l-6.7-3.1l2.1-12.5l1.7,0.3C662,1315.7,665.3,1312.5,668.1,1311.8L668.1,1311.8z"/>
			<path class="st13" d="M500.7,1124.7c0,0-94.4,18,27.8,154.7c19.5,21.9,125.1,50.3,125.1,50.3s10.7-9.1,5.3-16.5
				c0,0-72.7-52.8-88.7-61.2c-7.2-3.8-27.9-84.3-39.7-103.7S500.7,1124.7,500.7,1124.7L500.7,1124.7z"/>
		</g>
		<path class="st5" d="M682.7,1175.7c0,0,3.1-5.9,3.7-9c0.6-3.1,4.5-12.2,6.1-13.8c0.6-0.6,2.8,0.2,3,2.9c0.1,1.2-0.5,3.4-1.5,6
			c-1.7,4.2-1.4,10-2,11.9C690.5,1178.4,682.6,1175.7,682.7,1175.7L682.7,1175.7z"/>
	</g>
	<g>
		<g>
			<path class="st5" d="M720.2,941.4c-1.6,1.8-1.8,3.9-1,6.1l0,0c1.5,4.1,6.3,8.6,12,13.1c0.7,0.6,1.4,1.1,1.9,1.6
				c0.2,0.1,0.3,0.3,0.4,0.4c0.1,0.1,0.2,0.2,0.3,0.3c5.3,4.8,3.3,6,12.7,15.8c10.8,11.2,18.2,11.4,20.3,10.4
				c1.8-0.9-1.8-6.8-5.9-13.5c-0.2-0.3-0.4-0.7-0.6-1c-0.5-0.9-1.1-1.8-1.6-2.7c-4.7-8-3.5-11.8-2.4-23.8
				c0.9-9.7,15.2-54.3,15.2-54.3l-20.6-3.6c0,0-6.2,35.5-13.1,41c-3.7,2.9-7.8,3-11.3,5.1c-0.2,0.2-0.5,0.3-0.7,0.5
				C723.9,938.2,721.8,939.6,720.2,941.4L720.2,941.4z"/>
			<path class="st9" d="M720.2,941.4c-1.6,1.8-1.8,3.9-1,6.1l0,0c1.8,4.1,6.5,8.6,12,13.1c0.7,0.6,1.3,1.1,1.9,1.6
				c0.2,0.1,0.3,0.3,0.4,0.4c0.1,0.1,0.2,0.2,0.3,0.3c5.3,4.8,3.3,6,12.7,15.8c10.8,11.2,18.2,11.4,20.3,10.4
				c1.8-0.9-1.8-6.8-5.9-13.5c-2.1-0.8-11.8-4.7-19.2-14.2c-6.2-8-10.5-18.1-14.7-24.4c-0.5-0.1-0.8-0.1-1.2-0.2
				C723.9,938.2,721.8,939.6,720.2,941.4L720.2,941.4z"/>
			<path class="st5" d="M886.7,928.6c1.3,6.4,10.4,5.3,20.5,2.8c10.2-2.5,7.7,0.5,22.2-1.1c14.4-1.6,18.8-7,19.3-9.1
				c0.4-1.9-6.7-2.6-14.4-3.5c-1-0.1-1.9-0.2-2.9-0.3c-8.6-1.1-15-6.7-22.8-11.2c-7.4-4.3-18.5-22-18.5-22l-19.8,1.6
				c0,0,10.4,15.8,14.4,22.7c2.4,4,2.2,9.4,1.9,13.5C886.4,924.1,886.2,926.4,886.7,928.6L886.7,928.6z"/>
			<path class="st9" d="M907.2,931.4c10.2-2.5,7.7,0.5,22.2-1.1c14.4-1.6,18.8-7,19.3-9.1c0.4-1.9-6.7-2.6-14.4-3.5l-0.1,0.2
				c0,0-8.7,6.1-20.7,6.4c-9.8,0.2-20.2-2.6-26.9-2.5c-0.2,2.2-0.3,4.5,0.2,6.8C888,935,897.1,933.9,907.2,931.4L907.2,931.4z"/>
			<path class="st9" d="M810.8,801.9l-18.5,49.8l-24.2,65c0,0-6.6,0.6-12.8-1.2c-5.8-1.7-12.4-6-12.4-6s6.7-69.8,19.3-109.9
				c3.2-10.3,6.8-18.6,10.8-23.3C792.3,753.4,810.8,801.9,810.8,801.9L810.8,801.9z"/>
			<path class="st8" d="M792,722.8c-10.5-3.4-38-0.1-67.9,5.3c-8.2,1.5-16.5-2.3-20.9-9.4l0,0l-75.1-5.9c0,0-24.8,54.9-11.2,89.9
				c2,5.2,6.4,8.4,13.1,8.5l0,0c0,0,45.4,0.1,59.9,0.1c37.3,0,79-25.6,84.4-26.7c8.8-1.8,12.3,15.9,21.2,34.4
				c8.8,18.5,82.9,82.1,82.9,82.1s11.4,0.1,16.1-1.7c5.1-1.9,6.9-4.4,6.9-4.4S819.4,731.6,792,722.8L792,722.8z"/>
			<path class="st9" d="M695.4,498.2c-5.6-3.3-11-3.8-14.3-3.7c-2.3,0.1-4.6-0.1-6.9-0.4c-28.7-4.2-45.9,37.4-46.9,50
				c-1.9,23.1-14.1,26.6-31.3,41c-34.5,29-24.4,62.7-5.5,75.2c11.3,7.5,31.2,0,31.2,0c0.3,0.2,54.5-30.3,81.2-45
				C742.9,609.6,711.5,507.8,695.4,498.2L695.4,498.2z"/>
			<path class="st5" d="M680.5,602.8c0.1,0.1-13.2,4.6-22,0.7c-8.3-3.7-14.7-17.4-14.5-17.4c3.8-0.2,8-3.5,11.2-25.3l1.6,0.6
				l27.2,9.8c0,0-2,8.7-3.2,17C679.6,595.1,679,601.8,680.5,602.8L680.5,602.8z"/>
			<path class="st30" d="M683.9,571.1c0,0-1.1,4.7-2.7,13.5c-15.6-2.8-22.3-14.8-24.5-23.3L683.9,571.1z"/>
			<path class="st5" d="M687.9,579.8c0,0-37.2-5-33.7-28.1s1-39.3,24.9-37.1s27.2,11.7,27.9,19.7
				C707.7,542.3,697.7,580.5,687.9,579.8L687.9,579.8z"/>
			<path class="st9" d="M705.7,521.6c0,0-23.8,20.5-40,22.2s-22.3-3.5-22.3-3.5s9.5-7.9,15.3-20.7c1.7-3.8,5.3-6.4,9.4-6.7
				C679.6,511.8,701.5,511.3,705.7,521.6L705.7,521.6z"/>
			<path class="st9" d="M690.8,519.7c0,0,8,7.7,10.5,13.4c2.4,5.5,3.1,18.7,1.2,23.9c0,0,12.4-24.1,5.4-35.8
				C700.4,508.8,690.8,519.7,690.8,519.7z"/>
			<path class="st13" d="M711.8,657.6c-1.2,75.3-0.3,59.6-8.6,66.7c-2,1.7-7.6,2.7-14.9,3.2c-23.1,1.5-63.7-2.3-65.2-6.6
				c-5.3-14.8-1.6-19.3-6-42c-0.5-2.4-1-5-1.7-7.8c-3.7-15.5-7.3-20.8,5.8-45.7c11.9-22.6,24.3-40.9,25.4-40.3c31.4,18.7,34,3,34,3
				S712.3,620.9,711.8,657.6L711.8,657.6z"/>
			<path class="st8" d="M792.3,851.7l-24.2,65c0,0-6.6,0.6-12.8-1.2c-5.8-1.7-12.4-6-12.4-6s6.7-69.8,19.3-109.9L792.3,851.7
				L792.3,851.7z"/>
			<path class="st13" d="M680.6,588.1c0,0,32.3,5.5,36.2,19.4c3.8,13.9,16.3,98.5,16.3,98.5s-9.1,8.9-16.7,1.3
				c-7.6-7.6-23.9-79.1-23.9-79.1L680.6,588.1L680.6,588.1z"/>
			<path class="st14" d="M688.3,727.5c-23.1,1.5-63.7-2.3-65.2-6.6c-5.3-14.8-1.6-19.3-6-42l11.2-31.3c0,0-1.8,34.9,8.4,44.1
				c10.3,9.2,42.2,17.7,47.2,25.4C686.3,720.8,687.9,724.5,688.3,727.5L688.3,727.5z"/>
			<path class="st5" d="M661.9,712.8c0,0,22.8-5.1,26.5-3s12.7,9.4,13.8,12s-8.2-2-11.2-2.8c-2-0.5-7.1,1.3-9.7,2.1
				c-10.8,3.6-17.3,1.7-17.3,1.7L661.9,712.8L661.9,712.8z"/>
			<path class="st13" d="M646.6,585.1c0,0-30.6,1.9-41.2,16.6c-14.9,20.8-44.5,109.4-27.6,121.2c19.1,13.3,86.8,3.5,86.8,3.5
				s2.3-10.5-0.9-15.6c-3.1-5.1-54.1-13.3-56.5-15.7c-2.3-2.3,29.4-45.9,29.4-52.9S646.6,585.1,646.6,585.1L646.6,585.1z"/>
			<path class="st5" d="M689.4,716.1c0,0,4.8,6.2,6.3,6.9c1.6,0.7,2.6,0.5,2.6,0.5l-3.2-5.8L689.4,716.1L689.4,716.1z"/>
			<path class="st5" d="M688.3,709.8l13.9,6.7c0,0-0.6,1-2.3,0.9s-6-1.7-6-1.7L688.3,709.8L688.3,709.8z"/>
		</g>
		<polygon class="st9" points="806.8,725.6 661.8,725.6 661.8,728.8 805.5,728.8 		"/>
		<polygon class="st9" points="695.7,728.8 805.5,728.8 838.5,646.7 729,646.7 		"/>
		<path class="st31" d="M777.8,687.8c0.8-2.9-0.8-5.2-3.7-5.2s-5.9,2.3-6.7,5.2s0.8,5.2,3.7,5.2S777,690.7,777.8,687.8z"/>
	</g>
	<g>
		<path class="st26" d="M1520.6,1038.4c-14.8-4.9-25,1.3-25,1.3c-42.6,1.8-44.2,45.4-39.2,61.6c7,22.8-17.8,40.8,9.7,50
			c32,10.7,58.8-2,56.9,3.5C1624.2,1162.8,1554.2,1049.6,1520.6,1038.4L1520.6,1038.4z"/>
		<path class="st13" d="M1476.5,1250.7c0,0-4.1,8-11.4,17.2c-8.8,11.1-55.3-15.2-51.3-17.2s27.3-69.2,32.9-77.6s24.5-12.8,24.5-12.8
			L1476.5,1250.7z"/>
		<path class="st32" d="M1633.1,1703.9c0,0,12.8,11.7,10.3,20s-14.1,13.8-15.6,24c-1.6,10.2-7.8,15.7-13.4,15.7h-26.8
			c0,0-4.1-7.2,5.9-9.3s13.8-14.1,13.1-25.2s0.9-25.8,0.9-25.8l21.2-4.9L1633.1,1703.9L1633.1,1703.9z"/>
		<path class="st7" d="M1524.7,1708.8c0,0,4.6,49.5-1,52.3l-72-0.2c0,0,0-8.3,11.6-10.2c11.6-1.8,31.9-8.6,35.3-23.7
			S1524.7,1708.8,1524.7,1708.8L1524.7,1708.8z"/>
		<path class="st13" d="M1580,1217.3c0,0,1.1,15.1,0,33.3c-0.7,12-12.9,28.1-14.6,32.1c-4.3,10-9.2,11.6-9.2,11.6l-37.8,9.3
			l-13.3,3.2l-41.9-12.5c0,0-19.1-53.3-11.4-83.3s19.4-50.8,19.4-50.8s28.5-6.4,78.7-2.8L1580,1217.3L1580,1217.3z"/>
		<path class="st14" d="M1583.6,1250.9c-0.7,12-16.5,27.7-18.2,31.7c-4.3,10-9.2,11.6-9.2,11.6l-37.8,9.3l-6.8-19.6
			c0,0,55.2-14.5,46.3-65.6L1583.6,1250.9L1583.6,1250.9z"/>
		<path class="st9" d="M1465.9,1302.4c0,0-20.8,64.6-22.1,86.6c-1.3,22,39.7,312.4,41.3,322.6c1.6,9.6,13.4,15.6,13.4,15.6
			s5.5,3.2,13.2,1c10.8-3.1,14.2-6.7,14.2-6.7s16.2-207.1,6.2-281.1s-10.1-138-10.1-138H1465.9L1465.9,1302.4z"/>
		<path class="st8" d="M1553.8,1300.4c0,0,31.7,42.5,34.6,71.2s4.6,129.6,10.9,157.6s29.4,81.9,29.4,169.2c0,0-2.4,5-9.8,7.7
			c-2.4,0.8-5.6,1.7-8.6,2.4c-6.1,1.4-12.4-1.6-15.2-7.2c-15.6-31.4-65.4-132.9-67.9-153.9c-1.8-14.9-17.5-113.5-51.8-171.3
			c-8.2-13.9,5.1-69.1,5.1-69.1L1553.8,1300.4L1553.8,1300.4z"/>
		<path class="st9" d="M1462.6,1292.4c0,0,8.3,6.6,24.9,6.9c19.8,0.4,68.8-5,68.8-5s2.2,6.1,2.1,12.5c0,0-59.8,15.1-94.5,2.2
			C1463.8,1309,1459.3,1300.6,1462.6,1292.4L1462.6,1292.4z"/>
		<path class="st31" d="M1482.7,1316.3c-5,0-9-4.6-9-10.2s4.1-10.2,9-10.2s9,4.6,9,10.2S1487.7,1316.3,1482.7,1316.3z
			 M1482.7,1298.9c-3.3,0-6,3.2-6,7.2s2.7,7.2,6,7.2s6-3.2,6-7.2S1486,1298.9,1482.7,1298.9z"/>
		<polygon class="st33" points="1525.9,1334.9 1436,1335.8 1391.8,1231.8 1481.7,1230.9 		"/>
		<path class="st5" d="M1514.2,1287.9l-6.6-8.1c0,0-4.5-4-7.7-4.7s-10.1-4.6-10.7-3.5s5.2,9,5.2,9h0.3c-6.8,5.1-23.9,0.6-26,2.7
			c-2.6,2.5,3.5,8,6.8,11.1s12.6,8.2,19.9,5.9c5.3-1.7,13.7-3.3,13.7-3.3L1514.2,1287.9L1514.2,1287.9z"/>
		<path class="st5" d="M1398.5,1250.1c0,0,5.7-6.4,9.2-3.3c3.6,3.1-0.9,18.2-4.4,16.7S1396.6,1252,1398.5,1250.1z"/>
		<path class="st13" d="M1549.9,1157.4c0,0,25.7,2.8,44.2,36.4c14.6,26.5,39.5,75.3,30.1,89c-4.1,6.1-43.7,27.6-119.9,15.3
			c0,0,1.2-9.6,7.3-14.1c0,0,64.2-20.6,64.1-24.7c-0.2-7.8-8.7-14.4-44.5-50.3C1521.4,1199.2,1549.9,1157.3,1549.9,1157.4
			L1549.9,1157.4z"/>
		<path class="st5" d="M1530.1,1158.7c0.9-1.2-0.2-5-1.7-12c-1.3-6.4-3.4-16.2-3.4-27.3l-1.9,0.3l-31.9,5.4c0,0,0.7,8.5,0.8,16.6
			c0,0.1,0,0.1,0,0.2c0,7-1.9,17.5,0.5,18.9C1504.5,1167.8,1526.7,1163.3,1530.1,1158.7L1530.1,1158.7z"/>
		<path class="st34" d="M1491.2,1125c0,0,0.6,12,0.7,20.1c17.8-0.4,27.4-17.8,31.2-25.4L1491.2,1125L1491.2,1125z"/>
		<path class="st5" d="M1489.3,1139.4c0,0,41.8-6,37.7-31.9s-1.5-44.3-28.4-41.6c-26.9,2.7-30.5,13.4-31.2,22.4
			S1478.3,1140.3,1489.3,1139.4z"/>
		<path class="st26" d="M1479.5,1068.3c0,0,16.3,28.7,34.5,30.4c18.2,1.7,25.1-4.2,25.1-4.2s-15.2-8.5-20.9-26.7
			C1518.3,1067.7,1485.8,1052.4,1479.5,1068.3L1479.5,1068.3z"/>
		<path class="st26" d="M1482.8,1070.3c0,0-8,4.5-10.5,11.2c-2.4,6.6-4.1,15.1-1.8,24.8c0,0-11.9-19.3-4.1-32.6
			C1474.6,1059.6,1482.8,1070.3,1482.8,1070.3L1482.8,1070.3z"/>
	</g>
</g>
</svg>
