<?xml version="1.0" encoding="utf-8"?>
<!-- Generator: Adobe Illustrator 27.0.1, SVG Export Plug-In . SVG Version: 6.00 Build 0)  -->
<svg version="1.1" id="Layer_1" xmlns="http://www.w3.org/2000/svg" xmlns:xlink="http://www.w3.org/1999/xlink" x="0px" y="0px"
	 viewBox="0 0 2330.4 1754.3" style="enable-background:new 0 0 2330.4 1754.3;" xml:space="preserve">
<style type="text/css">
	.st0{fill:#BAD4FB;}
	.st1{fill:#ACCCFA;}
	.st2{fill:#DD513A;}
	.st3{fill:#F47458;}
	.st4{fill:#9EC3F9;}
	.st5{fill:#CAE1F9;}
	.st6{fill:#F7CC7F;}
	.st7{fill:#FFFFFF;}
	.st8{fill:#E6F2FF;}
	.st9{fill:#5184CE;}
	.st10{fill:#21AAE1;}
	.st11{fill:#224E8F;}
	.st12{fill:#D1CFCB;}
	.st13{fill:#ADC8F0;}
	.st14{fill:#DAECF2;}
	.st15{fill:#878583;}
	.st16{fill:#858585;}
</style>
<g>
	<g>
		<path class="st0" d="M992.1,716.2l-0.6-2.1c5.4-1.6,10.9-3.4,16.1-5.4l0.8,2C1003.1,712.7,997.6,714.6,992.1,716.2z M975.4,720.1
			c-5.6,1.1-11.3,1.9-17,2.4l-0.2-2.2c5.6-0.5,11.3-1.3,16.8-2.4L975.4,720.1z M1024.1,703.8l-1-2c5.1-2.5,10-5.3,14.8-8.3l1.2,1.9
			C1034.3,698.4,1029.2,701.2,1024.1,703.8z M941.2,723.3c-5.7,0-11.5-0.3-17.2-0.8l0.2-2.2c5.6,0.5,11.3,0.8,17,0.8L941.2,723.3z
			 M1053.3,685.7l-1.3-1.7c4.5-3.4,8.9-7.1,13.1-10.9l1.5,1.6C1062.3,678.6,1057.8,682.3,1053.3,685.7z M907,720.2
			c-5.6-1-11.2-2.4-16.7-3.9l0.6-2.1c5.4,1.5,11,2.9,16.5,3.9L907,720.2z M1078.6,662.5l-1.6-1.5c3.8-4.2,7.4-8.6,10.8-13.1l1.8,1.3
			C1086.2,653.9,1082.5,658.3,1078.6,662.5z M874,710.8c-5.3-2.1-10.6-4.4-15.7-6.9l1-2c5.1,2.5,10.3,4.8,15.5,6.9L874,710.8z
			 M1099.3,635.1l-1.9-1.2c3-4.8,5.7-9.8,8.3-14.8l2,1C1105.1,625.2,1102.3,630.3,1099.3,635.1z M843.2,695.5
			c-4.9-3-9.6-6.3-14.2-9.7l1.3-1.8c4.5,3.4,9.2,6.6,14,9.6L843.2,695.5z M1114.6,604.4l-2-0.8c2-5.3,3.9-10.7,5.4-16.1l2.1,0.6
			C1118.5,593.6,1116.7,599.1,1114.6,604.4z M815.8,674.8c-4.2-3.8-8.3-7.9-12.2-12.1l1.6-1.5c3.8,4.2,7.9,8.2,12,12L815.8,674.8z
			 M1124,571.4l-2.2-0.4c1-5.5,1.8-11.2,2.4-16.8l2.2,0.2C1125.9,560,1125.1,565.8,1124,571.4z M792.6,649.5
			c-3.4-4.6-6.7-9.3-9.7-14.2l1.9-1.2c3,4.8,6.2,9.5,9.6,14L792.6,649.5z M1127.2,537.2l-2.2,0c0-5.6-0.3-11.3-0.8-17l2.2-0.2
			C1126.9,525.7,1127.2,531.5,1127.2,537.2z M774.6,620.3c-2.5-5.1-4.9-10.4-6.9-15.7l2-0.8c2,5.3,4.3,10.5,6.9,15.5L774.6,620.3z
			 M1124,503l-2.2,0.4c-1-5.5-2.4-11.1-3.9-16.5l-0.1-0.4l2.1-0.6l0.1,0.4C1121.6,491.8,1123,497.4,1124,503z M764.3,587.7l-2.1,0.6
			l-0.1-0.2c-1.5-5.4-2.9-11-3.9-16.5l2.2-0.4c1,5.5,2.3,10.9,3.9,16.3L764.3,587.7z M1112.4,470.4c-2-5.3-4.4-10.5-6.9-15.5l2-1
			c2.5,5.1,4.9,10.4,7,15.7L1112.4,470.4z M758,554.4l-2.2,0.2c-0.5-5.7-0.8-11.5-0.8-17.2l2.2,0C757.2,543.1,757.4,548.8,758,554.4
			z M1097.3,440c-3-4.8-6.2-9.5-9.6-14l1.7-1.3c3.4,4.5,6.7,9.3,9.7,14.2L1097.3,440z M757.9,520.5l-2.2-0.2
			c0.5-5.7,1.3-11.4,2.4-17l2.2,0.4C759.2,509.2,758.4,514.8,757.9,520.5z M1076.8,413c-3.8-4.2-7.9-8.2-12-12l1.5-1.6
			c4.2,3.8,8.3,7.9,12.2,12.1L1076.8,413z M764.1,487.1l-2.1-0.6c1.6-5.5,3.4-11,5.5-16.3l2,0.8
			C767.5,476.3,765.7,481.7,764.1,487.1z M1051.6,390.2c-4.5-3.4-9.2-6.6-14-9.6l1.2-1.9c4.9,3,9.6,6.3,14.2,9.7L1051.6,390.2z
			 M776.4,455.5l-2-1c2.5-5.1,5.3-10.2,8.3-15l1.9,1.2C781.7,445.4,778.9,450.4,776.4,455.5z M1022.7,372.4
			c-5.1-2.5-10.3-4.8-15.5-6.8l0.8-2c5.3,2.1,10.6,4.4,15.7,6.9L1022.7,372.4z M794.2,426.6l-1.8-1.3c3.4-4.6,7.1-9,10.9-13.2
			l1.6,1.5C801.2,417.7,797.6,422.1,794.2,426.6z M991.1,360.2c-5.4-1.5-11-2.8-16.5-3.9l0.4-2.2c5.6,1,11.2,2.4,16.7,3.9
			L991.1,360.2z M817,401.5l-1.5-1.6c4.2-3.9,8.7-7.6,13.2-11l1.3,1.7C825.5,394,821.1,397.6,817,401.5z M957.7,354
			c-5.6-0.5-11.3-0.8-17-0.8l0-2.2c5.7,0,11.5,0.2,17.2,0.8L957.7,354z M844,381l-1.2-1.9c4.8-3,9.9-5.8,15-8.4l1,2
			C853.8,375.2,848.8,378,844,381z M923.8,354.1c-5.6,0.5-11.3,1.3-16.8,2.4l-0.4-2.2c5.6-1.1,11.3-1.9,17-2.4L923.8,354.1z
			 M874.4,365.8l-0.8-2c5.3-2.1,10.8-3.9,16.3-5.5l0.6,2.1C885,362,879.6,363.8,874.4,365.8z"/>
	</g>
	<g>
		<path class="st0" d="M1420.1,812l0-3c7.6,0,15.3-0.4,22.8-1.1l0.3,2.9C1435.5,811.6,1427.8,812,1420.1,812z M1397,811
			c-7.7-0.7-15.4-1.8-22.9-3.2l0.5-2.9c7.4,1.4,15.1,2.4,22.6,3.1L1397,811z M1466.1,807.8l-0.5-2.9c7.5-1.4,14.9-3.1,22.2-5.2
			l0.8,2.8C1481.2,804.6,1473.6,806.4,1466.1,807.8z M1351.6,802.6c-7.4-2.1-14.8-4.6-21.9-7.3l1.1-2.8c7.1,2.7,14.4,5.2,21.7,7.2
			L1351.6,802.6z M1510.5,795.1l-1.1-2.8c7.1-2.7,14.1-5.9,20.9-9.2l1.3,2.6C1524.8,789.2,1517.6,792.3,1510.5,795.1z M1308.5,785.9
			c-6.9-3.4-13.7-7.2-20.2-11.3l1.6-2.5c6.5,4,13.2,7.7,20,11.1L1308.5,785.9z M1551.8,774.5l-1.6-2.5c6.4-4,12.8-8.4,18.8-12.9
			l1.8,2.4C1564.7,766,1558.3,770.4,1551.8,774.5z M1269.2,761.6c-6.1-4.6-12.1-9.6-17.8-14.8l2-2.2c5.6,5.1,11.5,10,17.6,14.6
			L1269.2,761.6z M1588.7,746.6l-2-2.2c5.6-5.1,11-10.6,16.2-16.2l2.2,2C1599.8,735.9,1594.3,741.4,1588.7,746.6z M1235,730.5
			c-5.2-5.7-10.2-11.7-14.8-17.8l2.4-1.8c4.6,6,9.5,12,14.6,17.6L1235,730.5z M1207.1,693.6c-4.1-6.5-7.9-13.3-11.3-20.2l2.6-1.3
			c3.4,6.8,7.1,13.5,11.2,19.9L1207.1,693.6z M1644.1,673.2l-2.6-1.3c3.4-6.8,6.5-13.8,9.2-20.9l2.8,1.1
			C1650.7,659.2,1647.6,666.3,1644.1,673.2z M1186.5,652.3c-2.8-7.2-5.3-14.5-7.4-21.9l2.8-0.8c2.1,7.3,4.5,14.6,7.3,21.7
			L1186.5,652.3z M1660.8,630.1l-2.8-0.8c2.1-7.3,3.8-14.8,5.2-22.2l2.9,0.5C1664.7,615.2,1662.9,622.7,1660.8,630.1z M1173.8,607.9
			c-1.4-7.5-2.5-15.2-3.2-22.9l2.9-0.3c0.7,7.6,1.8,15.2,3.2,22.6L1173.8,607.9z M1669.3,584.7l-2.9-0.3c0.7-7.5,1-15.2,1-22.8
			l0-0.6l3,0l0,0.6C1670.3,569.3,1670,577.1,1669.3,584.7z M1172.5,561.9h-3v-0.3c0-7.6,0.3-15.3,1-22.8l2.9,0.3
			c-0.7,7.4-1,15-1,22.5V561.9z M1666.3,538.2c-0.7-7.6-1.8-15.2-3.2-22.6l2.9-0.5c1.4,7.5,2.5,15.2,3.2,22.9L1666.3,538.2z
			 M1176.6,516.4l-2.9-0.5c1.4-7.6,3.2-15.1,5.2-22.5l2.8,0.8C1179.7,501.5,1178,509,1176.6,516.4z M1657.8,493.4
			c-2.1-7.3-4.5-14.6-7.3-21.6l2.8-1.1c2.8,7.2,5.3,14.5,7.4,21.9L1657.8,493.4z M1189,472.5l-2.8-1.1c2.8-7.2,5.9-14.3,9.3-21.2
			l2.6,1.3C1194.8,458.4,1191.7,465.4,1189,472.5z M1209.3,431.6l-2.5-1.6c4-6.5,8.4-12.9,13.1-19.1l2.4,1.8
			C1217.7,418.8,1213.3,425.2,1209.3,431.6z M1617.1,412.1c-4.6-6-9.5-11.9-14.6-17.5l2.2-2c5.2,5.7,10.2,11.6,14.8,17.8
			L1617.1,412.1z M1236.8,395.2l-2.2-2c5.2-5.7,10.7-11.2,16.3-16.4l2,2.2C1247.4,384.1,1241.9,389.6,1236.8,395.2z M1586.3,378.4
			c-5.6-5.1-11.5-10-17.6-14.6l1.8-2.4c6.1,4.6,12.1,9.6,17.8,14.7L1586.3,378.4z M1270.5,364.4l-1.8-2.4c6.1-4.6,12.5-9.1,19-13.1
			l1.6,2.5C1282.9,355.4,1276.6,359.8,1270.5,364.4z M1549.8,351c-6.5-4-13.2-7.7-20-11.1l1.3-2.6c6.9,3.4,13.7,7.2,20.2,11.2
			L1549.8,351z M1309.3,340.2l-1.3-2.6c6.9-3.4,14-6.6,21.1-9.4l1.1,2.8C1323.1,333.7,1316.1,336.8,1309.3,340.2z M1508.9,330.7
			c-7.1-2.7-14.4-5.2-21.7-7.2l0.8-2.8c7.4,2.1,14.8,4.5,21.9,7.3L1508.9,330.7z M1351.8,323.7l-0.8-2.8c7.4-2.1,15-3.9,22.5-5.3
			l0.5,2.9C1366.6,319.8,1359.1,321.6,1351.8,323.7z M1465,318.3c-7.4-1.4-15.1-2.4-22.6-3.1l0.3-2.9c7.7,0.7,15.4,1.7,22.9,3.1
			L1465,318.3z M1396.7,315.3l-0.3-2.9c7.6-0.7,15.4-1.1,23.1-1.1l0,3C1411.9,314.2,1404.2,314.6,1396.7,315.3z"/>
	</g>
	<g>
		<path class="st0" d="M1551.2,1565.9l0-5c12.9,0,25.9-0.6,38.6-1.8l0.5,5C1577.4,1565.2,1564.2,1565.9,1551.2,1565.9z
			 M1512.1,1564.1c-13-1.2-26-3-38.8-5.3l0.9-4.9c12.6,2.3,25.5,4.1,38.3,5.3L1512.1,1564.1z M1629,1558.7l-0.9-4.9
			c12.6-2.4,25.3-5.3,37.6-8.8l1.4,4.8C1654.6,1553.3,1641.8,1556.3,1629,1558.7z M1435.2,1549.9c-12.5-3.5-25-7.7-37.1-12.4
			l1.8-4.7c12,4.6,24.3,8.8,36.7,12.3L1435.2,1549.9z M1704.2,1537.3l-1.8-4.7c12-4.6,23.9-9.9,35.4-15.6l2.2,4.5
			C1728.4,1527.3,1716.3,1532.6,1704.2,1537.3z M1362.3,1521.7c-11.6-5.8-23.1-12.2-34.2-19l2.6-4.2c10.9,6.8,22.3,13.1,33.8,18.8
			L1362.3,1521.7z M1774.2,1502.4l-2.6-4.2c10.9-6.8,21.6-14.1,31.9-21.9l3,4C1796,1488.1,1785.2,1495.5,1774.2,1502.4z
			 M1295.8,1480.5c-10.4-7.8-20.5-16.2-30.1-25l3.4-3.7c9.5,8.7,19.5,17,29.8,24.7L1295.8,1480.5z M1836.5,1455.2l-3.4-3.7
			c9.5-8.7,18.7-17.9,27.3-27.4l3.7,3.4C1855.4,1437.1,1846.1,1446.4,1836.5,1455.2z M1238,1427.9c-8.8-9.6-17.2-19.7-25-30.1l4-3
			c7.8,10.2,16.1,20.2,24.7,29.7L1238,1427.9z M1889.2,1397.4l-4-3c7.8-10.3,15.1-21,21.9-31.9l4.2,2.6
			C1904.5,1376.2,1897,1387,1889.2,1397.4z M1190.8,1365.5c-6.9-11-13.3-22.5-19.1-34.2l4.5-2.2c5.7,11.5,12.1,22.8,18.9,33.7
			L1190.8,1365.5z M1930.4,1331l-4.5-2.2c5.7-11.5,11-23.4,15.6-35.4l4.7,1.8C1941.5,1307.3,1936.2,1319.3,1930.4,1331z
			 M1155.9,1295.6c-4.7-12.1-8.9-24.6-12.5-37.1l4.8-1.4c3.5,12.3,7.7,24.7,12.3,36.7L1155.9,1295.6z M1958.6,1258.1l-4.8-1.4
			c3.5-12.3,6.5-25,8.8-37.6l4.9,0.9C1965.2,1232.7,1962.2,1245.6,1958.6,1258.1z M1134.4,1220.4c-2.4-12.8-4.2-25.8-5.4-38.8l5-0.5
			c1.2,12.8,3,25.7,5.3,38.3L1134.4,1220.4z M1132.2,1142.6h-5v-0.5c0-12.9,0.6-25.8,1.7-38.6l5,0.4c-1.1,12.6-1.7,25.4-1.7,38.1
			V1142.6z M1967.8,1102.5c-1.2-12.8-3-25.7-5.4-38.3l4.9-0.9c2.4,12.8,4.2,25.8,5.4,38.7L1967.8,1102.5z M1139.2,1065.7l-4.9-0.9
			c2.4-12.8,5.3-25.6,8.9-38.1l4.8,1.4C1144.4,1040.4,1141.5,1053,1139.2,1065.7z M1953.6,1026.6c-3.5-12.3-7.7-24.7-12.4-36.6
			l4.7-1.8c4.7,12.1,8.9,24.6,12.5,37.1L1953.6,1026.6z M1160.2,991.3l-4.7-1.8c4.7-12.1,10-24.2,15.8-35.8l4.5,2.2
			C1170,967.4,1164.8,979.4,1160.2,991.3z M1925.5,954.6c-5.8-11.5-12.1-22.8-18.9-33.7l4.2-2.6c6.9,11,13.3,22.5,19.1,34.1
			L1925.5,954.6z M1194.6,922.1l-4.2-2.6c6.8-11,14.3-21.9,22.1-32.3l4,3C1208.7,900.5,1201.3,911.2,1194.6,922.1z M1884.6,889.1
			c-7.8-10.2-16.1-20.2-24.8-29.7l3.7-3.4c8.8,9.6,17.2,19.7,25.1,30L1884.6,889.1z M1241.1,860.4l-3.7-3.4
			c8.7-9.6,18-18.9,27.6-27.7l3.4,3.7C1258.9,841.7,1249.7,850.9,1241.1,860.4z M1298.1,808.3l-3-4c10.4-7.9,21.2-15.3,32.2-22.2
			l2.6,4.2C1319.1,793.2,1308.3,800.5,1298.1,808.3z M1770.7,785.6c-10.9-6.8-22.3-13.1-33.8-18.8l2.2-4.5
			c11.6,5.8,23.1,12.2,34.2,19L1770.7,785.6z M1363.7,767.5l-2.2-4.5c11.6-5.8,23.7-11.2,35.8-15.9l1.8,4.7
			C1387.1,756.4,1375.2,761.7,1363.7,767.5z M1701.5,751.3c-12-4.6-24.3-8.7-36.7-12.2l1.4-4.8c12.5,3.5,25,7.7,37.1,12.4
			L1701.5,751.3z M1435.7,739.4l-1.4-4.8c12.5-3.6,25.3-6.6,38.1-9l0.9,4.9C1460.7,732.9,1448,735.9,1435.7,739.4z M1627.2,730.3
			c-12.6-2.3-25.5-4.1-38.3-5.2l0.4-5c13,1.2,26,2.9,38.8,5.3L1627.2,730.3z M1511.6,725.2l-0.5-5c12.9-1.2,26-1.8,39.1-1.8l0,5
			C1537.3,723.4,1524.3,724,1511.6,725.2z"/>
	</g>
	<g>
		<path class="st1" d="M750.4,707.8l-0.9-3.3c8.6-2.4,17.1-5.3,25.3-8.5l1.2,3.2C767.7,702.4,759.1,705.3,750.4,707.8z M724.1,714
			c-8.8,1.7-17.9,2.9-26.8,3.8l-0.3-3.4c8.8-0.8,17.7-2.1,26.5-3.7L724.1,714z M800.8,688.3l-1.5-3.1c8-4,15.8-8.3,23.4-13l1.8,2.9
			C816.8,679.8,808.9,684.3,800.8,688.3z M670.3,719c-9,0-18.1-0.4-27-1.2l0.3-3.4c8.8,0.8,17.8,1.2,26.7,1.2L670.3,719z
			 M846.8,659.8l-2.1-2.8c7.1-5.4,14-11.1,20.5-17.1l2.3,2.5C860.9,648.6,853.9,654.4,846.8,659.8z M616.5,714.1
			c-8.8-1.7-17.7-3.7-26.3-6.2l0.9-3.3c8.5,2.4,17.3,4.5,26,6.1L616.5,714.1z M886.7,623.4l-2.6-2.3c6-6.6,11.7-13.5,17.1-20.6
			l2.8,2.1C898.5,609.7,892.7,616.8,886.7,623.4z M564.6,699.3c-8.4-3.2-16.7-6.9-24.7-10.9l1.5-3.1c8,4,16.2,7.6,24.5,10.8
			L564.6,699.3z M919.2,580.2l-2.9-1.8c4.7-7.6,9-15.4,13-23.4l3.1,1.5C928.3,564.7,923.9,572.6,919.2,580.2z M516.2,675.2
			c-7.6-4.7-15.2-9.9-22.3-15.3l2.1-2.8c7.1,5.3,14.5,10.4,22.1,15.1L516.2,675.2z M943.3,531.9l-3.2-1.2c3.2-8.3,6.1-16.8,8.5-25.3
			l3.3,0.9C949.4,514.9,946.5,523.5,943.3,531.9z M473,642.7c-6.7-6-13.1-12.5-19.2-19.1l2.5-2.3c6,6.5,12.4,12.9,18.9,18.9
			L473,642.7z M958.1,479.9l-3.4-0.6c1.6-8.7,2.9-17.6,3.7-26.5l3.4,0.3C961,462.1,959.8,471.1,958.1,479.9z M436.6,602.9
			c-5.4-7.2-10.6-14.7-15.3-22.3l2.9-1.8c4.7,7.5,9.8,15,15.1,22L436.6,602.9z M963.1,426.1l-3.5,0c0-8.9-0.4-17.8-1.3-26.7l3.4-0.3
			C962.7,408,963.1,417.1,963.1,426.1z M408.1,556.9c-4-8-7.7-16.4-10.9-24.7l3.2-1.2c3.2,8.3,6.8,16.5,10.8,24.4L408.1,556.9z
			 M958.1,372.3l-3.4,0.6c-1.6-8.7-3.7-17.4-6.1-26l-0.2-0.6l3.3-1l0.2,0.6C954.3,354.7,956.4,363.5,958.1,372.3z M391.9,505.6
			l-3.3,0.9l-0.1-0.3c-2.4-8.6-4.5-17.3-6.1-26l3.4-0.6c1.6,8.6,3.7,17.2,6.1,25.7L391.9,505.6z M939.8,321
			c-3.2-8.3-6.9-16.5-10.8-24.4l3.1-1.5c4,8,7.7,16.3,10.9,24.7L939.8,321z M382,453.1l-3.4,0.3c-0.8-8.9-1.3-18-1.3-27l3.5,0
			C380.7,435.3,381.1,444.3,382,453.1z M916,273.2c-4.7-7.5-9.8-14.9-15.1-22l2.8-2.1c5.4,7.2,10.6,14.7,15.3,22.3L916,273.2z
			 M381.9,399.8l-3.4-0.3c0.8-8.9,2.1-18,3.7-26.8l3.4,0.6C383.9,382,382.7,390.9,381.9,399.8z M883.7,230.7
			c-6-6.5-12.4-12.9-19-18.8l2.3-2.6c6.7,6,13.1,12.5,19.2,19.1L883.7,230.7z M391.7,347.3l-3.3-0.9c2.5-8.6,5.3-17.3,8.6-25.6
			l3.2,1.2C396.9,330.2,394.1,338.7,391.7,347.3z M844.1,194.8c-7.1-5.3-14.5-10.4-22.1-15.1l1.8-2.9c7.6,4.7,15.2,9.8,22.4,15.2
			L844.1,194.8z M410.9,297.5l-3.1-1.5c4-8,8.4-16,13.1-23.6l2.9,1.8C419.2,281.6,414.9,289.5,410.9,297.5z M798.7,166.8
			c-8-3.9-16.2-7.6-24.5-10.8l1.2-3.2c8.4,3.2,16.7,6.9,24.8,10.9L798.7,166.8z M439,252l-2.8-2.1c5.4-7.2,11.2-14.2,17.2-20.8
			l2.6,2.3C450,238,444.3,244.9,439,252z M748.9,147.6c-8.5-2.4-17.3-4.5-26-6.1l0.6-3.4c8.8,1.6,17.7,3.7,26.3,6.2L748.9,147.6z
			 M474.9,212.5l-2.3-2.5c6.6-6.1,13.6-11.9,20.8-17.3l2.1,2.8C488.3,200.7,481.4,206.5,474.9,212.5z M696.4,137.8
			c-8.8-0.8-17.8-1.2-26.7-1.2l0-3.5c9,0,18.1,0.4,27,1.2L696.4,137.8z M517.4,180.2l-1.8-2.9c7.6-4.7,15.6-9.2,23.6-13.2l1.5,3.1
			C532.8,171.2,524.9,175.5,517.4,180.2z M643,137.9c-8.8,0.8-17.7,2.1-26.5,3.8l-0.6-3.4c8.8-1.7,17.8-3,26.8-3.8L643,137.9z
			 M565.2,156.4l-1.2-3.2c8.3-3.2,17-6.1,25.6-8.6l1,3.3C582,150.3,573.4,153.2,565.2,156.4z"/>
	</g>
	<g>
		<path class="st2" d="M1337.6,126.1l8.3,53.3l-38.6-26.9l-117.6-56.8l90.1,6.2c0,0,46.1,10.1,48.6,12.3
			C1330.9,116.5,1337.6,126.1,1337.6,126.1z"/>
		<polygon class="st3" points="1376.7,93 1189.7,95.8 1337.6,126.1 		"/>
		<polygon class="st3" points="1278.7,181.3 1326.8,140.8 1189.7,95.8 		"/>
	</g>
	<g>
		<g>
			<path class="st4" d="M1603.1,316.3l-4.4,0.5c-0.1-1.2-0.3-2.4-0.5-3.6c-0.6-4.1-1.5-8.2-2.6-12.3c-1-3.7-2.2-7.5-3.6-11.1
				l4.1-1.6c1.4,3.8,2.7,7.7,3.8,11.6c1.1,4.2,2,8.5,2.7,12.7C1602.8,313.7,1602.9,315,1603.1,316.3z M1579.3,264.9
				c-4.9-7.6-10.7-15-17.2-22.1l3.2-3c6.7,7.3,12.6,14.9,17.7,22.7L1579.3,264.9z M1441.5,257.6c-3,0.8-10.6,1.1-15.6-1.7
				c-3.7-2.1-6.8-5.5-9-9.7l3.9-2c1.8,3.5,4.3,6.2,7.3,7.9c3.6,2,9.9,1.9,12.3,1.2c0.3-0.1,0.4-0.1,0.4-0.1c0.2-0.1,0.4-0.3,0.6-0.4
				l2.5,3.6c-0.2,0.2-0.5,0.3-0.8,0.5C1442.8,257.2,1442.2,257.4,1441.5,257.6z M1541.6,223.6c-7.1-5.8-14.9-11.3-22.9-16.3l2.3-3.7
				c8.2,5.1,16.1,10.7,23.4,16.6L1541.6,223.6z M1459.3,231.3l-4.3-0.8c0.5-2.7,0.7-5.5,0.7-8.2c-0.1-3.9-0.7-7.8-1.7-11.8
				c-0.6-2.2-1.3-4.4-2.2-6.5l4.1-1.6c0.9,2.3,1.7,4.7,2.4,7c1.2,4.3,1.8,8.7,1.9,12.9C1460.1,225.2,1459.8,228.3,1459.3,231.3z
				 M1420.2,218.6l-4-1.8c3.8-8.4,11.1-15.9,20.1-20.5l0.6-0.3l2,3.9l-0.6,0.3C1430.2,204.3,1423.6,211.1,1420.2,218.6z
				 M1492.9,197.2c-8-2.3-14.4-3.6-17.5-3.7c-3.5-0.1-6.7-0.1-9.8,0.1l-0.2-4.4c3.2-0.2,6.5-0.2,10.2-0.1c4.7,0.1,13.6,2.5,18.6,3.8
				L1492.9,197.2z M1436.9,180.6c-6.2-6.9-13.3-12.9-21.3-17.7l2.3-3.8c8.3,5.1,15.8,11.3,22.3,18.5L1436.9,180.6z"/>
		</g>
		<g>
			<path class="st4" d="M1390.1,152.2c-4.7-1.2-9.4-1.9-14-2.3l0.3-4.4c4.8,0.4,9.8,1.2,14.7,2.4L1390.1,152.2z"/>
		</g>
	</g>
	<path class="st5" d="M1507.9,1341.4c-11.7-4.2-23.6-7.9-35.3-12.4c-2.1-0.8-4.5-3.6-4.9-5.9c-2.3-14.2-3.7-28.6-6.1-42.8
		c-0.7-4.1-0.3-6.5,3.2-9c12.3-8.9,24.4-18.1,36.5-27.2c2-1.5,3.9-3,7.3-5.6c-11.8-19.2-23.6-38.2-35.6-57.6
		c-16.6,8-31.8,15-46.7,22.6c-5.3,2.7-8.5,2.8-13.4-1.4c-10-8.7-21.3-16-31.8-24.1c-1.6-1.3-2.9-4.3-2.7-6.3
		c1.8-15.3,3.6-30.6,6.3-45.8c1.3-7.3-1.1-10.4-7.7-11.9c-2.5-0.6-4.9-2.1-7.3-3.2c-11.4-2.8-22.9-5.6-34.3-8.5
		c-1.3,0.1-2.7,0.4-4,0.2c-13.6-1.9-11.2-2.4-15.5,9.7c-5.3,14.7-10.3,29.4-14.8,42.2c-19.2,3.1-37.2,5.9-55.8,8.9
		c-11.1-14.9-22.8-30.5-34.5-46.1c-21.4,8.7-39.9,20.9-57.4,35.4c7.9,16.3,15.5,32.2,23.2,48.1c1.4,2.8,1.7,4.7-0.7,7.7
		c-9.3,11.6-18.4,23.4-26.9,35.6c-2.5,3.5-4.5,4.1-8.2,3.5c-15.5-2.3-31-4.2-46.4-6.4c-3.8-0.6-6.1,0.1-7.8,4.2
		c-7.6,18.2-11.1,37.3-13,56.7c-0.4,3.9,1.7,4.9,4.8,6c14.4,4.8,28.7,10,43.1,14.8c4.2,1.4,5.7,3.1,6.2,7.8
		c1.6,16.6,4.2,33,6.6,50.9c-13.5,10.1-28.9,21.6-44.3,33.1c8.7,21.8,20.1,41.1,35.2,58.5c17.8-8.7,35-17.1,50.7-24.7
		c13.4,9.2,25.6,18.1,38.3,26.2c4.8,3.1,6.3,5.9,5.3,11.4c-2.5,14.7-4.4,29.6-6.4,44.4c-0.4,2.9-1.7,6.6,3,7.7
		c19.1,4.6,38.3,9.2,57.4,13.7c4.1,1,6-0.8,7.3-4.7c4.8-14.6,10.3-29,14.9-43.7c1.8-5.7,5-6.7,10.2-7.3c13-1.5,26-3.3,38.7-6.3
		c5.5-1.3,7.8-0.4,10.9,4c9.9,14,20.3,27.7,30.4,41.2c13.5-3.5,47.3-24.4,58.4-36.1c-7.7-15.7-15.4-31.6-23.4-47.3
		c-2-3.9-1.2-6,1.3-9.4c8.2-10.7,15.7-22.1,23.8-32.9c1.4-1.8,4.7-3.5,6.8-3.2c13.7,1.7,27.4,3.8,41,6c7.6,1.2,10.7,1.7,12.9-0.7
		l15-60.9C1520.9,1346.1,1517.4,1344.8,1507.9,1341.4z M1396.1,1350.1c-13.4,54.4-68.5,87.7-122.9,74.3l0,0
		c-54.4-13.4-87.7-68.5-74.3-122.9l0,0c13.4-54.4,68.5-87.7,122.9-74.3l0,0C1376.3,1240.6,1409.5,1295.6,1396.1,1350.1
		L1396.1,1350.1z"/>
	<path class="st5" d="M2235.5,1290.2c-7.3-3.4-14.7-6.5-22-10.1c-1.3-0.6-2.7-2.6-2.8-4.1c-0.6-9.3-0.7-18.7-1.4-28
		c-0.2-2.7,0.2-4.2,2.6-5.6c8.5-5,16.8-10.2,25.2-15.3c1.4-0.8,2.7-1.7,5-3.2c-6.5-13.1-12.9-26-19.5-39.3
		c-11.2,4.1-21.4,7.7-31.5,11.8c-3.5,1.4-5.6,1.3-8.5-1.7c-6-6.2-12.8-11.6-19.1-17.5c-1-0.9-1.6-2.9-1.4-4.2
		c2.1-9.7,4.1-19.5,6.8-29.1c1.3-4.6-0.1-6.8-4.2-8.1c-1.6-0.5-3-1.6-4.5-2.5c-7.2-2.5-14.4-5-21.6-7.5c-0.9,0-1.8,0.1-2.6-0.1
		c-8.6-2-7.1-2.2-10.6,5.3c-4.3,9.1-8.4,18.3-12.1,26.3c-12.6,0.8-24.4,1.6-36.5,2.4c-6.3-10.3-12.9-21-19.5-31.8
		c-14.3,4.3-27,11.1-39.2,19.4c4.1,11,8.1,21.7,12.1,32.4c0.7,1.9,0.8,3.1-0.9,4.9c-6.7,6.9-13.2,14-19.5,21.4
		c-1.8,2.1-3.1,2.3-5.5,1.8c-9.8-2.4-19.7-4.6-29.6-6.9c-2.4-0.6-3.9-0.3-5.3,2.2c-6,11.3-9.4,23.4-11.8,35.8
		c-0.5,2.5,0.8,3.3,2.8,4.2c9,4,17.9,8.2,26.9,12.1c2.6,1.1,3.5,2.3,3.5,5.4c0.1,10.8,0.7,21.5,1.2,33.2
		c-9.3,5.7-19.9,12.2-30.5,18.7c4.3,14.6,10.5,27.7,19.2,39.8c12-4.5,23.6-8.9,34.2-12.9c8.1,6.8,15.4,13.2,23.1,19.2
		c2.9,2.3,3.7,4.2,2.7,7.7c-2.5,9.4-4.6,18.8-6.8,28.2c-0.4,1.9-1.5,4.1,1.5,5.1c12.1,4.1,24.1,8.2,36.2,12.3c2.6,0.9,3.9-0.2,5-2.6
		c4-9.1,8.4-18.1,12.2-27.3c1.5-3.5,3.6-4,7-4.1c8.5-0.2,17-0.6,25.3-1.7c3.6-0.5,5.1,0.2,6.8,3.2c5.5,9.6,11.5,19.1,17.1,28.4
		c8.9-1.4,31.9-12.9,39.8-19.7c-4-10.6-8-21.3-12.3-31.9c-1.1-2.7-0.4-4,1.4-6c5.9-6.4,11.4-13.3,17.3-19.8c1-1.1,3.2-2,4.6-1.7
		c8.7,1.9,17.4,4.1,26.1,6.3c4.8,1.2,6.8,1.8,8.4,0.3l13.3-38.4C2243.6,1294,2241.4,1293,2235.5,1290.2z M2162.9,1289.1
		c-11.9,34.3-49.4,52.4-83.7,40.5l0,0c-34.3-11.9-52.4-49.4-40.5-83.7v0c11.9-34.3,49.4-52.4,83.7-40.5l0,0
		C2156.7,1217.4,2174.8,1254.9,2162.9,1289.1L2162.9,1289.1z"/>
	<path class="st6" d="M806.9,413.9l3.9-17.4l-12.1-13.1c-1.4-1.5-0.4-3.9,1.6-4.1l17.7-1.6l8.7-15.5c1-1.8,3.6-1.6,4.4,0.2l7,16.4
		l17.4,3.5c2,0.4,2.7,2.9,1.1,4.2l-13.4,11.7l2.1,17.7c0.2,2-1.9,3.4-3.7,2.4l-15.3-9.1l-16.1,7.4
		C808.5,417.5,806.4,415.9,806.9,413.9z"/>
	<g>
		<path class="st0" d="M805.8,1138.3l-4-0.3c0.8-10.3,1.1-20.7,0.9-30.9l4-0.1C807,1117.4,806.6,1127.9,805.8,1138.3z M802.1,1169.4
			c-1.7,10.3-4,20.6-6.6,30.6l-3.9-1c2.6-9.9,4.8-20.1,6.5-30.2L802.1,1169.4z M804.9,1075.8l-4,0.4c-1.1-10.2-2.7-20.5-4.7-30.5
			l3.9-0.8C802.1,1055.1,803.8,1065.5,804.9,1075.8z M786,1229.8c-3.6,9.7-7.7,19.4-12.2,28.8l-3.6-1.7c4.4-9.3,8.5-18.9,12-28.5
			L786,1229.8z M792.4,1014.6l-3.8,1.2c-3-9.8-6.4-19.6-10.3-29.1l3.7-1.5C785.9,994.7,789.4,1004.6,792.4,1014.6z M759.1,1286.2
			c-5.3,8.9-11.1,17.7-17.3,26.1l-3.2-2.4c6.1-8.3,11.8-17,17.1-25.8L759.1,1286.2z M768.8,956.7l-3.5,1.8
			c-4.7-9.1-9.9-18.1-15.5-26.8l3.4-2.2C758.8,938.4,764.1,947.5,768.8,956.7z M722.2,1336.7c-6.9,7.8-14.2,15.4-21.8,22.5l-2.7-2.9
			c7.5-7,14.7-14.5,21.5-22.2L722.2,1336.7z M735,904.1l-3.1,2.5c-6.3-8.1-13.1-16-20.1-23.5l2.9-2.7
			C721.8,887.9,728.6,895.9,735,904.1z M676.7,1379.6c-8.2,6.4-16.8,12.5-25.5,18.1l-2.2-3.4c8.6-5.6,17.1-11.6,25.2-17.9
			L676.7,1379.6z M692.2,858.6l-2.6,3c-7.7-6.8-15.8-13.3-24.1-19.4l2.4-3.2C676.2,845.1,684.4,851.7,692.2,858.6z M624.1,1413.4
			c-9.2,4.8-18.8,9.2-28.4,13.1l-1.5-3.7c9.5-3.9,18.9-8.2,28.1-13L624.1,1413.4z M641.7,821.7l-2.1,3.4c-8.8-5.3-18-10.2-27.2-14.6
			l1.7-3.6C623.5,811.4,632.8,816.3,641.7,821.7z M566.3,1437c-9.9,3-20.2,5.6-30.3,7.7l-0.8-3.9c10.1-2.1,20.1-4.6,30-7.6
			L566.3,1437z M585.3,794.7l-1.4,3.7c-9.6-3.5-19.5-6.7-29.5-9.3l1-3.9C565.6,787.9,575.6,791.1,585.3,794.7z M505,1449.5
			c-10.3,1.1-20.8,1.8-31.2,1.9l-0.1-4c10.3-0.2,20.7-0.8,30.9-1.9L505,1449.5z M524.9,778.6l-0.7,3.9c-10.1-1.7-20.4-3-30.7-3.8
			l-0.8-0.1l0.3-4l0.8,0.1C504.3,775.6,514.7,776.9,524.9,778.6z M442.8,1446.5l-0.3,4l-0.4,0c-10.3-0.8-20.6-2-30.7-3.7l0.7-3.9
			c10,1.7,20.2,2.9,30.3,3.7L442.8,1446.5z M461.9,777.9c-10.3,0.2-20.7,0.8-30.9,2l-0.4-4c10.3-1.1,20.8-1.8,31.2-2L461.9,777.9z
			 M381.9,1436.3l-1,3.9c-10.1-2.7-20.1-5.8-29.8-9.4l1.4-3.8C362.1,1430.5,372,1433.6,381.9,1436.3z M400.5,784.6
			c-10.1,2.1-20.1,4.6-30,7.6l-1.2-3.8c9.9-3,20.1-5.6,30.3-7.7L400.5,784.6z M323.9,1415l-1.7,3.6c-9.4-4.5-18.7-9.4-27.6-14.8
			l2-3.4C305.5,1405.7,314.7,1410.6,323.9,1415z M341.4,802.6c-9.5,3.9-18.9,8.3-28,13l-1.8-3.5c9.2-4.8,18.8-9.2,28.4-13.2
			L341.4,802.6z M270.9,1383.3l-2.4,3.2c-8.4-6.1-16.6-12.7-24.4-19.6l2.6-3C254.5,1370.8,262.6,1377.3,270.9,1383.3z M286.7,831.2
			c-8.6,5.6-17.1,11.6-25.2,17.9L259,846c8.2-6.4,16.8-12.5,25.5-18.2L286.7,831.2z M224.5,1342.5l-2.9,2.7
			c-7.1-7.6-14-15.5-20.4-23.7l3.1-2.5C210.7,1327.1,217.5,1335,224.5,1342.5z M238,869.3c-7.5,7.1-14.7,14.5-21.5,22.2l-3-2.6
			c6.9-7.8,14.2-15.4,21.7-22.5L238,869.3z M186.4,1293.8l-3.4,2.2c-5.6-8.7-10.9-17.8-15.7-27.1l3.5-1.8
			C175.6,1276.2,180.9,1285.2,186.4,1293.8z M197.2,915.7c-6.1,8.3-11.8,17-17,25.8l-3.4-2c5.3-8.9,11.1-17.7,17.2-26.1L197.2,915.7
			z M157.9,1239.1l-3.7,1.5c-3.9-9.6-7.5-19.5-10.5-29.5l3.8-1.2C150.5,1219.7,154,1229.5,157.9,1239.1z M165.6,968.8
			c-4.4,9.3-8.4,18.9-12,28.5l-3.8-1.4c3.6-9.8,7.7-19.5,12.1-28.8L165.6,968.8z M139.9,1180l-3.9,0.8c-2.1-10.2-3.7-20.6-4.8-30.9
			l4-0.4C136.3,1159.6,137.9,1169.9,139.9,1180z M144.3,1026.7c-2.6,9.9-4.8,20.1-6.5,30.2l-3.9-0.7c1.7-10.3,3.9-20.6,6.6-30.6
			L144.3,1026.7z M133.2,1118.6l-4,0.1c-0.2-10.4,0.1-20.9,0.9-31.3l4,0.3C133.4,1097.9,133.1,1108.3,133.2,1118.6z"/>
	</g>
	<path class="st6" d="M191.1,1261.2l-26.3-3.6l-17.9,19.6c-2,2.2-5.8,1.2-6.3-1.8l-4.7-26.1l-24.2-10.9c-2.8-1.2-2.9-5.1-0.2-6.5
		l23.4-12.5l3-26.4c0.3-3,4-4.3,6.2-2.2l19.1,18.4l26-5.4c3-0.6,5.3,2.4,4,5.2l-11.6,23.9l13.1,23
		C196.2,1258.4,194.1,1261.6,191.1,1261.2z"/>
	<path class="st3" d="M1203.5,446.3l-0.1-14.7l-12.2-8.3c-1.4-0.9-1.1-3.1,0.5-3.6l13.9-4.7l4.1-14.2c0.5-1.6,2.6-2,3.6-0.6
		l8.7,11.8l14.7-0.5c1.7-0.1,2.7,1.8,1.7,3.2l-8.5,12l5,13.8c0.6,1.6-0.9,3.1-2.5,2.6l-14-4.4l-11.6,9.1
		C1205.4,448.9,1203.5,448,1203.5,446.3z"/>
	<path class="st3" d="M1869.3,1398l9.7-18.2l-9.4-18.3c-1.1-2.1,0.7-4.5,3-4.1l20.2,3.6l14.4-14.7c1.6-1.7,4.5-0.7,4.8,1.6l2.8,20.4
		l18.4,9.2c2.1,1,2.1,4,0,5.1l-18.5,9l-3.1,20.4c-0.4,2.3-3.2,3.2-4.8,1.5l-14.3-14.8l-20.3,3.4
		C1870,1402.5,1868.2,1400.1,1869.3,1398z"/>
	<path class="st6" d="M1415.1,543.2l-1,0.4c-0.9,0.4-2,0-2.5-0.8l-6.2-10.1l-8.4,3.4l5.9,9.6c0.7,1.1,0.2,2.5-1,2.9l-1,0.4
		c-0.9,0.4-2,0-2.5-0.8l-6.2-10.1l-5.8,2.3c-1,0.4-2.2-0.1-2.6-1.1l0,0c-0.4-1,0.1-2.2,1.1-2.6l5.1-2l-5.2-8.6l-5.5,2.2
		c-1,0.4-2.2-0.1-2.6-1.1l0,0c-0.4-1,0.1-2.2,1.1-2.6l4.7-1.9l-5.7-9.3c-0.7-1.1-0.2-2.5,1-2.9l1-0.4c0.9-0.4,2,0,2.5,0.8l6.1,9.8
		l8.4-3.4l-5.7-9.3c-0.7-1.1-0.2-2.5,1-2.9l0.9-0.4c0.9-0.4,2,0,2.5,0.8l6.1,9.8l5.8-2.3c1-0.4,2.2,0.1,2.6,1.1l0,0
		c0.4,1-0.1,2.2-1.1,2.6l-5.1,2l5.3,8.6l5.5-2.2c1-0.4,2.2,0.1,2.6,1.1l0,0c0.4,1-0.1,2.2-1.1,2.6l-4.7,1.9l5.9,9.6
		C1416.7,541.4,1416.2,542.8,1415.1,543.2z M1403.1,529.2l-5.3-8.6l-8.4,3.4l5.3,8.6L1403.1,529.2z"/>
	<g>
		<path class="st7" d="M1724.7,721.5c1,5.2,5.5,8.7,10.1,7.8s7.4-5.9,6.3-11c-1-5.2-5.5-8.7-10.1-7.8
			C1726.5,711.4,1723.7,716.3,1724.7,721.5z"/>
	</g>
	<g>
		<g>
			<path class="st8" d="M829.7,1250.6H703.9c-18.2,213.8-70,379.4-164.7,483.7h455.1C894.1,1628.5,844.4,1461,829.7,1250.6z"/>
			<g>
				<path class="st8" d="M603.5,1739.9c1.5-5.9,2.3-12.1,2.3-18.5c0-41.3-33.5-74.8-74.8-74.8c-9.2,0-18.1,1.7-26.3,4.8
					c-19.3-41.6-61.5-70.4-110.3-70.4c-61.7,0-112.6,45.9-120.5,105.4c-1.2-0.1-2.4-0.1-3.7-0.1c-23.6,0-44,13.6-53.8,33.4
					c-6.2-5.6-14.4-9-23.4-9c-17.3,0-31.7,12.7-34.4,29.3H603.5z"/>
				<path class="st8" d="M1437.4,1739.9c0.1-1,0.1-2,0.1-3c0-20.7-16.7-37.4-37.4-37.4s-37.4,16.7-37.4,37.4c0,1,0.1,2,0.1,3H1437.4
					z"/>
				<path class="st8" d="M1351.9,1739.9c0.2-2.2,0.3-4.4,0.3-6.6c0-40.3-32.7-73-73-73c-8.9,0-17.5,1.6-25.4,4.5
					c-3.8-52.9-47.9-94.5-101.7-94.5c-56.3,0-102,45.7-102,102c0,4.6,0.3,9.2,0.9,13.7c-7-2.1-14.3-3.3-22-3.3
					c-35.3,0-64.8,24.4-72.7,57.3H1351.9z"/>
			</g>
		</g>
		<g>
			<g>
				<path class="st2" d="M838.3,1253.1h-143c-3.2,0-5.8-2.6-5.8-5.8v-38.8h154.6v38.8C844.1,1250.5,841.5,1253.1,838.3,1253.1z"/>
				<g>
					<path class="st9" d="M646.3,992.7c0,0-58.3,77.7-99.8,125.4c-55.9,64.5-41.1,72.7,9,251.5c127.5-85.9,73.1-209.8,118.9-234.8
						C758,1089.3,646.3,992.7,646.3,992.7z"/>
					<path class="st9" d="M887.3,992.7c0,0,58.3,77.7,99.8,125.4c55.9,64.5,41.1,72.7-9,251.5c-127.5-85.9-73.1-209.8-118.9-234.8
						C775.6,1089.3,887.3,992.7,887.3,992.7z"/>
				</g>
				<g>
					<path class="st9" d="M925.4,931.4c0-149.7-86.5-283.4-131.3-342.6c-13.3-17.6-39.7-18-53.6-0.8
						c-45.6,56.6-132.3,184.2-132.3,336.1c0,61.4,42.1,235.7,64,280.1c5.3,10.6,16.1,17.4,27.9,17.4h136.7
						c11.9,0,22.7-6.8,27.9-17.4C886.7,1159.8,925.4,992.8,925.4,931.4z"/>
				</g>
				<path class="st10" d="M864.8,1204.2c21.9-44.4,60.6-211.5,60.6-272.9c0-91.2-32.1-176.4-67.3-242.5c-27.4-14.1-57.7-22-89.4-22
					c-35.1,0-68.3,9.6-98,26.7c-33.4,62.6-62.5,142.5-62.5,230.5c0,61.4,42.1,235.7,64,280.1c5.3,10.6,16.1,17.4,27.9,17.4h136.7
					C848.7,1221.7,859.5,1214.9,864.8,1204.2z"/>
				<g>
					
						<ellipse transform="matrix(0.1602 -0.9871 0.9871 0.1602 -203.3611 1478.6193)" class="st9" cx="767.3" cy="858.8" rx="97.4" ry="97.4"/>
					<path class="st11" d="M674.3,860.3c0-53.8,43.6-97.4,97.4-97.4c9.9,0,19.4,1.5,28.4,4.2c-10.3-3.7-21.3-5.7-32.8-5.7
						c-53.8,0-97.4,43.6-97.4,97.4c0,43.9,29,81,68.9,93.1C701.2,938.5,674.3,902.5,674.3,860.3z"/>
					<path class="st12" d="M775.9,943.7c0,4.1-3.3,7.4-7.4,7.4c-4.1,0-7.4-3.3-7.4-7.4c0-4.1,3.3-7.4,7.4-7.4
						C772.6,936.3,775.9,939.6,775.9,943.7z"/>
					<path class="st12" d="M775.5,776.5c0,4.1-3.3,7.4-7.4,7.4c-4.1,0-7.4-3.3-7.4-7.4c0-4.1,3.3-7.4,7.4-7.4
						C772.2,769.1,775.5,772.4,775.5,776.5z"/>
					<path class="st12" d="M838.3,804.4c0,4.1-3.3,7.4-7.4,7.4c-4.1,0-7.4-3.3-7.4-7.4c0-4.1,3.3-7.4,7.4-7.4
						C835.1,797,838.3,800.3,838.3,804.4z"/>
					<path class="st12" d="M716.1,919.9c0,4.1-3.3,7.4-7.4,7.4c-4.1,0-7.4-3.3-7.4-7.4c0-4.1,3.3-7.4,7.4-7.4
						C712.8,912.5,716.1,915.8,716.1,919.9z"/>
					<path class="st12" d="M838.3,916.6c0,4.1-3.3,7.4-7.4,7.4c-4.1,0-7.4-3.3-7.4-7.4c0-4.1,3.3-7.4,7.4-7.4
						C835.1,909.3,838.3,912.6,838.3,916.6z"/>
					<path class="st12" d="M713.2,803.2c0,4.1-3.3,7.4-7.4,7.4c-4.1,0-7.4-3.3-7.4-7.4c0-4.1,3.3-7.4,7.4-7.4
						C709.9,795.9,713.2,799.2,713.2,803.2z"/>
					<path class="st12" d="M860.1,860.3c0,4.1-3.3,7.4-7.4,7.4c-4.1,0-7.4-3.3-7.4-7.4c0-4.1,3.3-7.4,7.4-7.4
						C856.8,852.9,860.1,856.2,860.1,860.3z"/>
					<path class="st12" d="M690.4,860.3c0,4.1-3.3,7.4-7.4,7.4c-4.1,0-7.4-3.3-7.4-7.4c0-4.1,3.3-7.4,7.4-7.4
						C687.1,852.9,690.4,856.2,690.4,860.3z"/>
					<circle class="st13" cx="767.3" cy="858.8" r="71.4"/>
					<path class="st14" d="M704,867.6c0-39.5,32-71.4,71.4-71.4c18.5,0,35.3,7,48,18.5c-13.1-16.7-33.4-27.3-56.2-27.3
						c-39.5,0-71.4,32-71.4,71.4c0,21,9,39.8,23.4,52.9C709.7,899.6,704,884.3,704,867.6z"/>
					<g>
						<path class="st15" d="M774.6,942.5c0,4.1-3.3,7.4-7.4,7.4c-4.1,0-7.4-3.3-7.4-7.4c0-4.1,3.3-7.4,7.4-7.4
							C771.3,935.2,774.6,938.5,774.6,942.5z"/>
						<path class="st16" d="M767.3,946.6c-2.3,0-4.1-1.8-4.1-4.1c0-2.3,1.8-4.1,4.1-4.1c2.3,0,4.1,1.8,4.1,4.1
							C771.4,944.8,769.5,946.6,767.3,946.6z"/>
						<path class="st15" d="M774.2,775.3c0,4.1-3.3,7.4-7.4,7.4c-4.1,0-7.4-3.3-7.4-7.4c0-4.1,3.3-7.4,7.4-7.4
							C770.9,768,774.2,771.3,774.2,775.3z"/>
						<path class="st16" d="M766.8,779.4c-2.3,0-4.1-1.8-4.1-4.1c0-2.3,1.8-4.1,4.1-4.1c2.3,0,4.1,1.8,4.1,4.1
							C770.9,777.6,769.1,779.4,766.8,779.4z"/>
						<path class="st15" d="M837,803.3c0,4.1-3.3,7.4-7.4,7.4c-4.1,0-7.4-3.3-7.4-7.4c0-4.1,3.3-7.4,7.4-7.4
							C833.7,795.9,837,799.2,837,803.3z"/>
						<path class="st16" d="M829.7,807.3c-2.3,0-4.1-1.8-4.1-4.1c0-2.3,1.8-4.1,4.1-4.1c2.3,0,4.1,1.8,4.1,4.1
							C833.8,805.5,831.9,807.3,829.7,807.3z"/>
						<path class="st15" d="M714.8,918.7c0,4.1-3.3,7.4-7.4,7.4c-4.1,0-7.4-3.3-7.4-7.4s3.3-7.4,7.4-7.4
							C711.5,911.4,714.8,914.7,714.8,918.7z"/>
						<path class="st16" d="M707.5,922.8c-2.3,0-4.1-1.8-4.1-4.1s1.8-4.1,4.1-4.1c2.3,0,4.1,1.8,4.1,4.1S709.7,922.8,707.5,922.8z"
							/>
						<path class="st15" d="M837,915.5c0,4.1-3.3,7.4-7.4,7.4c-4.1,0-7.4-3.3-7.4-7.4c0-4.1,3.3-7.4,7.4-7.4
							C833.7,908.1,837,911.4,837,915.5z"/>
						<circle class="st16" cx="829.7" cy="915.5" r="4.1"/>
						<path class="st15" d="M711.9,802.1c0,4.1-3.3,7.4-7.4,7.4c-4.1,0-7.4-3.3-7.4-7.4c0-4.1,3.3-7.4,7.4-7.4
							C708.6,794.7,711.9,798,711.9,802.1z"/>
						<path class="st16" d="M704.5,806.2c-2.3,0-4.1-1.8-4.1-4.1c0-2.3,1.8-4.1,4.1-4.1c2.3,0,4.1,1.8,4.1,4.1
							C708.6,804.3,706.8,806.2,704.5,806.2z"/>
						<path class="st15" d="M858.8,859.1c0,4.1-3.3,7.4-7.4,7.4c-4.1,0-7.4-3.3-7.4-7.4c0-4.1,3.3-7.4,7.4-7.4
							C855.5,851.8,858.8,855.1,858.8,859.1z"/>
						<path class="st16" d="M851.4,863.2c-2.3,0-4.1-1.8-4.1-4.1c0-2.3,1.8-4.1,4.1-4.1c2.3,0,4.1,1.8,4.1,4.1
							C855.5,861.4,853.7,863.2,851.4,863.2z"/>
						<path class="st15" d="M689.1,859.1c0,4.1-3.3,7.4-7.4,7.4c-4.1,0-7.4-3.3-7.4-7.4c0-4.1,3.3-7.4,7.4-7.4
							C685.8,851.8,689.1,855.1,689.1,859.1z"/>
						<path class="st16" d="M681.7,863.2c-2.3,0-4.1-1.8-4.1-4.1c0-2.3,1.8-4.1,4.1-4.1c2.3,0,4.1,1.8,4.1,4.1
							C685.8,861.4,684,863.2,681.7,863.2z"/>
					</g>
				</g>
			</g>
			<path class="st9" d="M787.1,1198.2c0,94.7-9.4,155.7-20.3,171.4c-11.3-16.3-20.3-76.7-20.3-171.4c0-94.7,20.3-171.4,20.3-171.4
				S787.1,1103.5,787.1,1198.2z"/>
		</g>
	</g>
</g>
</svg>
